<svg width="288" height="203" viewBox="0 0 288 203" fill="none" xmlns="http://www.w3.org/2000/svg">
<path d="M233.014 0H60.7282C52.799 0 46.3711 6.42791 46.3711 14.3571V186.643C46.3711 194.572 52.799 201 60.7282 201H233.014C240.943 201 247.371 194.572 247.371 186.643V14.3571C247.371 6.42791 240.943 0 233.014 0Z" fill="#E5E7EB"/>
<g filter="url(#filter0_d_866_8311)">
<path d="M77.9575 77.5271H271.779C273.683 77.5271 275.509 78.2834 276.855 79.6297C278.201 80.9759 278.957 82.8018 278.957 84.7057V120.599C278.957 122.502 278.201 124.328 276.855 125.675C275.509 127.021 273.683 127.777 271.779 127.777H77.9575C76.0536 127.777 74.2277 127.021 72.8815 125.675C71.5352 124.328 70.7789 122.502 70.7789 120.599V84.7057C70.7789 82.8018 71.5352 80.9759 72.8815 79.6297C74.2277 78.2834 76.0536 77.5271 77.9575 77.5271V77.5271Z" fill="white"/>
</g>
<path d="M184.2 89.0142H146.871C144.493 89.0142 142.564 90.9425 142.564 93.3213C142.564 95.7001 144.493 97.6285 146.871 97.6285H184.2C186.579 97.6285 188.507 95.7001 188.507 93.3213C188.507 90.9425 186.579 89.0142 184.2 89.0142Z" fill="#E5E7EB"/>
<path d="M210.043 107.678H146.871C144.493 107.678 142.564 109.607 142.564 111.986C142.564 114.364 144.493 116.293 146.871 116.293H210.043C212.422 116.293 214.35 114.364 214.35 111.986C214.35 109.607 212.422 107.678 210.043 107.678Z" fill="#F7F6FC"/>
<path d="M114.568 116.293C122.1 116.293 128.207 110.187 128.207 102.654C128.207 95.1213 122.1 89.0148 114.568 89.0148C107.035 89.0148 100.928 95.1213 100.928 102.654C100.928 110.187 107.035 116.293 114.568 116.293Z" fill="#4364FA"/>
<path d="M108.308 108.065L111.022 101.028H111.974L114.678 108.065H113.824L113.191 106.396H109.795L109.162 108.065H108.308ZM110.075 105.65H112.911L111.522 101.975H111.463L110.075 105.65ZM115.885 108.065V101.028H118.407C119.048 101.028 119.567 101.221 119.963 101.607C120.359 101.993 120.556 102.503 120.556 103.138C120.556 103.766 120.354 104.281 119.948 104.684C119.542 105.083 119.029 105.282 118.407 105.282H116.699V108.065H115.885ZM116.699 104.556H118.338C118.754 104.556 119.088 104.424 119.339 104.159C119.595 103.89 119.722 103.55 119.722 103.138C119.722 102.732 119.596 102.4 119.344 102.142C119.093 101.883 118.757 101.754 118.338 101.754H116.699V104.556Z" fill="white"/>
<g filter="url(#filter1_d_866_8311)">
<path d="M16.2211 139.266H210.042C211.946 139.266 213.772 140.022 215.119 141.368C216.465 142.714 217.221 144.54 217.221 146.444V182.337C217.221 184.241 216.465 186.067 215.119 187.413C213.772 188.759 211.946 189.516 210.042 189.516H16.2211C14.3172 189.516 12.4913 188.759 11.1451 187.413C9.79881 186.067 9.0425 184.241 9.0425 182.337V146.444C9.0425 144.54 9.79881 142.714 11.1451 141.368C12.4913 140.022 14.3172 139.266 16.2211 139.266V139.266Z" fill="white"/>
</g>
<path d="M122.464 150.751H85.1349C82.7562 150.751 80.8278 152.679 80.8278 155.058C80.8278 157.437 82.7562 159.365 85.1349 159.365H122.464C124.842 159.365 126.771 157.437 126.771 155.058C126.771 152.679 124.842 150.751 122.464 150.751Z" fill="#E5E7EB"/>
<path d="M148.306 169.415H85.1349C82.7562 169.415 80.8278 171.343 80.8278 173.722C80.8278 176.101 82.7562 178.029 85.1349 178.029H148.306C150.685 178.029 152.614 176.101 152.614 173.722C152.614 171.343 150.685 169.415 148.306 169.415Z" fill="#F7F6FC"/>
<path d="M34.1686 178.029C41.7014 178.029 47.8079 171.923 47.8079 164.39C47.8079 156.857 41.7014 150.751 34.1686 150.751C26.6358 150.751 20.5293 156.857 20.5293 164.39C20.5293 171.923 26.6358 178.029 34.1686 178.029Z" fill="#4364FA"/>
<path d="M29.5456 166.485H30.3602C30.37 166.868 30.5091 167.174 30.7773 167.403C31.0456 167.629 31.3891 167.742 31.8078 167.742C32.0532 167.742 32.2708 167.699 32.4605 167.614C32.6502 167.526 32.8007 167.41 32.912 167.266C33.0265 167.118 33.1115 166.957 33.1671 166.78C33.226 166.6 33.2555 166.412 33.2555 166.216V162.074H30.5418V161.328H34.0701V166.196C34.0701 166.497 34.0243 166.781 33.9327 167.05C33.8411 167.318 33.7053 167.562 33.5254 167.781C33.3487 168 33.1099 168.175 32.8089 168.306C32.5079 168.434 32.1644 168.497 31.7784 168.497C31.4971 168.497 31.2272 168.455 30.9687 168.37C30.7103 168.285 30.4747 168.162 30.2621 168.002C30.0494 167.841 29.8777 167.63 29.7468 167.369C29.6159 167.107 29.5489 166.813 29.5456 166.485ZM35.4245 166.274H36.2391C36.2391 166.693 36.3961 167.043 36.7102 167.325C37.0275 167.603 37.4462 167.742 37.9664 167.742C38.4342 167.742 38.8154 167.635 39.1098 167.423C39.4075 167.207 39.5564 166.917 39.5564 166.554C39.5564 166.319 39.5122 166.117 39.4239 165.951C39.3355 165.78 39.2161 165.646 39.0656 165.548C38.9151 165.45 38.7418 165.368 38.5455 165.303C38.3524 165.234 38.148 165.175 37.9321 165.126C37.7194 165.074 37.5051 165.02 37.2892 164.964C37.0733 164.905 36.8672 164.83 36.6709 164.738C36.4779 164.647 36.3061 164.534 36.1556 164.4C36.0052 164.266 35.8857 164.087 35.7974 163.865C35.7091 163.642 35.6649 163.381 35.6649 163.08C35.6649 162.556 35.8694 162.113 36.2783 161.75C36.6873 161.384 37.2336 161.2 37.9173 161.2C38.1954 161.2 38.4653 161.24 38.727 161.318C38.992 161.397 39.239 161.514 39.468 161.671C39.697 161.828 39.8802 162.043 40.0176 162.314C40.1583 162.586 40.2286 162.895 40.2286 163.242H39.3944C39.3944 162.836 39.2652 162.519 39.0067 162.29C38.7483 162.057 38.3819 161.941 37.9075 161.941C37.4397 161.941 37.0847 162.053 36.8427 162.275C36.6006 162.494 36.4795 162.762 36.4795 163.08C36.4795 163.283 36.5237 163.459 36.612 163.61C36.7003 163.757 36.8198 163.875 36.9702 163.963C37.1207 164.048 37.2941 164.123 37.4904 164.189C37.6867 164.251 37.8912 164.31 38.1038 164.365C38.3197 164.418 38.5357 164.475 38.7516 164.537C38.9675 164.596 39.1736 164.678 39.3699 164.783C39.5662 164.884 39.7396 165.005 39.89 165.146C40.0405 165.286 40.1599 165.473 40.2483 165.705C40.3366 165.934 40.3808 166.201 40.3808 166.505C40.3808 167.074 40.1599 167.549 39.7183 167.928C39.2766 168.308 38.6829 168.497 37.937 168.497C37.4724 168.497 37.0488 168.404 36.666 168.218C36.2865 168.031 35.9839 167.768 35.7582 167.428C35.5357 167.084 35.4245 166.7 35.4245 166.274Z" fill="white"/>
<g filter="url(#filter2_d_866_8311)">
<path d="M210.042 15.7929H16.2211C12.2565 15.7929 9.0425 19.0068 9.0425 22.9714V58.8643C9.0425 62.8289 12.2565 66.0429 16.2211 66.0429H210.042C214.007 66.0429 217.221 62.8289 217.221 58.8643V22.9714C217.221 19.0068 214.007 15.7929 210.042 15.7929Z" fill="white"/>
</g>
<path d="M119.593 27.2777H82.2641C79.8854 27.2777 77.957 29.2061 77.957 31.5849C77.957 33.9636 79.8854 35.892 82.2641 35.892H119.593C121.971 35.892 123.9 33.9636 123.9 31.5849C123.9 29.2061 121.971 27.2777 119.593 27.2777Z" fill="#E5E7EB"/>
<path d="M145.436 45.942H82.2641C79.8854 45.942 77.957 47.8704 77.957 50.2492C77.957 52.6279 79.8854 54.5563 82.2641 54.5563H145.436C147.814 54.5563 149.743 52.6279 149.743 50.2492C149.743 47.8704 147.814 45.942 145.436 45.942Z" fill="#F7F6FC"/>
<path d="M52.8318 54.5556C60.3645 54.5556 66.471 48.4491 66.471 40.9163C66.471 33.3835 60.3645 27.277 52.8318 27.277C45.299 27.277 39.1925 33.3835 39.1925 40.9163C39.1925 48.4491 45.299 54.5556 52.8318 54.5556Z" fill="#4364FA"/>
<path d="M47.3057 42.8008H48.1203C48.1203 43.2196 48.2773 43.5696 48.5914 43.851C48.9087 44.129 49.3275 44.2681 49.8477 44.2681C50.3155 44.2681 50.6966 44.1618 50.991 43.9491C51.2887 43.7332 51.4376 43.4437 51.4376 43.0805C51.4376 42.845 51.3934 42.6438 51.3051 42.4769C51.2168 42.3068 51.0974 42.1727 50.9469 42.0745C50.7964 41.9764 50.623 41.8946 50.4267 41.8292C50.2337 41.7605 50.0292 41.7016 49.8133 41.6525C49.6007 41.6002 49.3864 41.5462 49.1705 41.4906C48.9545 41.4317 48.7484 41.3565 48.5521 41.2649C48.3591 41.1733 48.1874 41.0604 48.0369 40.9263C47.8864 40.7921 47.767 40.6138 47.6787 40.3914C47.5903 40.1689 47.5462 39.9072 47.5462 39.6062C47.5462 39.0828 47.7506 38.6395 48.1596 38.2764C48.5685 37.9099 49.1148 37.7267 49.7986 37.7267C50.0767 37.7267 50.3466 37.766 50.6083 37.8445C50.8733 37.923 51.1203 38.0408 51.3493 38.1978C51.5783 38.3549 51.7615 38.5692 51.8989 38.8407C52.0395 39.1122 52.1099 39.4214 52.1099 39.7682H51.2757C51.2757 39.3625 51.1464 39.0452 50.888 38.8162C50.6295 38.5839 50.2631 38.4677 49.7888 38.4677C49.3209 38.4677 48.966 38.579 48.7239 38.8014C48.4818 39.0206 48.3608 39.2889 48.3608 39.6062C48.3608 39.809 48.4049 39.9857 48.4933 40.1362C48.5816 40.2834 48.701 40.4012 48.8515 40.4895C49.002 40.5746 49.1754 40.6498 49.3717 40.7152C49.5679 40.7774 49.7724 40.8363 49.9851 40.8919C50.201 40.9443 50.4169 41.0015 50.6328 41.0637C50.8487 41.1225 51.0548 41.2043 51.2511 41.309C51.4474 41.4104 51.6208 41.5315 51.7713 41.6722C51.9218 41.8128 52.0412 41.9993 52.1295 42.2316C52.2178 42.4606 52.262 42.7272 52.262 43.0315C52.262 43.6007 52.0412 44.0751 51.5995 44.4546C51.1579 44.834 50.5641 45.0238 49.8182 45.0238C49.3537 45.0238 48.93 44.9306 48.5472 44.7441C48.1677 44.5576 47.8651 44.2943 47.6394 43.954C47.4169 43.6105 47.3057 43.2261 47.3057 42.8008ZM53.7685 44.8913V37.8543H55.859C56.5885 37.8543 57.2216 38.0065 57.7581 38.3107C58.2946 38.6117 58.7003 39.0255 58.9751 39.5522C59.2499 40.0789 59.3873 40.6858 59.3873 41.3728C59.3873 42.4688 59.0765 43.3292 58.4549 43.954C57.8333 44.5789 56.968 44.8913 55.859 44.8913H53.7685ZM54.5831 44.1699H55.859C56.6965 44.1699 57.3541 43.9246 57.8317 43.4339C58.3126 42.9399 58.5531 42.2528 58.5531 41.3728C58.5531 40.519 58.3126 39.8418 57.8317 39.3412C57.3541 38.8407 56.6965 38.5904 55.859 38.5904H54.5831V44.1699Z" fill="white"/>
<defs>
<filter id="filter0_d_866_8311" x="62.1646" y="73.22" width="225.407" height="67.4786" filterUnits="userSpaceOnUse" color-interpolation-filters="sRGB">
<feFlood flood-opacity="0" result="BackgroundImageFix"/>
<feColorMatrix in="SourceAlpha" type="matrix" values="0 0 0 0 0 0 0 0 0 0 0 0 0 0 0 0 0 0 127 0" result="hardAlpha"/>
<feOffset dy="4.30714"/>
<feGaussianBlur stdDeviation="4.30714"/>
<feColorMatrix type="matrix" values="0 0 0 0 0 0 0 0 0 0 0 0 0 0 0 0 0 0 0.161 0"/>
<feBlend mode="normal" in2="BackgroundImageFix" result="effect1_dropShadow_866_8311"/>
<feBlend mode="normal" in="SourceGraphic" in2="effect1_dropShadow_866_8311" result="shape"/>
</filter>
<filter id="filter1_d_866_8311" x="0.42821" y="134.958" width="225.407" height="67.4786" filterUnits="userSpaceOnUse" color-interpolation-filters="sRGB">
<feFlood flood-opacity="0" result="BackgroundImageFix"/>
<feColorMatrix in="SourceAlpha" type="matrix" values="0 0 0 0 0 0 0 0 0 0 0 0 0 0 0 0 0 0 127 0" result="hardAlpha"/>
<feOffset dy="4.30714"/>
<feGaussianBlur stdDeviation="4.30714"/>
<feColorMatrix type="matrix" values="0 0 0 0 0 0 0 0 0 0 0 0 0 0 0 0 0 0 0.161 0"/>
<feBlend mode="normal" in2="BackgroundImageFix" result="effect1_dropShadow_866_8311"/>
<feBlend mode="normal" in="SourceGraphic" in2="effect1_dropShadow_866_8311" result="shape"/>
</filter>
<filter id="filter2_d_866_8311" x="0.42821" y="11.4857" width="225.407" height="67.4786" filterUnits="userSpaceOnUse" color-interpolation-filters="sRGB">
<feFlood flood-opacity="0" result="BackgroundImageFix"/>
<feColorMatrix in="SourceAlpha" type="matrix" values="0 0 0 0 0 0 0 0 0 0 0 0 0 0 0 0 0 0 127 0" result="hardAlpha"/>
<feOffset dy="4.30714"/>
<feGaussianBlur stdDeviation="4.30714"/>
<feColorMatrix type="matrix" values="0 0 0 0 0 0 0 0 0 0 0 0 0 0 0 0 0 0 0.161 0"/>
<feBlend mode="normal" in2="BackgroundImageFix" result="effect1_dropShadow_866_8311"/>
<feBlend mode="normal" in="SourceGraphic" in2="effect1_dropShadow_866_8311" result="shape"/>
</filter>
</defs>
</svg>
