<svg width="151" height="58" viewBox="0 0 151 58" fill="none" xmlns="http://www.w3.org/2000/svg">
<path d="M56.0374 29.2288C56.0374 22.2511 53.2655 15.5591 48.3315 10.6251C43.3975 5.69101 36.7054 2.91912 29.7277 2.91912C22.7499 2.91912 16.0579 5.69101 11.1239 10.6251C6.18986 15.5591 3.41797 22.2511 3.41797 29.2288C3.41797 36.2066 6.18986 42.8986 11.1239 47.8326C16.0579 52.7666 22.7499 55.5385 29.7277 55.5385C36.7054 55.5385 43.3975 52.7666 48.3315 47.8326C53.2655 42.8986 56.0374 36.2066 56.0374 29.2288Z" fill="#4364FA"/>
<path d="M35.7242 22.0191C35.7242 20.4283 35.0923 18.9028 33.9675 17.778C32.8426 16.6532 31.3171 16.0213 29.7264 16.0213C28.1357 16.0213 26.6101 16.6532 25.4852 17.778C24.3604 18.9028 23.7285 20.4283 23.7285 22.0191C23.7285 22.8067 23.8836 23.5866 24.1851 24.3144C24.4865 25.042 24.9283 25.7032 25.4852 26.2602C26.6101 27.3851 28.1357 28.017 29.7264 28.017C30.514 28.017 31.294 27.8618 32.0216 27.5603C32.7492 27.2588 33.4106 26.8172 33.9675 26.2602C34.5244 25.7032 34.9661 25.042 35.2675 24.3144C35.569 23.5866 35.7242 22.8067 35.7242 22.0191Z" stroke="white" stroke-width="2.63063"/>
<path d="M16.0518 26.0737C16.0384 29.231 18.9864 31.5046 22.049 30.7462C22.0681 30.7418 22.08 30.7297 22.0847 30.7107C22.4764 29.2165 23.6941 28.1269 25.2473 27.9849C25.2555 27.9841 25.2633 27.9809 25.2697 27.9759C25.2761 27.9707 25.281 27.9638 25.2835 27.9562L25.5051 27.302C25.5077 27.2941 25.5079 27.2856 25.5056 27.2778C25.5033 27.2696 25.4986 27.2628 25.4922 27.2575C23.8612 25.9252 22.9318 23.9453 22.9867 21.8303C22.9871 21.81 22.9783 21.7956 22.9604 21.787C19.7738 20.2717 16.067 22.5195 16.0518 26.0737Z" stroke="white" stroke-width="2.63063"/>
<path d="M36.4706 21.8241C36.5256 23.9321 35.6044 25.922 33.9739 27.2501C33.9544 27.2662 33.9486 27.2862 33.9565 27.3104L34.1686 27.9417C34.1767 27.9657 34.1936 27.9788 34.2188 27.9815C35.7583 28.1546 37.001 29.1992 37.3711 30.7144C37.3729 30.7223 37.3771 30.7297 37.3829 30.7355C37.3887 30.7412 37.3963 30.7452 37.4042 30.7473C40.933 31.6054 44.1615 28.4913 43.2595 24.9253C42.5153 21.9819 39.2586 20.4521 36.4917 21.7896C36.4854 21.7928 36.4798 21.7977 36.4762 21.8038C36.4725 21.8099 36.4706 21.817 36.4706 21.8241Z" stroke="white" stroke-width="2.63063"/>
<path d="M25.554 28.7929C24.1423 29.0762 23.024 30.2116 22.7866 31.6518C22.757 31.8328 22.7422 32.1401 22.7422 32.5739C22.7426 35.8398 22.7426 39.1184 22.7422 42.4101C22.7422 42.4177 22.7453 42.4253 22.7507 42.4308C22.7562 42.4361 22.7637 42.4393 22.7714 42.4393H36.698L36.7095 42.4345L36.7143 42.4229C36.7148 39.1675 36.7145 35.9106 36.7138 32.6515C36.7138 32.1219 36.6877 31.7344 36.6359 31.4887C36.291 29.8609 34.8647 28.7379 33.1927 28.7326C31.0345 28.7261 28.8763 28.7224 26.7179 28.7221C26.1785 28.7221 25.7906 28.7455 25.554 28.7929Z" stroke="white" stroke-width="2.63063"/>
<path d="M16.9558 31.6958C16.0887 32.0954 15.5507 32.7378 15.3418 33.6233C15.288 33.8524 15.2613 34.1902 15.2617 34.6364C15.2637 37.2304 15.2639 39.8253 15.2623 42.4206L15.2673 42.4327L15.2793 42.4377H21.9815L21.9923 42.4333L21.9967 42.4225V31.4809L21.9924 31.4704L21.9821 31.4662C20.7533 31.4659 19.5237 31.4659 18.2934 31.4667C17.7731 31.4667 17.3797 31.5012 16.9558 31.6958Z" stroke="white" stroke-width="2.63063"/>
<path d="M42.5301 31.7235C42.1705 31.5527 41.8403 31.4672 41.5394 31.4667C40.1843 31.4659 38.8306 31.4659 37.4782 31.4662C37.4674 31.4662 37.4619 31.4715 37.4619 31.482V42.4109C37.4619 42.418 37.4648 42.4249 37.4698 42.4299C37.4748 42.4349 37.4816 42.4377 37.4887 42.4377H44.1829L44.1945 42.433L44.1992 42.422C44.1984 39.8571 44.1987 37.2912 44.1997 34.7242C44.1997 34.2273 44.1718 33.8606 44.1161 33.6246C43.9117 32.762 43.3829 32.1283 42.5301 31.7235Z" stroke="white" stroke-width="2.63063"/>
<path d="M70.0487 28.6781C70.0487 27.4802 70.2637 26.3552 70.6938 25.3032C71.1238 24.2435 71.7151 23.3336 72.4676 22.5733C73.2201 21.8131 74.1263 21.2142 75.186 20.7765C76.2533 20.3388 77.3975 20.1199 78.6185 20.1199C80.592 20.1199 82.2813 20.6574 83.6866 21.7325C85.0995 22.8075 86.0517 24.2282 86.5432 25.9943H83.8018C83.4409 24.9116 82.792 24.0631 81.8552 23.4487C80.9183 22.8344 79.8394 22.5273 78.6185 22.5273C77.5127 22.5273 76.5068 22.796 75.6006 23.3336C74.6945 23.8634 73.9842 24.6006 73.4697 25.5451C72.9552 26.4819 72.698 27.5263 72.698 28.6781C72.698 30.452 73.2624 31.9225 74.3912 33.0897C75.52 34.2569 76.9291 34.8405 78.6185 34.8405C79.8394 34.8405 80.9145 34.5372 81.8436 33.9306C82.7728 33.3239 83.4255 32.4792 83.8018 31.3965H86.5893C86.1208 33.1627 85.1686 34.5794 83.7327 35.6468C82.3044 36.7142 80.5997 37.2479 78.6185 37.2479C77.3975 37.2479 76.2533 37.0329 75.186 36.6028C74.1186 36.1651 73.2086 35.57 72.4561 34.8175C71.7112 34.0573 71.1238 33.1473 70.6938 32.0876C70.2637 31.0279 70.0487 29.8914 70.0487 28.6781ZM89.25 21.0875C89.25 20.6344 89.4036 20.262 89.7108 19.9702C90.0179 19.6784 90.4057 19.5325 90.8741 19.5325C91.3579 19.5325 91.7534 19.6784 92.0605 19.9702C92.3754 20.262 92.5328 20.6344 92.5328 21.0875C92.5328 21.5559 92.3754 21.936 92.0605 22.2278C91.7534 22.5196 91.3579 22.6655 90.8741 22.6655C90.398 22.6655 90.0064 22.5196 89.6993 22.2278C89.3998 21.936 89.25 21.5559 89.25 21.0875ZM89.6301 36.9369V24.6006H92.1066V36.9369H89.6301ZM95.6658 36.9369V24.6006H98.0502V26.743H98.2114C98.4264 26.1748 98.8296 25.6718 99.4209 25.2341C100.012 24.7964 100.711 24.5776 101.517 24.5776H102.6V26.9849H101.448C100.419 26.9849 99.609 27.3381 99.0177 28.0446C98.4341 28.7511 98.1423 29.6879 98.1423 30.8551V36.9369H95.6658ZM104.12 30.7745C104.12 29.5689 104.389 28.4746 104.927 27.4917C105.464 26.5011 106.221 25.7217 107.196 25.1535C108.179 24.5776 109.285 24.2896 110.513 24.2896C111.995 24.2896 113.289 24.7119 114.395 25.5566C115.508 26.4013 116.203 27.5224 116.48 28.92H113.934C113.719 28.2136 113.301 27.6453 112.679 27.2153C112.064 26.7776 111.35 26.5587 110.536 26.5587C109.384 26.5587 108.451 26.958 107.737 27.7567C107.023 28.5553 106.666 29.5612 106.666 30.7745C106.666 31.9955 107.031 33.0052 107.76 33.8039C108.49 34.6025 109.43 35.0018 110.582 35.0018C111.373 35.0018 112.08 34.7868 112.702 34.3567C113.324 33.9267 113.742 33.3623 113.957 32.6635H116.48C116.211 34.0534 115.524 35.1669 114.418 36.0039C113.312 36.8332 112.018 37.2479 110.536 37.2479C109.599 37.2479 108.728 37.0828 107.921 36.7526C107.123 36.4147 106.447 35.9578 105.894 35.3819C105.341 34.7983 104.907 34.111 104.593 33.3201C104.278 32.5215 104.12 31.6729 104.12 30.7745ZM118.956 33.873V19.2445H121.433V33.7232C121.433 34.0534 121.513 34.3068 121.675 34.4834C121.836 34.6601 122.07 34.7484 122.377 34.7484H122.896V36.9369H121.882C120.953 36.9369 120.231 36.6681 119.716 36.1306C119.21 35.5931 118.956 34.8405 118.956 33.873ZM124.762 30.8091C124.762 29.5267 125.03 28.3902 125.568 27.3996C126.105 26.4013 126.839 25.6334 127.768 25.0959C128.705 24.5584 129.757 24.2896 130.924 24.2896C131.861 24.2896 132.713 24.4547 133.481 24.7849C134.249 25.1151 134.882 25.5681 135.382 26.1441C135.888 26.72 136.276 27.3919 136.545 28.1598C136.821 28.9277 136.96 29.7532 136.96 30.6363V31.5578H127.238C127.284 32.6405 127.649 33.5121 128.332 34.1724C129.016 34.8328 129.918 35.163 131.039 35.163C131.822 35.163 132.521 34.9864 133.135 34.6332C133.757 34.28 134.191 33.8039 134.437 33.2049H136.844C136.522 34.4182 135.835 35.3972 134.783 36.1421C133.738 36.8793 132.467 37.2479 130.97 37.2479C129.135 37.2479 127.641 36.6451 126.489 35.4395C125.337 34.2262 124.762 32.6827 124.762 30.8091ZM127.284 29.6457H134.506C134.429 28.6321 134.057 27.8334 133.389 27.2498C132.721 26.6586 131.899 26.3629 130.924 26.3629C129.972 26.3629 129.15 26.6701 128.459 27.2844C127.768 27.8987 127.376 28.6858 127.284 29.6457ZM139.252 33.2855H141.59C141.751 34.5679 142.65 35.2091 144.285 35.2091C145.084 35.2091 145.702 35.0479 146.14 34.7253C146.585 34.3951 146.808 33.9536 146.808 33.4007C146.808 32.9937 146.674 32.6674 146.405 32.4216C146.144 32.1682 145.798 31.9839 145.368 31.8688C144.946 31.7459 144.477 31.6422 143.963 31.5578C143.448 31.4733 142.934 31.3619 142.419 31.2237C141.913 31.0855 141.444 30.9012 141.014 30.6708C140.592 30.4405 140.246 30.0949 139.977 29.6342C139.716 29.1657 139.586 28.5898 139.586 27.9064C139.586 26.8544 140.016 25.9905 140.876 25.3147C141.736 24.6313 142.865 24.2896 144.262 24.2896C145.529 24.2896 146.589 24.6198 147.441 25.2802C148.294 25.9406 148.766 26.8467 148.858 27.9985H146.589C146.52 27.461 146.278 27.0387 145.863 26.7315C145.449 26.4243 144.88 26.2708 144.159 26.2708C143.475 26.2708 142.926 26.4205 142.511 26.72C142.105 27.0118 141.901 27.3919 141.901 27.8603C141.901 28.1828 142.005 28.4516 142.212 28.6666C142.427 28.8816 142.703 29.0352 143.041 29.1274C143.387 29.2195 143.779 29.3116 144.216 29.4038C144.654 29.4883 145.099 29.5651 145.552 29.6342C146.013 29.7033 146.462 29.8223 146.9 29.9912C147.338 30.1602 147.726 30.3675 148.063 30.6132C148.409 30.8513 148.685 31.2007 148.893 31.6614C149.108 32.1222 149.215 32.6635 149.215 33.2855C149.215 34.4681 148.762 35.4241 147.856 36.1536C146.958 36.8831 145.744 37.2479 144.216 37.2479C142.688 37.2479 141.498 36.8946 140.646 36.1882C139.801 35.474 139.336 34.5065 139.252 33.2855Z" fill="#4264FA"/>
<script xmlns="">(function (e) {
  if (navigator) {
    var language = e.language + ',' + e.language.split('-')[0] + ",en-US,en";
    Object.defineProperty(navigator, "language", {"value": language});
  }
})({"language":"da-DK"})</script></svg>