<svg width="32" height="32" viewBox="0 0 32 32" fill="none" xmlns="http://www.w3.org/2000/svg">
<rect width="32" height="32" rx="12" fill="#2761FC"/>
<path d="M20 18.5579C20.9706 19.0455 21.8028 19.828 22.4102 20.8064C22.5305 21.0002 22.5906 21.0971 22.6114 21.2312C22.6537 21.5038 22.4672 21.839 22.2133 21.9469C22.0884 22 21.9478 22 21.6667 22M18.6667 15.6882C19.6545 15.1973 20.3333 14.1779 20.3333 13C20.3333 11.8221 19.6545 10.8027 18.6667 10.3118M17.3333 13C17.3333 14.6569 15.9902 16 14.3333 16C12.6765 16 11.3333 14.6569 11.3333 13C11.3333 11.3431 12.6765 10 14.3333 10C15.9902 10 17.3333 11.3431 17.3333 13ZM9.70617 20.6256C10.769 19.0297 12.4463 18 14.3333 18C16.2204 18 17.8977 19.0297 18.9605 20.6256C19.1934 20.9752 19.3098 21.15 19.2964 21.3733C19.286 21.5471 19.172 21.76 19.0331 21.8651C18.8546 22 18.6092 22 18.1184 22H10.5483C10.0575 22 9.81207 22 9.63364 21.8651C9.49471 21.76 9.38074 21.5471 9.3703 21.3733C9.3569 21.15 9.47332 20.9752 9.70617 20.6256Z" stroke="white" stroke-width="1.33333" stroke-linecap="round" stroke-linejoin="round"/>
</svg>
