<svg width="72" height="73" viewBox="0 0 72 73" fill="none" xmlns="http://www.w3.org/2000/svg">
<rect y="0.5" width="72" height="72" rx="36" fill="#EAEAF0"/>
<path d="M26 51.5001V48.1667C26 46.3986 26.7024 44.7029 27.9526 43.4527C29.2029 42.2024 30.8986 41.5001 32.6667 41.5001H39.3333C39.9133 41.5001 40.4767 41.5751 41.0133 41.7134M47.6667 43.1667V48.1667M47.6667 53.1667V53.1834M29.3333 28.1667C29.3333 29.9348 30.0357 31.6305 31.286 32.8808C32.5362 34.131 34.2319 34.8334 36 34.8334C37.7681 34.8334 39.4638 34.131 40.714 32.8808C41.9643 31.6305 42.6667 29.9348 42.6667 28.1667C42.6667 26.3986 41.9643 24.7029 40.714 23.4527C39.4638 22.2024 37.7681 21.5001 36 21.5001C34.2319 21.5001 32.5362 22.2024 31.286 23.4527C30.0357 24.7029 29.3333 26.3986 29.3333 28.1667Z" stroke="#0B0C19" stroke-width="2" stroke-linecap="round" stroke-linejoin="round"/>
</svg>
