<svg width="280" height="160" viewBox="0 0 280 160" fill="none" xmlns="http://www.w3.org/2000/svg">
<g clip-path="url(#clip0_1_742)">
<rect width="280" height="160" rx="16" fill="#2862FC" fill-opacity="0.1"/>
<g clip-path="url(#clip1_1_742)">
<rect width="182" height="404.444" transform="translate(49 -122.222)" fill="#F6F6FD"/>
<rect x="59.1111" y="-21.1111" width="161.778" height="28.3111" rx="8.08889" fill="white"/>
<rect x="59.1111" y="15.2889" width="161.778" height="28.3111" rx="8.08889" fill="white"/>
<rect x="67.2" y="23.3777" width="12.1333" height="12.1333" rx="6.06667" fill="#D6D6E0"/>
<path d="M73.2667 26.074C73.6 26.074 73.9258 26.1728 74.203 26.358C74.4801 26.5431 74.6961 26.8063 74.8236 27.1143C74.9512 27.4222 74.9846 27.761 74.9195 28.0879C74.8545 28.4148 74.694 28.7151 74.4583 28.9508C74.2227 29.1864 73.9224 29.3469 73.5955 29.412C73.2686 29.477 72.9298 29.4436 72.6218 29.3161C72.3139 29.1885 72.0507 28.9725 71.8655 28.6954C71.6804 28.4183 71.5815 28.0925 71.5815 27.7592L71.5832 27.686C71.6021 27.2522 71.7877 26.8423 72.1013 26.542C72.415 26.2417 72.8325 26.074 73.2667 26.074Z" fill="white"/>
<path d="M73.9408 30.1184C74.3877 30.1184 74.8164 30.296 75.1324 30.612C75.4484 30.928 75.626 31.3567 75.626 31.8036V32.1406C75.626 32.3194 75.555 32.4909 75.4286 32.6173C75.3021 32.7437 75.1307 32.8147 74.9519 32.8147H71.5815C71.4028 32.8147 71.2313 32.7437 71.1049 32.6173C70.9785 32.4909 70.9075 32.3194 70.9075 32.1406V31.8036C70.9075 31.3567 71.085 30.928 71.4011 30.612C71.7171 30.296 72.1457 30.1184 72.5927 30.1184H73.9408Z" fill="white"/>
<path d="M73.2667 26.074C73.6 26.074 73.9258 26.1728 74.203 26.358C74.4801 26.5431 74.6961 26.8063 74.8236 27.1143C74.9512 27.4222 74.9846 27.761 74.9195 28.0879C74.8545 28.4148 74.694 28.7151 74.4583 28.9508C74.2227 29.1864 73.9224 29.3469 73.5955 29.412C73.2686 29.477 72.9298 29.4436 72.6218 29.3161C72.3139 29.1885 72.0507 28.9725 71.8655 28.6954C71.6804 28.4183 71.5815 28.0925 71.5815 27.7592L71.5832 27.686C71.6021 27.2522 71.7877 26.8423 72.1013 26.542C72.415 26.2417 72.8325 26.074 73.2667 26.074Z" stroke="white"/>
<path d="M73.9408 30.1184C74.3877 30.1184 74.8164 30.296 75.1324 30.612C75.4484 30.928 75.626 31.3567 75.626 31.8036V32.1406C75.626 32.3194 75.555 32.4909 75.4286 32.6173C75.3021 32.7437 75.1307 32.8147 74.9519 32.8147H71.5815C71.4028 32.8147 71.2313 32.7437 71.1049 32.6173C70.9785 32.4909 70.9075 32.3194 70.9075 32.1406V31.8036C70.9075 31.3567 71.085 30.928 71.4011 30.612C71.7171 30.296 72.1457 30.1184 72.5927 30.1184H73.9408Z" stroke="white"/>
<path d="M86.6547 31.9443L84.8569 29.7431V31.9443H83.8661V27.004H84.8569V29.2194L86.6547 27.004H87.8508L85.8124 29.453L87.9075 31.9443H86.6547ZM90.3004 32.008C89.9229 32.008 89.5831 31.9255 89.2812 31.7603C88.9792 31.5904 88.7409 31.3522 88.5663 31.0455C88.3964 30.7388 88.3115 30.3849 88.3115 29.9838C88.3115 29.5827 88.3988 29.2288 88.5734 28.9221C88.7527 28.6154 88.9957 28.3795 89.3024 28.2143C89.6091 28.0445 89.9512 27.9595 90.3287 27.9595C90.7062 27.9595 91.0482 28.0445 91.3549 28.2143C91.6617 28.3795 91.9023 28.6154 92.0769 28.9221C92.2562 29.2288 92.3458 29.5827 92.3458 29.9838C92.3458 30.3849 92.2538 30.7388 92.0698 31.0455C91.8905 31.3522 91.6451 31.5904 91.3337 31.7603C91.027 31.9255 90.6826 32.008 90.3004 32.008ZM90.3004 31.1445C90.4797 31.1445 90.6472 31.1021 90.8029 31.0171C90.9633 30.9275 91.0907 30.7954 91.1851 30.6208C91.2795 30.4462 91.3266 30.2339 91.3266 29.9838C91.3266 29.611 91.2275 29.3256 91.0294 29.1274C90.8359 28.9245 90.5976 28.823 90.3145 28.823C90.0314 28.823 89.7931 28.9245 89.5997 29.1274C89.4109 29.3256 89.3165 29.611 89.3165 29.9838C89.3165 30.3566 89.4086 30.6444 89.5926 30.8473C89.7813 31.0455 90.0172 31.1445 90.3004 31.1445ZM95.2456 27.9666C95.7127 27.9666 96.0902 28.1153 96.378 28.4125C96.6658 28.7051 96.8098 29.1156 96.8098 29.6441V31.9443H95.8189V29.7785C95.8189 29.4671 95.741 29.2288 95.5853 29.0637C95.4296 28.8938 95.2173 28.8089 94.9483 28.8089C94.6746 28.8089 94.4576 28.8938 94.2971 29.0637C94.1414 29.2288 94.0636 29.4671 94.0636 29.7785V31.9443H93.0727V28.0232H94.0636V28.5116C94.1957 28.3417 94.3632 28.2096 94.5661 28.1153C94.7737 28.0162 95.0002 27.9666 95.2456 27.9666ZM99.2525 32.008C98.9317 32.008 98.6438 31.9514 98.389 31.8382C98.1342 31.7202 97.9313 31.5621 97.7804 31.364C97.6341 31.1658 97.5539 30.9464 97.5397 30.7057H98.5377C98.5566 30.8567 98.6297 30.9818 98.7571 31.0808C98.8892 31.1799 99.052 31.2295 99.2455 31.2295C99.4342 31.2295 99.5805 31.1917 99.6843 31.1162C99.7928 31.0407 99.8471 30.944 99.8471 30.826C99.8471 30.6986 99.781 30.6043 99.6489 30.5429C99.5215 30.4769 99.3162 30.4061 99.0331 30.3306C98.7406 30.2598 98.4999 30.1867 98.3112 30.1112C98.1272 30.0357 97.9667 29.9201 97.8299 29.7644C97.6978 29.6087 97.6317 29.3987 97.6317 29.1345C97.6317 28.9174 97.6931 28.7192 97.8157 28.5399C97.9431 28.3606 98.1224 28.2191 98.3537 28.1153C98.5896 28.0115 98.8656 27.9595 99.1818 27.9595C99.6489 27.9595 100.022 28.0775 100.3 28.3134C100.578 28.5446 100.732 28.8584 100.76 29.2548H99.8117C99.7975 29.0991 99.7315 28.9764 99.6135 28.8867C99.5003 28.7924 99.3469 28.7452 99.1534 28.7452C98.9741 28.7452 98.8349 28.7782 98.7359 28.8443C98.6415 28.9103 98.5943 29.0023 98.5943 29.1203C98.5943 29.2524 98.6604 29.3539 98.7925 29.4246C98.9246 29.4907 99.1299 29.5591 99.4082 29.6299C99.6914 29.7007 99.9249 29.7738 100.109 29.8493C100.293 29.9248 100.451 30.0428 100.583 30.2032C100.72 30.3589 100.791 30.5665 100.795 30.826C100.795 31.0525 100.732 31.2554 100.604 31.4347C100.482 31.614 100.302 31.7556 100.066 31.8594C99.8353 31.9585 99.564 32.008 99.2525 32.008ZM102.763 28.8372V30.734C102.763 30.8662 102.793 30.9629 102.855 31.0242C102.921 31.0808 103.029 31.1092 103.18 31.1092H103.64V31.9443H103.017C102.182 31.9443 101.765 31.5385 101.765 30.727V28.8372H101.297V28.0232H101.765V27.0536H102.763V28.0232H103.64V28.8372H102.763ZM104.098 29.9696C104.098 29.5733 104.176 29.2218 104.332 28.915C104.492 28.6083 104.707 28.3724 104.976 28.2073C105.249 28.0421 105.554 27.9595 105.889 27.9595C106.181 27.9595 106.436 28.0185 106.653 28.1365C106.875 28.2545 107.052 28.4031 107.184 28.5824V28.0232H108.182V31.9443H107.184V31.371C107.057 31.5551 106.88 31.7084 106.653 31.8311C106.431 31.9491 106.174 32.008 105.882 32.008C105.551 32.008 105.249 31.9231 104.976 31.7532C104.707 31.5834 104.492 31.3451 104.332 31.0384C104.176 30.727 104.098 30.3707 104.098 29.9696ZM107.184 29.9838C107.184 29.7431 107.137 29.5379 107.042 29.368C106.948 29.1934 106.821 29.0613 106.66 28.9717C106.5 28.8773 106.328 28.8301 106.144 28.8301C105.96 28.8301 105.79 28.8749 105.634 28.9646C105.478 29.0542 105.351 29.1864 105.252 29.3609C105.157 29.5308 105.11 29.7337 105.11 29.9696C105.11 30.2056 105.157 30.4132 105.252 30.5925C105.351 30.7671 105.478 30.9015 105.634 30.9959C105.794 31.0903 105.964 31.1375 106.144 31.1375C106.328 31.1375 106.5 31.0926 106.66 31.003C106.821 30.9086 106.948 30.7765 107.042 30.6066C107.137 30.4321 107.184 30.2244 107.184 29.9838ZM111.323 27.9666C111.79 27.9666 112.167 28.1153 112.455 28.4125C112.743 28.7051 112.887 29.1156 112.887 29.6441V31.9443H111.896V29.7785C111.896 29.4671 111.818 29.2288 111.662 29.0637C111.507 28.8938 111.294 28.8089 111.025 28.8089C110.752 28.8089 110.535 28.8938 110.374 29.0637C110.218 29.2288 110.141 29.4671 110.141 29.7785V31.9443H109.15V28.0232H110.141V28.5116C110.273 28.3417 110.44 28.2096 110.643 28.1153C110.851 28.0162 111.077 27.9666 111.323 27.9666ZM114.983 28.8372V30.734C114.983 30.8662 115.013 30.9629 115.075 31.0242C115.141 31.0808 115.249 31.1092 115.4 31.1092H115.86V31.9443H115.238C114.402 31.9443 113.985 31.5385 113.985 30.727V28.8372H113.518V28.0232H113.985V27.0536H114.983V28.0232H115.86V28.8372H114.983ZM117.076 27.5561C116.901 27.5561 116.755 27.5019 116.637 27.3933C116.524 27.2801 116.467 27.1409 116.467 26.9757C116.467 26.8106 116.524 26.6738 116.637 26.5652C116.755 26.452 116.901 26.3954 117.076 26.3954C117.25 26.3954 117.394 26.452 117.507 26.5652C117.625 26.6738 117.684 26.8106 117.684 26.9757C117.684 27.1409 117.625 27.2801 117.507 27.3933C117.394 27.5019 117.25 27.5561 117.076 27.5561ZM117.564 28.0232V31.9443H116.573V28.0232H117.564ZM120.716 27.9666C121.183 27.9666 121.561 28.1153 121.848 28.4125C122.136 28.7051 122.28 29.1156 122.28 29.6441V31.9443H121.289V29.7785C121.289 29.4671 121.211 29.2288 121.056 29.0637C120.9 28.8938 120.688 28.8089 120.419 28.8089C120.145 28.8089 119.928 28.8938 119.767 29.0637C119.612 29.2288 119.534 29.4671 119.534 29.7785V31.9443H118.543V28.0232H119.534V28.5116C119.666 28.3417 119.834 28.2096 120.036 28.1153C120.244 28.0162 120.471 27.9666 120.716 27.9666ZM127.698 31.9443L125.9 29.7431V31.9443H124.909V27.004H125.9V29.2194L127.698 27.004H128.894L126.855 29.453L128.95 31.9443H127.698ZM131.343 32.008C130.966 32.008 130.626 31.9255 130.324 31.7603C130.022 31.5904 129.784 31.3522 129.609 31.0455C129.439 30.7388 129.354 30.3849 129.354 29.9838C129.354 29.5827 129.442 29.2288 129.616 28.9221C129.796 28.6154 130.039 28.3795 130.345 28.2143C130.652 28.0445 130.994 27.9595 131.371 27.9595C131.749 27.9595 132.091 28.0445 132.398 28.2143C132.704 28.3795 132.945 28.6154 133.12 28.9221C133.299 29.2288 133.389 29.5827 133.389 29.9838C133.389 30.3849 133.297 30.7388 133.113 31.0455C132.933 31.3522 132.688 31.5904 132.377 31.7603C132.07 31.9255 131.725 32.008 131.343 32.008ZM131.343 31.1445C131.522 31.1445 131.69 31.1021 131.846 31.0171C132.006 30.9275 132.134 30.7954 132.228 30.6208C132.322 30.4462 132.369 30.2339 132.369 29.9838C132.369 29.611 132.27 29.3256 132.072 29.1274C131.879 28.9245 131.64 28.823 131.357 28.823C131.074 28.823 130.836 28.9245 130.642 29.1274C130.454 29.3256 130.359 29.611 130.359 29.9838C130.359 30.3566 130.451 30.6444 130.635 30.8473C130.824 31.0455 131.06 31.1445 131.343 31.1445ZM136.288 27.9666C136.756 27.9666 137.133 28.1153 137.421 28.4125C137.709 28.7051 137.853 29.1156 137.853 29.6441V31.9443H136.862V29.7785C136.862 29.4671 136.784 29.2288 136.628 29.0637C136.472 28.8938 136.26 28.8089 135.991 28.8089C135.717 28.8089 135.5 28.8938 135.34 29.0637C135.184 29.2288 135.106 29.4671 135.106 29.7785V31.9443H134.116V28.0232H135.106V28.5116C135.239 28.3417 135.406 28.2096 135.609 28.1153C135.817 28.0162 136.043 27.9666 136.288 27.9666ZM140.295 32.008C139.974 32.008 139.687 31.9514 139.432 31.8382C139.177 31.7202 138.974 31.5621 138.823 31.364C138.677 31.1658 138.597 30.9464 138.583 30.7057H139.58C139.599 30.8567 139.673 30.9818 139.8 31.0808C139.932 31.1799 140.095 31.2295 140.288 31.2295C140.477 31.2295 140.623 31.1917 140.727 31.1162C140.836 31.0407 140.89 30.944 140.89 30.826C140.89 30.6986 140.824 30.6043 140.692 30.5429C140.564 30.4769 140.359 30.4061 140.076 30.3306C139.783 30.2598 139.543 30.1867 139.354 30.1112C139.17 30.0357 139.01 29.9201 138.873 29.7644C138.741 29.6087 138.675 29.3987 138.675 29.1345C138.675 28.9174 138.736 28.7192 138.859 28.5399C138.986 28.3606 139.165 28.2191 139.396 28.1153C139.632 28.0115 139.908 27.9595 140.225 27.9595C140.692 27.9595 141.064 28.0775 141.343 28.3134C141.621 28.5446 141.775 28.8584 141.803 29.2548H140.854C140.84 29.0991 140.774 28.9764 140.656 28.8867C140.543 28.7924 140.39 28.7452 140.196 28.7452C140.017 28.7452 139.878 28.7782 139.779 28.8443C139.684 28.9103 139.637 29.0023 139.637 29.1203C139.637 29.2524 139.703 29.3539 139.835 29.4246C139.967 29.4907 140.173 29.5591 140.451 29.6299C140.734 29.7007 140.968 29.7738 141.152 29.8493C141.336 29.9248 141.494 30.0428 141.626 30.2032C141.763 30.3589 141.834 30.5665 141.838 30.826C141.838 31.0525 141.775 31.2554 141.647 31.4347C141.525 31.614 141.345 31.7556 141.109 31.8594C140.878 31.9585 140.607 32.008 140.295 32.008ZM143.805 28.8372V30.734C143.805 30.8662 143.836 30.9629 143.897 31.0242C143.963 31.0808 144.072 31.1092 144.223 31.1092H144.683V31.9443H144.06C143.225 31.9443 142.807 31.5385 142.807 30.727V28.8372H142.34V28.0232H142.807V27.0536H143.805V28.0232H144.683V28.8372H143.805ZM145.141 29.9696C145.141 29.5733 145.219 29.2218 145.374 28.915C145.535 28.6083 145.75 28.3724 146.019 28.2073C146.292 28.0421 146.597 27.9595 146.932 27.9595C147.224 27.9595 147.479 28.0185 147.696 28.1365C147.918 28.2545 148.095 28.4031 148.227 28.5824V28.0232H149.225V31.9443H148.227V31.371C148.099 31.5551 147.922 31.7084 147.696 31.8311C147.474 31.9491 147.217 32.008 146.925 32.008C146.594 32.008 146.292 31.9231 146.019 31.7532C145.75 31.5834 145.535 31.3451 145.374 31.0384C145.219 30.727 145.141 30.3707 145.141 29.9696ZM148.227 29.9838C148.227 29.7431 148.18 29.5379 148.085 29.368C147.991 29.1934 147.864 29.0613 147.703 28.9717C147.543 28.8773 147.37 28.8301 147.186 28.8301C147.002 28.8301 146.833 28.8749 146.677 28.9646C146.521 29.0542 146.394 29.1864 146.295 29.3609C146.2 29.5308 146.153 29.7337 146.153 29.9696C146.153 30.2056 146.2 30.4132 146.295 30.5925C146.394 30.7671 146.521 30.9015 146.677 30.9959C146.837 31.0903 147.007 31.1375 147.186 31.1375C147.37 31.1375 147.543 31.0926 147.703 31.003C147.864 30.9086 147.991 30.7765 148.085 30.6066C148.18 30.4321 148.227 30.2244 148.227 29.9838ZM152.365 27.9666C152.833 27.9666 153.21 28.1153 153.498 28.4125C153.786 28.7051 153.93 29.1156 153.93 29.6441V31.9443H152.939V29.7785C152.939 29.4671 152.861 29.2288 152.705 29.0637C152.549 28.8938 152.337 28.8089 152.068 28.8089C151.795 28.8089 151.577 28.8938 151.417 29.0637C151.261 29.2288 151.183 29.4671 151.183 29.7785V31.9443H150.193V28.0232H151.183V28.5116C151.316 28.3417 151.483 28.2096 151.686 28.1153C151.894 28.0162 152.12 27.9666 152.365 27.9666ZM156.026 28.8372V30.734C156.026 30.8662 156.056 30.9629 156.118 31.0242C156.184 31.0808 156.292 31.1092 156.443 31.1092H156.903V31.9443H156.28C155.445 31.9443 155.028 31.5385 155.028 30.727V28.8372H154.561V28.0232H155.028V27.0536H156.026V28.0232H156.903V28.8372H156.026ZM158.118 27.5561C157.944 27.5561 157.798 27.5019 157.68 27.3933C157.566 27.2801 157.51 27.1409 157.51 26.9757C157.51 26.8106 157.566 26.6738 157.68 26.5652C157.798 26.452 157.944 26.3954 158.118 26.3954C158.293 26.3954 158.437 26.452 158.55 26.5652C158.668 26.6738 158.727 26.8106 158.727 26.9757C158.727 27.1409 158.668 27.2801 158.55 27.3933C158.437 27.5019 158.293 27.5561 158.118 27.5561ZM158.607 28.0232V31.9443H157.616V28.0232H158.607ZM161.759 27.9666C162.226 27.9666 162.603 28.1153 162.891 28.4125C163.179 28.7051 163.323 29.1156 163.323 29.6441V31.9443H162.332V29.7785C162.332 29.4671 162.254 29.2288 162.098 29.0637C161.943 28.8938 161.73 28.8089 161.461 28.8089C161.188 28.8089 160.971 28.8938 160.81 29.0637C160.655 29.2288 160.577 29.4671 160.577 29.7785V31.9443H159.586V28.0232H160.577V28.5116C160.709 28.3417 160.876 28.2096 161.079 28.1153C161.287 28.0162 161.513 27.9666 161.759 27.9666ZM166.006 32.008C165.629 32.008 165.289 31.9255 164.987 31.7603C164.685 31.5904 164.447 31.3522 164.272 31.0455C164.102 30.7388 164.017 30.3849 164.017 29.9838C164.017 29.5827 164.105 29.2288 164.279 28.9221C164.459 28.6154 164.702 28.3795 165.008 28.2143C165.315 28.0445 165.657 27.9595 166.035 27.9595C166.412 27.9595 166.754 28.0445 167.061 28.2143C167.368 28.3795 167.608 28.6154 167.783 28.9221C167.962 29.2288 168.052 29.5827 168.052 29.9838C168.052 30.3849 167.96 30.7388 167.776 31.0455C167.596 31.3522 167.351 31.5904 167.04 31.7603C166.733 31.9255 166.389 32.008 166.006 32.008ZM166.006 31.1445C166.186 31.1445 166.353 31.1021 166.509 31.0171C166.669 30.9275 166.797 30.7954 166.891 30.6208C166.985 30.4462 167.033 30.2339 167.033 29.9838C167.033 29.611 166.934 29.3256 166.735 29.1274C166.542 28.9245 166.304 28.823 166.02 28.823C165.737 28.823 165.499 28.9245 165.306 29.1274C165.117 29.3256 165.023 29.611 165.023 29.9838C165.023 30.3566 165.115 30.6444 165.299 30.8473C165.487 31.0455 165.723 31.1445 166.006 31.1445ZM169.77 28.5895C169.897 28.4102 170.072 28.2615 170.293 28.1436C170.52 28.0209 170.777 27.9595 171.065 27.9595C171.4 27.9595 171.702 28.0421 171.971 28.2073C172.244 28.3724 172.459 28.6083 172.615 28.915C172.775 29.217 172.855 29.5686 172.855 29.9696C172.855 30.3707 172.775 30.727 172.615 31.0384C172.459 31.3451 172.244 31.5834 171.971 31.7532C171.702 31.9231 171.4 32.008 171.065 32.008C170.777 32.008 170.522 31.9491 170.3 31.8311C170.083 31.7131 169.906 31.5645 169.77 31.3852V33.8129H168.779V28.0232H169.77V28.5895ZM171.843 29.9696C171.843 29.7337 171.794 29.5308 171.695 29.3609C171.6 29.1864 171.473 29.0542 171.312 28.9646C171.157 28.8749 170.987 28.8301 170.803 28.8301C170.624 28.8301 170.454 28.8773 170.293 28.9717C170.138 29.0613 170.01 29.1934 169.911 29.368C169.817 29.5426 169.77 29.7479 169.77 29.9838C169.77 30.2197 169.817 30.425 169.911 30.5996C170.01 30.7741 170.138 30.9086 170.293 31.003C170.454 31.0926 170.624 31.1375 170.803 31.1375C170.987 31.1375 171.157 31.0903 171.312 30.9959C171.473 30.9015 171.6 30.7671 171.695 30.5925C171.794 30.4179 171.843 30.2103 171.843 29.9696ZM175.317 32.008C174.939 32.008 174.599 31.9255 174.297 31.7603C173.995 31.5904 173.757 31.3522 173.583 31.0455C173.413 30.7388 173.328 30.3849 173.328 29.9838C173.328 29.5827 173.415 29.2288 173.59 28.9221C173.769 28.6154 174.012 28.3795 174.319 28.2143C174.625 28.0445 174.967 27.9595 175.345 27.9595C175.722 27.9595 176.065 28.0445 176.371 28.2143C176.678 28.3795 176.919 28.6154 177.093 28.9221C177.272 29.2288 177.362 29.5827 177.362 29.9838C177.362 30.3849 177.27 30.7388 177.086 31.0455C176.907 31.3522 176.661 31.5904 176.35 31.7603C176.043 31.9255 175.699 32.008 175.317 32.008ZM175.317 31.1445C175.496 31.1445 175.663 31.1021 175.819 31.0171C175.98 30.9275 176.107 30.7954 176.201 30.6208C176.296 30.4462 176.343 30.2339 176.343 29.9838C176.343 29.611 176.244 29.3256 176.046 29.1274C175.852 28.9245 175.614 28.823 175.331 28.823C175.048 28.823 174.809 28.9245 174.616 29.1274C174.427 29.3256 174.333 29.611 174.333 29.9838C174.333 30.3566 174.425 30.6444 174.609 30.8473C174.798 31.0455 175.034 31.1445 175.317 31.1445ZM179.589 32.008C179.269 32.008 178.981 31.9514 178.726 31.8382C178.471 31.7202 178.268 31.5621 178.117 31.364C177.971 31.1658 177.891 30.9464 177.877 30.7057H178.875C178.893 30.8567 178.967 30.9818 179.094 31.0808C179.226 31.1799 179.389 31.2295 179.582 31.2295C179.771 31.2295 179.917 31.1917 180.021 31.1162C180.13 31.0407 180.184 30.944 180.184 30.826C180.184 30.6986 180.118 30.6043 179.986 30.5429C179.858 30.4769 179.653 30.4061 179.37 30.3306C179.078 30.2598 178.837 30.1867 178.648 30.1112C178.464 30.0357 178.304 29.9201 178.167 29.7644C178.035 29.6087 177.969 29.3987 177.969 29.1345C177.969 28.9174 178.03 28.7192 178.153 28.5399C178.28 28.3606 178.459 28.2191 178.691 28.1153C178.927 28.0115 179.203 27.9595 179.519 27.9595C179.986 27.9595 180.359 28.0775 180.637 28.3134C180.915 28.5446 181.069 28.8584 181.097 29.2548H180.149C180.134 29.0991 180.068 28.9764 179.95 28.8867C179.837 28.7924 179.684 28.7452 179.49 28.7452C179.311 28.7452 179.172 28.7782 179.073 28.8443C178.978 28.9103 178.931 29.0023 178.931 29.1203C178.931 29.2524 178.997 29.3539 179.129 29.4246C179.262 29.4907 179.467 29.5591 179.745 29.6299C180.028 29.7007 180.262 29.7738 180.446 29.8493C180.63 29.9248 180.788 30.0428 180.92 30.2032C181.057 30.3589 181.128 30.5665 181.132 30.826C181.132 31.0525 181.069 31.2554 180.941 31.4347C180.819 31.614 180.639 31.7556 180.403 31.8594C180.172 31.9585 179.901 32.008 179.589 32.008ZM184.267 31.9443L182.937 30.274V31.9443H181.946V26.7068H182.937V29.6865L184.253 28.0232H185.541L183.814 29.9909L185.555 31.9443H184.267ZM186.518 31.9939C186.339 31.9939 186.19 31.9396 186.072 31.8311C185.959 31.7178 185.902 31.5787 185.902 31.4135C185.902 31.2484 185.959 31.1115 186.072 31.003C186.19 30.8897 186.339 30.8331 186.518 30.8331C186.693 30.8331 186.836 30.8897 186.95 31.003C187.063 31.1115 187.12 31.2484 187.12 31.4135C187.12 31.5787 187.063 31.7178 186.95 31.8311C186.836 31.9396 186.693 31.9939 186.518 31.9939ZM188.357 31.9939C188.177 31.9939 188.029 31.9396 187.911 31.8311C187.797 31.7178 187.741 31.5787 187.741 31.4135C187.741 31.2484 187.797 31.1115 187.911 31.003C188.029 30.8897 188.177 30.8331 188.357 30.8331C188.531 30.8331 188.675 30.8897 188.788 31.003C188.901 31.1115 188.958 31.2484 188.958 31.4135C188.958 31.5787 188.901 31.7178 188.788 31.8311C188.675 31.9396 188.531 31.9939 188.357 31.9939ZM190.195 31.9939C190.016 31.9939 189.867 31.9396 189.749 31.8311C189.636 31.7178 189.579 31.5787 189.579 31.4135C189.579 31.2484 189.636 31.1115 189.749 31.003C189.867 30.8897 190.016 30.8331 190.195 30.8331C190.37 30.8331 190.514 30.8897 190.627 31.003C190.74 31.1115 190.797 31.2484 190.797 31.4135C190.797 31.5787 190.74 31.7178 190.627 31.8311C190.514 31.9396 190.37 31.9939 190.195 31.9939Z" fill="#0B0C19"/>
<path d="M206.48 31.9721L209.008 29.4443L206.48 26.9166" stroke="#62626A" stroke-width="0.758333" stroke-linecap="round" stroke-linejoin="round"/>
<rect x="59.1111" y="51.6888" width="161.778" height="28.3111" rx="8.08889" fill="white"/>
<rect x="67.2" y="59.7776" width="12.1333" height="12.1333" rx="6.06667" fill="#D6D6E0"/>
<g clip-path="url(#clip2_1_742)">
<path d="M73.2667 62.4742C73.6 62.4742 73.9258 62.573 74.203 62.7582C74.4801 62.9433 74.6961 63.2065 74.8236 63.5144C74.9512 63.8224 74.9846 64.1612 74.9195 64.4881C74.8545 64.815 74.694 65.1153 74.4583 65.3509C74.2227 65.5866 73.9224 65.7471 73.5955 65.8121C73.2686 65.8772 72.9298 65.8438 72.6218 65.7162C72.3139 65.5887 72.0507 65.3727 71.8655 65.0956C71.6804 64.8184 71.5815 64.4926 71.5815 64.1593L71.5832 64.0862C71.6021 63.6523 71.7877 63.2425 72.1013 62.9422C72.415 62.6418 72.8325 62.4742 73.2667 62.4742Z" fill="white"/>
<path d="M73.9408 66.5186C74.3877 66.5186 74.8164 66.6961 75.1324 67.0122C75.4484 67.3282 75.626 67.7568 75.626 68.2038V68.5408C75.626 68.7196 75.555 68.891 75.4286 69.0175C75.3021 69.1439 75.1307 69.2149 74.9519 69.2149H71.5815C71.4028 69.2149 71.2313 69.1439 71.1049 69.0175C70.9785 68.891 70.9075 68.7196 70.9075 68.5408V68.2038C70.9075 67.7568 71.085 67.3282 71.4011 67.0122C71.7171 66.6961 72.1457 66.5186 72.5927 66.5186H73.9408Z" fill="white"/>
<path d="M73.2667 62.4742C73.6 62.4742 73.9258 62.573 74.203 62.7582C74.4801 62.9433 74.6961 63.2065 74.8236 63.5144C74.9512 63.8224 74.9846 64.1612 74.9195 64.4881C74.8545 64.815 74.694 65.1153 74.4583 65.3509C74.2227 65.5866 73.9224 65.7471 73.5955 65.8121C73.2686 65.8772 72.9298 65.8438 72.6218 65.7162C72.3139 65.5887 72.0507 65.3727 71.8655 65.0956C71.6804 64.8184 71.5815 64.4926 71.5815 64.1593L71.5832 64.0862C71.6021 63.6523 71.7877 63.2425 72.1013 62.9422C72.415 62.6418 72.8325 62.4742 73.2667 62.4742Z" stroke="white"/>
<path d="M73.9408 66.5186C74.3877 66.5186 74.8164 66.6961 75.1324 67.0122C75.4484 67.3282 75.626 67.7568 75.626 68.2038V68.5408C75.626 68.7196 75.555 68.891 75.4286 69.0175C75.3021 69.1439 75.1307 69.2149 74.9519 69.2149H71.5815C71.4028 69.2149 71.2313 69.1439 71.1049 69.0175C70.9785 68.891 70.9075 68.7196 70.9075 68.5408V68.2038C70.9075 67.7568 71.085 67.3282 71.4011 67.0122C71.7171 66.6961 72.1457 66.5186 72.5927 66.5186H73.9408Z" stroke="white"/>
</g>
<path d="M89.2522 63.404V68.3443H88.2614V65.131L86.9378 68.3443H86.1876L84.8569 65.131V68.3443H83.8661V63.404H84.9914L86.5627 67.0774L88.134 63.404H89.2522ZM91.973 68.408C91.5956 68.408 91.2558 68.3255 90.9538 68.1603C90.6519 67.9904 90.4136 67.7522 90.239 67.4455C90.0691 67.1387 89.9842 66.7849 89.9842 66.3838C89.9842 65.9827 90.0715 65.6288 90.2461 65.3221C90.4254 65.0154 90.6684 64.7795 90.9751 64.6143C91.2818 64.4445 91.6239 64.3595 92.0013 64.3595C92.3788 64.3595 92.7209 64.4445 93.0276 64.6143C93.3343 64.7795 93.575 65.0154 93.7496 65.3221C93.9289 65.6288 94.0185 65.9827 94.0185 66.3838C94.0185 66.7849 93.9265 67.1387 93.7425 67.4455C93.5632 67.7522 93.3178 67.9904 93.0064 68.1603C92.6997 68.3255 92.3552 68.408 91.973 68.408ZM91.973 67.5445C92.1523 67.5445 92.3198 67.5021 92.4756 67.4171C92.636 67.3275 92.7634 67.1954 92.8578 67.0208C92.9521 66.8462 92.9993 66.6339 92.9993 66.3838C92.9993 66.011 92.9002 65.7256 92.702 65.5274C92.5086 65.3245 92.2703 65.223 91.9872 65.223C91.7041 65.223 91.4658 65.3245 91.2723 65.5274C91.0836 65.7256 90.9892 66.011 90.9892 66.3838C90.9892 66.7565 91.0812 67.0444 91.2653 67.2473C91.454 67.4455 91.6899 67.5445 91.973 67.5445ZM99.6149 64.3666C100.096 64.3666 100.483 64.5153 100.776 64.8125C101.073 65.1051 101.222 65.5156 101.222 66.0441V68.3443H100.231V66.1785C100.231 65.8718 100.153 65.6383 99.9971 65.4778C99.8414 65.3127 99.629 65.2301 99.3601 65.2301C99.0911 65.2301 98.8764 65.3127 98.716 65.4778C98.5603 65.6383 98.4824 65.8718 98.4824 66.1785V68.3443H97.4915V66.1785C97.4915 65.8718 97.4137 65.6383 97.258 65.4778C97.1023 65.3127 96.8899 65.2301 96.621 65.2301C96.3473 65.2301 96.1303 65.3127 95.9698 65.4778C95.8141 65.6383 95.7363 65.8718 95.7363 66.1785V68.3443H94.7454V64.4232H95.7363V64.8975C95.8637 64.7323 96.0264 64.6025 96.2246 64.5082C96.4275 64.4138 96.6493 64.3666 96.8899 64.3666C97.1966 64.3666 97.4703 64.4327 97.711 64.5648C97.9516 64.6922 98.138 64.8762 98.2701 65.1169C98.3975 64.8904 98.5815 64.7087 98.8222 64.5719C99.0675 64.435 99.3318 64.3666 99.6149 64.3666Z" fill="#0B0C19"/>
<path d="M206.48 68.3722L209.008 65.8444L206.48 63.3166" stroke="#62626A" stroke-width="0.758333" stroke-linecap="round" stroke-linejoin="round"/>
<g clip-path="url(#clip3_1_742)">
<path d="M70.9051 95.6412H65.158V100.051L66.7052 104.422L70.9051 106.626L75.105 104.422L76.6522 100.051V95.6412H70.9051Z" fill="#4364FA"/>
<path d="M74.9131 95.641L72.1507 98.7405L75.3375 98.6969L66.7053 104.422L70.5791 100.05H67.3923L71.3212 95.641H74.9131Z" fill="white"/>
<path d="M74.9131 95.641L72.1507 98.7405L75.3375 98.6969L66.7053 104.422L70.5791 100.05H67.3923L71.3212 95.641H74.9131Z" fill="white"/>
</g>
<path d="M83.5555 98.1929H81.7112L81.3715 99.1333H80.7891L82.3179 94.9291H82.9549L84.4776 99.1333H83.8952L83.5555 98.1929ZM83.3977 97.744L82.6333 95.6085L81.8689 97.744H83.3977ZM85.696 94.6439V99.1333H85.1439V94.6439H85.696ZM87.1889 94.6439V99.1333H86.6369V94.6439H87.1889ZM89.5409 97.4649C89.5409 97.1212 89.6097 96.8219 89.7472 96.5671C89.8847 96.3082 90.0748 96.108 90.3175 95.9665C90.5642 95.8249 90.8453 95.7541 91.1607 95.7541C91.5692 95.7541 91.9049 95.8532 92.1678 96.0514C92.4347 96.2496 92.6107 96.5246 92.6956 96.8765H92.1011C92.0445 96.6742 91.9332 96.5145 91.7674 96.3972C91.6056 96.2799 91.4034 96.2213 91.1607 96.2213C90.8453 96.2213 90.5905 96.3305 90.3963 96.5489C90.2022 96.7632 90.1051 97.0686 90.1051 97.4649C90.1051 97.8653 90.2022 98.1747 90.3963 98.3931C90.5905 98.6115 90.8453 98.7207 91.1607 98.7207C91.4034 98.7207 91.6056 98.6641 91.7674 98.5509C91.9292 98.4376 92.0404 98.2758 92.1011 98.0655H92.6956C92.6066 98.4053 92.4287 98.6783 92.1617 98.8845C91.8948 99.0868 91.5611 99.1879 91.1607 99.1879C90.8453 99.1879 90.5642 99.1171 90.3175 98.9755C90.0748 98.834 89.8847 98.6338 89.7472 98.3749C89.6097 98.1161 89.5409 97.8128 89.5409 97.4649ZM94.8822 99.1879C94.5707 99.1879 94.2876 99.1171 94.0328 98.9755C93.7821 98.834 93.5839 98.6338 93.4383 98.3749C93.2967 98.112 93.226 97.8087 93.226 97.4649C93.226 97.1252 93.2988 96.8259 93.4444 96.5671C93.594 96.3042 93.7962 96.104 94.051 95.9665C94.3058 95.8249 94.591 95.7541 94.9064 95.7541C95.2219 95.7541 95.507 95.8249 95.7618 95.9665C96.0166 96.104 96.2168 96.3022 96.3624 96.561C96.5121 96.8198 96.5869 97.1212 96.5869 97.4649C96.5869 97.8087 96.5101 98.112 96.3564 98.3749C96.2067 98.6338 96.0025 98.834 95.7436 98.9755C95.4848 99.1171 95.1976 99.1879 94.8822 99.1879ZM94.8822 98.7025C95.0803 98.7025 95.2664 98.656 95.4403 98.563C95.6142 98.47 95.7537 98.3304 95.8589 98.1444C95.9681 97.9584 96.0227 97.7319 96.0227 97.4649C96.0227 97.198 95.9701 96.9715 95.865 96.7855C95.7598 96.5994 95.6223 96.4619 95.4524 96.3729C95.2826 96.2799 95.0985 96.2334 94.9004 96.2334C94.6981 96.2334 94.5121 96.2799 94.3422 96.3729C94.1764 96.4619 94.0429 96.5994 93.9418 96.7855C93.8407 96.9715 93.7902 97.198 93.7902 97.4649C93.7902 97.7359 93.8387 97.9644 93.9358 98.1505C94.0369 98.3365 94.1703 98.476 94.3362 98.5691C94.502 98.658 94.684 98.7025 94.8822 98.7025ZM98.9326 95.7481C99.337 95.7481 99.6646 95.8714 99.9154 96.1181C100.166 96.3608 100.292 96.7127 100.292 97.1737V99.1333H99.7455V97.2526C99.7455 96.921 99.6626 96.6682 99.4968 96.4943C99.3309 96.3163 99.1045 96.2273 98.8173 96.2273C98.5261 96.2273 98.2935 96.3183 98.1196 96.5003C97.9498 96.6823 97.8648 96.9472 97.8648 97.2951V99.1333H97.3128V95.8087H97.8648V96.2819C97.974 96.1121 98.1217 95.9806 98.3077 95.8876C98.4978 95.7946 98.7061 95.7481 98.9326 95.7481ZM101.867 96.2637V98.2233C101.867 98.385 101.901 98.5003 101.97 98.5691C102.039 98.6338 102.158 98.6661 102.328 98.6661H102.734V99.1333H102.237C101.929 99.1333 101.699 99.0625 101.545 98.9209C101.391 98.7794 101.315 98.5468 101.315 98.2233V96.2637H100.884V95.8087H101.315V94.9715H101.867V95.8087H102.734V96.2637H101.867ZM103.197 97.4589C103.197 97.1191 103.266 96.8219 103.403 96.5671C103.541 96.3082 103.729 96.108 103.967 95.9665C104.21 95.8249 104.479 95.7541 104.774 95.7541C105.065 95.7541 105.318 95.8168 105.533 95.9422C105.747 96.0676 105.907 96.2253 106.012 96.4154V95.8087H106.57V99.1333H106.012V98.5145C105.903 98.7086 105.739 98.8704 105.52 98.9998C105.306 99.1252 105.055 99.1879 104.768 99.1879C104.473 99.1879 104.206 99.1151 103.967 98.9695C103.729 98.8239 103.541 98.6196 103.403 98.3567C103.266 98.0938 103.197 97.7946 103.197 97.4589ZM106.012 97.4649C106.012 97.2142 105.961 96.9958 105.86 96.8097C105.759 96.6237 105.622 96.4821 105.448 96.3851C105.278 96.284 105.09 96.2334 104.883 96.2334C104.677 96.2334 104.489 96.2819 104.319 96.379C104.149 96.4761 104.014 96.6176 103.913 96.8037C103.812 96.9897 103.761 97.2081 103.761 97.4589C103.761 97.7137 103.812 97.9361 103.913 98.1262C104.014 98.3122 104.149 98.4558 104.319 98.5569C104.489 98.654 104.677 98.7025 104.883 98.7025C105.09 98.7025 105.278 98.654 105.448 98.5569C105.622 98.4558 105.759 98.3122 105.86 98.1262C105.961 97.9361 106.012 97.7157 106.012 97.4649ZM107.297 97.4649C107.297 97.1212 107.365 96.8219 107.503 96.5671C107.64 96.3082 107.83 96.108 108.073 95.9665C108.32 95.8249 108.601 95.7541 108.916 95.7541C109.325 95.7541 109.661 95.8532 109.923 96.0514C110.19 96.2496 110.366 96.5246 110.451 96.8765H109.857C109.8 96.6742 109.689 96.5145 109.523 96.3972C109.361 96.2799 109.159 96.2213 108.916 96.2213C108.601 96.2213 108.346 96.3305 108.152 96.5489C107.958 96.7632 107.861 97.0686 107.861 97.4649C107.861 97.8653 107.958 98.1747 108.152 98.3931C108.346 98.6115 108.601 98.7207 108.916 98.7207C109.159 98.7207 109.361 98.6641 109.523 98.5509C109.685 98.4376 109.796 98.2758 109.857 98.0655H110.451C110.362 98.4053 110.184 98.6783 109.917 98.8845C109.65 99.0868 109.317 99.1879 108.916 99.1879C108.601 99.1879 108.32 99.1171 108.073 98.9755C107.83 98.834 107.64 98.6338 107.503 98.3749C107.365 98.1161 107.297 97.8128 107.297 97.4649ZM111.861 96.2637V98.2233C111.861 98.385 111.896 98.5003 111.964 98.5691C112.033 98.6338 112.153 98.6661 112.322 98.6661H112.729V99.1333H112.231C111.924 99.1333 111.693 99.0625 111.54 98.9209C111.386 98.7794 111.309 98.5468 111.309 98.2233V96.2637H110.879V95.8087H111.309V94.9715H111.861V95.8087H112.729V96.2637H111.861ZM114.575 99.1879C114.32 99.1879 114.091 99.1454 113.889 99.0605C113.687 98.9715 113.527 98.8502 113.41 98.6965C113.293 98.5387 113.228 98.3588 113.216 98.1565H113.786C113.802 98.3224 113.879 98.4578 114.017 98.563C114.158 98.6682 114.342 98.7207 114.569 98.7207C114.779 98.7207 114.945 98.6742 115.066 98.5812C115.187 98.4882 115.248 98.3709 115.248 98.2293C115.248 98.0837 115.183 97.9766 115.054 97.9078C114.925 97.835 114.724 97.7642 114.453 97.6955C114.207 97.6308 114.004 97.566 113.847 97.5013C113.693 97.4326 113.56 97.3335 113.446 97.2041C113.337 97.0706 113.282 96.8967 113.282 96.6823C113.282 96.5125 113.333 96.3568 113.434 96.2152C113.535 96.0736 113.679 95.9624 113.865 95.8815C114.051 95.7966 114.263 95.7541 114.502 95.7541C114.87 95.7541 115.167 95.8472 115.394 96.0332C115.62 96.2192 115.741 96.474 115.758 96.7976H115.206C115.193 96.6237 115.123 96.4842 114.993 96.379C114.868 96.2738 114.698 96.2213 114.484 96.2213C114.285 96.2213 114.128 96.2637 114.01 96.3487C113.893 96.4336 113.835 96.5448 113.835 96.6823C113.835 96.7915 113.869 96.8825 113.938 96.9553C114.01 97.0241 114.099 97.0807 114.205 97.1252C114.314 97.1656 114.463 97.2122 114.654 97.2647C114.892 97.3294 115.086 97.3942 115.236 97.4589C115.386 97.5195 115.513 97.6126 115.618 97.7379C115.727 97.8633 115.784 98.0271 115.788 98.2293C115.788 98.4113 115.737 98.5751 115.636 98.7207C115.535 98.8663 115.392 98.9816 115.206 99.0665C115.024 99.1474 114.813 99.1879 114.575 99.1879ZM121.048 95.8087L119.046 100.698H118.476L119.131 99.0969L117.79 95.8087H118.403L119.447 98.5023L120.478 95.8087H121.048ZM123.053 99.1879C122.742 99.1879 122.459 99.1171 122.204 98.9755C121.953 98.834 121.755 98.6338 121.609 98.3749C121.468 98.112 121.397 97.8087 121.397 97.4649C121.397 97.1252 121.47 96.8259 121.615 96.5671C121.765 96.3042 121.967 96.104 122.222 95.9665C122.477 95.8249 122.762 95.7541 123.077 95.7541C123.393 95.7541 123.678 95.8249 123.933 95.9665C124.188 96.104 124.388 96.3022 124.533 96.561C124.683 96.8198 124.758 97.1212 124.758 97.4649C124.758 97.8087 124.681 98.112 124.527 98.3749C124.378 98.6338 124.173 98.834 123.915 98.9755C123.656 99.1171 123.369 99.1879 123.053 99.1879ZM123.053 98.7025C123.251 98.7025 123.437 98.656 123.611 98.563C123.785 98.47 123.925 98.3304 124.03 98.1444C124.139 97.9584 124.194 97.7319 124.194 97.4649C124.194 97.198 124.141 96.9715 124.036 96.7855C123.931 96.5994 123.793 96.4619 123.623 96.3729C123.453 96.2799 123.269 96.2334 123.071 96.2334C122.869 96.2334 122.683 96.2799 122.513 96.3729C122.347 96.4619 122.214 96.5994 122.113 96.7855C122.012 96.9715 121.961 97.198 121.961 97.4649C121.961 97.7359 122.01 97.9644 122.107 98.1505C122.208 98.3365 122.341 98.476 122.507 98.5691C122.673 98.658 122.855 98.7025 123.053 98.7025ZM128.432 95.8087V99.1333H127.88V98.6419C127.775 98.8117 127.627 98.9452 127.437 99.0423C127.251 99.1353 127.045 99.1818 126.818 99.1818C126.559 99.1818 126.327 99.1292 126.121 99.0241C125.914 98.9149 125.751 98.7531 125.629 98.5387C125.512 98.3244 125.453 98.0635 125.453 97.7561V95.8087H125.999V97.6833C125.999 98.0109 126.082 98.2637 126.248 98.4417C126.414 98.6156 126.64 98.7025 126.928 98.7025C127.223 98.7025 127.455 98.6115 127.625 98.4295C127.795 98.2475 127.88 97.9826 127.88 97.6348V95.8087H128.432ZM130.775 97.4589C130.775 97.1191 130.844 96.8219 130.982 96.5671C131.119 96.3082 131.307 96.108 131.546 95.9665C131.788 95.8249 132.057 95.7541 132.353 95.7541C132.644 95.7541 132.897 95.8168 133.111 95.9422C133.325 96.0676 133.485 96.2253 133.59 96.4154V95.8087H134.148V99.1333H133.59V98.5145C133.481 98.7086 133.317 98.8704 133.099 98.9998C132.884 99.1252 132.634 99.1879 132.347 99.1879C132.051 99.1879 131.784 99.1151 131.546 98.9695C131.307 98.8239 131.119 98.6196 130.982 98.3567C130.844 98.0938 130.775 97.7946 130.775 97.4589ZM133.59 97.4649C133.59 97.2142 133.54 96.9958 133.439 96.8097C133.337 96.6237 133.2 96.4821 133.026 96.3851C132.856 96.284 132.668 96.2334 132.462 96.2334C132.256 96.2334 132.068 96.2819 131.898 96.379C131.728 96.4761 131.592 96.6176 131.491 96.8037C131.39 96.9897 131.34 97.2081 131.34 97.4589C131.34 97.7137 131.39 97.9361 131.491 98.1262C131.592 98.3122 131.728 98.4558 131.898 98.5569C132.068 98.654 132.256 98.7025 132.462 98.7025C132.668 98.7025 132.856 98.654 133.026 98.5569C133.2 98.4558 133.337 98.3122 133.439 98.1262C133.54 97.9361 133.59 97.7157 133.59 97.4649ZM134.875 97.4589C134.875 97.1191 134.944 96.8219 135.081 96.5671C135.219 96.3082 135.407 96.108 135.646 95.9665C135.888 95.8249 136.159 95.7541 136.458 95.7541C136.717 95.7541 136.958 95.8148 137.18 95.9361C137.403 96.0534 137.573 96.2091 137.69 96.4033V94.6439H138.248V99.1333H137.69V98.5084C137.581 98.7066 137.419 98.8704 137.205 98.9998C136.99 99.1252 136.74 99.1879 136.452 99.1879C136.157 99.1879 135.888 99.1151 135.646 98.9695C135.407 98.8239 135.219 98.6196 135.081 98.3567C134.944 98.0938 134.875 97.7946 134.875 97.4589ZM137.69 97.4649C137.69 97.2142 137.639 96.9958 137.538 96.8097C137.437 96.6237 137.3 96.4821 137.126 96.3851C136.956 96.284 136.768 96.2334 136.562 96.2334C136.355 96.2334 136.167 96.2819 135.997 96.379C135.828 96.4761 135.692 96.6176 135.591 96.8037C135.49 96.9897 135.439 97.2081 135.439 97.4589C135.439 97.7137 135.49 97.9361 135.591 98.1262C135.692 98.3122 135.828 98.4558 135.997 98.5569C136.167 98.654 136.355 98.7025 136.562 98.7025C136.768 98.7025 136.956 98.654 137.126 98.5569C137.3 98.4558 137.437 98.3122 137.538 98.1262C137.639 97.9361 137.69 97.7157 137.69 97.4649ZM138.975 97.4589C138.975 97.1191 139.044 96.8219 139.181 96.5671C139.319 96.3082 139.507 96.108 139.745 95.9665C139.988 95.8249 140.259 95.7541 140.558 95.7541C140.817 95.7541 141.058 95.8148 141.28 95.9361C141.503 96.0534 141.672 96.2091 141.79 96.4033V94.6439H142.348V99.1333H141.79V98.5084C141.681 98.7066 141.519 98.8704 141.304 98.9998C141.09 99.1252 140.839 99.1879 140.552 99.1879C140.257 99.1879 139.988 99.1151 139.745 98.9695C139.507 98.8239 139.319 98.6196 139.181 98.3567C139.044 98.0938 138.975 97.7946 138.975 97.4589ZM141.79 97.4649C141.79 97.2142 141.739 96.9958 141.638 96.8097C141.537 96.6237 141.399 96.4821 141.226 96.3851C141.056 96.284 140.868 96.2334 140.661 96.2334C140.455 96.2334 140.267 96.2819 140.097 96.379C139.927 96.4761 139.792 96.6176 139.691 96.8037C139.59 96.9897 139.539 97.2081 139.539 97.4589C139.539 97.7137 139.59 97.9361 139.691 98.1262C139.792 98.3122 139.927 98.4558 140.097 98.5569C140.267 98.654 140.455 98.7025 140.661 98.7025C140.868 98.7025 141.056 98.654 141.226 98.5569C141.399 98.4558 141.537 98.3122 141.638 98.1262C141.739 97.9361 141.79 97.7157 141.79 97.4649ZM146.548 95.7481C146.799 95.7481 147.026 95.8027 147.228 95.9119C147.43 96.017 147.588 96.1768 147.701 96.3911C147.818 96.6055 147.877 96.8664 147.877 97.1737V99.1333H147.331V97.2526C147.331 96.921 147.248 96.6682 147.082 96.4943C146.916 96.3163 146.69 96.2273 146.403 96.2273C146.112 96.2273 145.879 96.3183 145.705 96.5003C145.535 96.6823 145.45 96.9472 145.45 97.2951V99.1333H144.898V94.6439H145.45V96.2819C145.559 96.1121 145.709 95.9806 145.899 95.8876C146.093 95.7946 146.31 95.7481 146.548 95.7481ZM151.812 97.3436C151.812 97.4488 151.806 97.56 151.794 97.6773H149.137C149.157 98.0049 149.268 98.2617 149.47 98.4477C149.677 98.6297 149.925 98.7207 150.217 98.7207C150.455 98.7207 150.653 98.6661 150.811 98.5569C150.973 98.4437 151.086 98.294 151.151 98.108H151.745C151.656 98.4275 151.478 98.6884 151.211 98.8906C150.945 99.0888 150.613 99.1879 150.217 99.1879C149.901 99.1879 149.618 99.1171 149.367 98.9755C149.12 98.834 148.926 98.6338 148.785 98.3749C148.643 98.112 148.572 97.8087 148.572 97.4649C148.572 97.1212 148.641 96.8198 148.779 96.561C148.916 96.3022 149.108 96.104 149.355 95.9665C149.606 95.8249 149.893 95.7541 150.217 95.7541C150.532 95.7541 150.811 95.8229 151.054 95.9604C151.296 96.0979 151.482 96.288 151.612 96.5307C151.745 96.7693 151.812 97.0403 151.812 97.3436ZM151.242 97.2283C151.242 97.018 151.195 96.838 151.102 96.6884C151.009 96.5347 150.882 96.4194 150.72 96.3426C150.562 96.2617 150.386 96.2213 150.192 96.2213C149.913 96.2213 149.675 96.3102 149.476 96.4882C149.282 96.6662 149.171 96.9129 149.143 97.2283H151.242ZM153.093 96.3487C153.19 96.1586 153.327 96.011 153.505 95.9058C153.687 95.8006 153.908 95.7481 154.167 95.7481V96.3183H154.021C153.402 96.3183 153.093 96.654 153.093 97.3254V99.1333H152.541V95.8087H153.093V96.3487ZM157.837 97.3436C157.837 97.4488 157.831 97.56 157.819 97.6773H155.162C155.182 98.0049 155.293 98.2617 155.496 98.4477C155.702 98.6297 155.951 98.7207 156.242 98.7207C156.48 98.7207 156.679 98.6661 156.836 98.5569C156.998 98.4437 157.111 98.294 157.176 98.108H157.771C157.682 98.4275 157.504 98.6884 157.237 98.8906C156.97 99.0888 156.638 99.1879 156.242 99.1879C155.926 99.1879 155.643 99.1171 155.392 98.9755C155.146 98.834 154.952 98.6338 154.81 98.3749C154.668 98.112 154.598 97.8087 154.598 97.4649C154.598 97.1212 154.666 96.8198 154.804 96.561C154.941 96.3022 155.134 96.104 155.38 95.9665C155.631 95.8249 155.918 95.7541 156.242 95.7541C156.557 95.7541 156.836 95.8229 157.079 95.9604C157.322 96.0979 157.508 96.288 157.637 96.5307C157.771 96.7693 157.837 97.0403 157.837 97.3436ZM157.267 97.2283C157.267 97.018 157.22 96.838 157.127 96.6884C157.034 96.5347 156.907 96.4194 156.745 96.3426C156.588 96.2617 156.412 96.2213 156.217 96.2213C155.938 96.2213 155.7 96.3102 155.502 96.4882C155.307 96.6662 155.196 96.9129 155.168 97.2283H157.267ZM159.977 97.4589C159.977 97.1191 160.046 96.8219 160.183 96.5671C160.321 96.3082 160.509 96.108 160.748 95.9665C160.99 95.8249 161.259 95.7541 161.554 95.7541C161.846 95.7541 162.098 95.8168 162.313 95.9422C162.527 96.0676 162.687 96.2253 162.792 96.4154V95.8087H163.35V99.1333H162.792V98.5145C162.683 98.7086 162.519 98.8704 162.301 98.9998C162.086 99.1252 161.835 99.1879 161.548 99.1879C161.253 99.1879 160.986 99.1151 160.748 98.9695C160.509 98.8239 160.321 98.6196 160.183 98.3567C160.046 98.0938 159.977 97.7946 159.977 97.4589ZM162.792 97.4649C162.792 97.2142 162.741 96.9958 162.64 96.8097C162.539 96.6237 162.402 96.4821 162.228 96.3851C162.058 96.284 161.87 96.2334 161.664 96.2334C161.457 96.2334 161.269 96.2819 161.099 96.379C160.93 96.4761 160.794 96.6176 160.693 96.8037C160.592 96.9897 160.541 97.2081 160.541 97.4589C160.541 97.7137 160.592 97.9361 160.693 98.1262C160.794 98.3122 160.93 98.4558 161.099 98.5569C161.269 98.654 161.457 98.7025 161.664 98.7025C161.87 98.7025 162.058 98.654 162.228 98.5569C162.402 98.4558 162.539 98.3122 162.64 98.1262C162.741 97.9361 162.792 97.7157 162.792 97.4649ZM164.835 96.3487C164.932 96.1586 165.07 96.011 165.248 95.9058C165.43 95.8006 165.65 95.7481 165.909 95.7481V96.3183H165.763C165.145 96.3183 164.835 96.654 164.835 97.3254V99.1333H164.283V95.8087H164.835V96.3487ZM169.58 97.3436C169.58 97.4488 169.574 97.56 169.561 97.6773H166.904C166.924 98.0049 167.036 98.2617 167.238 98.4477C167.444 98.6297 167.693 98.7207 167.984 98.7207C168.223 98.7207 168.421 98.6661 168.579 98.5569C168.74 98.4437 168.854 98.294 168.918 98.108H169.513C169.424 98.4275 169.246 98.6884 168.979 98.8906C168.712 99.0888 168.38 99.1879 167.984 99.1879C167.669 99.1879 167.385 99.1171 167.135 98.9755C166.888 98.834 166.694 98.6338 166.552 98.3749C166.411 98.112 166.34 97.8087 166.34 97.4649C166.34 97.1212 166.409 96.8198 166.546 96.561C166.684 96.3022 166.876 96.104 167.123 95.9665C167.373 95.8249 167.66 95.7541 167.984 95.7541C168.3 95.7541 168.579 95.8229 168.821 95.9604C169.064 96.0979 169.25 96.288 169.379 96.5307C169.513 96.7693 169.58 97.0403 169.58 97.3436ZM169.009 97.2283C169.009 97.018 168.963 96.838 168.87 96.6884C168.777 96.5347 168.649 96.4194 168.488 96.3426C168.33 96.2617 168.154 96.2213 167.96 96.2213C167.681 96.2213 167.442 96.3102 167.244 96.4882C167.05 96.6662 166.939 96.9129 166.91 97.2283H169.009ZM173.103 99.1879C172.848 99.1879 172.619 99.1454 172.417 99.0605C172.215 98.9715 172.055 98.8502 171.938 98.6965C171.821 98.5387 171.756 98.3588 171.744 98.1565H172.314C172.33 98.3224 172.407 98.4578 172.544 98.563C172.686 98.6682 172.87 98.7207 173.097 98.7207C173.307 98.7207 173.473 98.6742 173.594 98.5812C173.715 98.4882 173.776 98.3709 173.776 98.2293C173.776 98.0837 173.711 97.9766 173.582 97.9078C173.452 97.835 173.252 97.7642 172.981 97.6955C172.735 97.6308 172.532 97.566 172.375 97.5013C172.221 97.4326 172.087 97.3335 171.974 97.2041C171.865 97.0706 171.81 96.8967 171.81 96.6823C171.81 96.5125 171.861 96.3568 171.962 96.2152C172.063 96.0736 172.207 95.9624 172.393 95.8815C172.579 95.7966 172.791 95.7541 173.03 95.7541C173.398 95.7541 173.695 95.8472 173.922 96.0332C174.148 96.2192 174.269 96.474 174.286 96.7976H173.734C173.721 96.6237 173.651 96.4842 173.521 96.379C173.396 96.2738 173.226 96.2213 173.012 96.2213C172.813 96.2213 172.656 96.2637 172.538 96.3487C172.421 96.4336 172.362 96.5448 172.362 96.6823C172.362 96.7915 172.397 96.8825 172.466 96.9553C172.538 97.0241 172.627 97.0807 172.733 97.1252C172.842 97.1656 172.991 97.2122 173.181 97.2647C173.42 97.3294 173.614 97.3942 173.764 97.4589C173.914 97.5195 174.041 97.6126 174.146 97.7379C174.255 97.8633 174.312 98.0271 174.316 98.2293C174.316 98.4113 174.265 98.5751 174.164 98.7207C174.063 98.8663 173.92 98.9816 173.734 99.0665C173.552 99.1474 173.341 99.1879 173.103 99.1879ZM175.769 96.2637V98.2233C175.769 98.385 175.803 98.5003 175.872 98.5691C175.941 98.6338 176.06 98.6661 176.23 98.6661H176.636V99.1333H176.139C175.831 99.1333 175.601 99.0625 175.447 98.9209C175.293 98.7794 175.217 98.5468 175.217 98.2233V96.2637H174.786V95.8087H175.217V94.9715H175.769V95.8087H176.636V96.2637H175.769ZM178.755 99.1879C178.444 99.1879 178.16 99.1171 177.906 98.9755C177.655 98.834 177.457 98.6338 177.311 98.3749C177.17 98.112 177.099 97.8087 177.099 97.4649C177.099 97.1252 177.172 96.8259 177.317 96.5671C177.467 96.3042 177.669 96.104 177.924 95.9665C178.179 95.8249 178.464 95.7541 178.779 95.7541C179.095 95.7541 179.38 95.8249 179.635 95.9665C179.889 96.104 180.09 96.3022 180.235 96.561C180.385 96.8198 180.46 97.1212 180.46 97.4649C180.46 97.8087 180.383 98.112 180.229 98.3749C180.08 98.6338 179.875 98.834 179.616 98.9755C179.358 99.1171 179.07 99.1879 178.755 99.1879ZM178.755 98.7025C178.953 98.7025 179.139 98.656 179.313 98.563C179.487 98.47 179.627 98.3304 179.732 98.1444C179.841 97.9584 179.896 97.7319 179.896 97.4649C179.896 97.198 179.843 96.9715 179.738 96.7855C179.633 96.5994 179.495 96.4619 179.325 96.3729C179.155 96.2799 178.971 96.2334 178.773 96.2334C178.571 96.2334 178.385 96.2799 178.215 96.3729C178.049 96.4619 177.916 96.5994 177.815 96.7855C177.714 96.9715 177.663 97.198 177.663 97.4649C177.663 97.7359 177.712 97.9644 177.809 98.1505C177.91 98.3365 178.043 98.476 178.209 98.5691C178.375 98.658 178.557 98.7025 178.755 98.7025ZM181.738 96.3487C181.835 96.1586 181.972 96.011 182.15 95.9058C182.332 95.8006 182.553 95.7481 182.811 95.7481V96.3183H182.666C182.047 96.3183 181.738 96.654 181.738 97.3254V99.1333H181.186V95.8087H181.738V96.3487ZM186.482 97.3436C186.482 97.4488 186.476 97.56 186.464 97.6773H183.807C183.827 98.0049 183.938 98.2617 184.14 98.4477C184.347 98.6297 184.595 98.7207 184.887 98.7207C185.125 98.7207 185.323 98.6661 185.481 98.5569C185.643 98.4437 185.756 98.294 185.821 98.108H186.415C186.326 98.4275 186.148 98.6884 185.882 98.8906C185.615 99.0888 185.283 99.1879 184.887 99.1879C184.571 99.1879 184.288 99.1171 184.037 98.9755C183.791 98.834 183.596 98.6338 183.455 98.3749C183.313 98.112 183.243 97.8087 183.243 97.4649C183.243 97.1212 183.311 96.8198 183.449 96.561C183.586 96.3022 183.778 96.104 184.025 95.9665C184.276 95.8249 184.563 95.7541 184.887 95.7541C185.202 95.7541 185.481 95.8229 185.724 95.9604C185.966 96.0979 186.152 96.288 186.282 96.5307C186.415 96.7693 186.482 97.0403 186.482 97.3436ZM185.912 97.2283C185.912 97.018 185.865 96.838 185.772 96.6884C185.679 96.5347 185.552 96.4194 185.39 96.3426C185.232 96.2617 185.056 96.2213 184.862 96.2213C184.583 96.2213 184.345 96.3102 184.146 96.4882C183.952 96.6662 183.841 96.9129 183.813 97.2283H185.912ZM187.005 97.4589C187.005 97.1191 187.073 96.8219 187.211 96.5671C187.348 96.3082 187.536 96.108 187.775 95.9665C188.018 95.8249 188.289 95.7541 188.588 95.7541C188.847 95.7541 189.087 95.8148 189.31 95.9361C189.532 96.0534 189.702 96.2091 189.819 96.4033V94.6439H190.378V99.1333H189.819V98.5084C189.71 98.7066 189.549 98.8704 189.334 98.9998C189.12 99.1252 188.869 99.1879 188.582 99.1879C188.287 99.1879 188.018 99.1151 187.775 98.9695C187.536 98.8239 187.348 98.6196 187.211 98.3567C187.073 98.0938 187.005 97.7946 187.005 97.4589ZM189.819 97.4649C189.819 97.2142 189.769 96.9958 189.668 96.8097C189.567 96.6237 189.429 96.4821 189.255 96.3851C189.085 96.284 188.897 96.2334 188.691 96.2334C188.485 96.2334 188.297 96.2819 188.127 96.379C187.957 96.4761 187.822 96.6176 187.72 96.8037C187.619 96.9897 187.569 97.2081 187.569 97.4589C187.569 97.7137 187.619 97.9361 187.72 98.1262C187.822 98.3122 187.957 98.4558 188.127 98.5569C188.297 98.654 188.485 98.7025 188.691 98.7025C188.897 98.7025 189.085 98.654 189.255 98.5569C189.429 98.4558 189.567 98.3122 189.668 98.1262C189.769 97.9361 189.819 97.7157 189.819 97.4649ZM194.378 99.1879C194.066 99.1879 193.783 99.1171 193.529 98.9755C193.278 98.834 193.08 98.6338 192.934 98.3749C192.792 98.112 192.722 97.8087 192.722 97.4649C192.722 97.1252 192.794 96.8259 192.94 96.5671C193.09 96.3042 193.292 96.104 193.547 95.9665C193.802 95.8249 194.087 95.7541 194.402 95.7541C194.718 95.7541 195.003 95.8249 195.258 95.9665C195.512 96.104 195.713 96.3022 195.858 96.561C196.008 96.8198 196.083 97.1212 196.083 97.4649C196.083 97.8087 196.006 98.112 195.852 98.3749C195.702 98.6338 195.498 98.834 195.239 98.9755C194.98 99.1171 194.693 99.1879 194.378 99.1879ZM194.378 98.7025C194.576 98.7025 194.762 98.656 194.936 98.563C195.11 98.47 195.249 98.3304 195.355 98.1444C195.464 97.9584 195.518 97.7319 195.518 97.4649C195.518 97.198 195.466 96.9715 195.361 96.7855C195.256 96.5994 195.118 96.4619 194.948 96.3729C194.778 96.2799 194.594 96.2334 194.396 96.2334C194.194 96.2334 194.008 96.2799 193.838 96.3729C193.672 96.4619 193.539 96.5994 193.438 96.7855C193.336 96.9715 193.286 97.198 193.286 97.4649C193.286 97.7359 193.334 97.9644 193.431 98.1505C193.533 98.3365 193.666 98.476 193.832 98.5691C193.998 98.658 194.18 98.7025 194.378 98.7025ZM198.428 95.7481C198.833 95.7481 199.16 95.8714 199.411 96.1181C199.662 96.3608 199.787 96.7127 199.787 97.1737V99.1333H199.241V97.2526C199.241 96.921 199.158 96.6682 198.992 96.4943C198.827 96.3163 198.6 96.2273 198.313 96.2273C198.022 96.2273 197.789 96.3183 197.615 96.5003C197.445 96.6823 197.361 96.9472 197.361 97.2951V99.1333H196.808V95.8087H197.361V96.2819C197.47 96.1121 197.617 95.9806 197.803 95.8876C197.993 95.7946 198.202 95.7481 198.428 95.7481ZM205.17 95.8087L203.168 100.698H202.598L203.253 99.0969L201.912 95.8087H202.525L203.568 98.5023L204.6 95.8087H205.17ZM207.175 99.1879C206.863 99.1879 206.58 99.1171 206.325 98.9755C206.075 98.834 205.876 98.6338 205.731 98.3749C205.589 98.112 205.519 97.8087 205.519 97.4649C205.519 97.1252 205.591 96.8259 205.737 96.5671C205.887 96.3042 206.089 96.104 206.344 95.9665C206.598 95.8249 206.884 95.7541 207.199 95.7541C207.514 95.7541 207.8 95.8249 208.054 95.9665C208.309 96.104 208.509 96.3022 208.655 96.561C208.805 96.8198 208.879 97.1212 208.879 97.4649C208.879 97.8087 208.803 98.112 208.649 98.3749C208.499 98.6338 208.295 98.834 208.036 98.9755C207.777 99.1171 207.49 99.1879 207.175 99.1879ZM207.175 98.7025C207.373 98.7025 207.559 98.656 207.733 98.563C207.907 98.47 208.046 98.3304 208.151 98.1444C208.261 97.9584 208.315 97.7319 208.315 97.4649C208.315 97.198 208.263 96.9715 208.158 96.7855C208.052 96.5994 207.915 96.4619 207.745 96.3729C207.575 96.2799 207.391 96.2334 207.193 96.2334C206.991 96.2334 206.805 96.2799 206.635 96.3729C206.469 96.4619 206.336 96.5994 206.234 96.7855C206.133 96.9715 206.083 97.198 206.083 97.4649C206.083 97.7359 206.131 97.9644 206.228 98.1505C206.329 98.3365 206.463 98.476 206.629 98.5691C206.795 98.658 206.977 98.7025 207.175 98.7025ZM212.554 95.8087V99.1333H212.002V98.6419C211.897 98.8117 211.749 98.9452 211.559 99.0423C211.373 99.1353 211.167 99.1818 210.94 99.1818C210.681 99.1818 210.449 99.1292 210.242 99.0241C210.036 98.9149 209.872 98.7531 209.751 98.5387C209.634 98.3244 209.575 98.0635 209.575 97.7561V95.8087H210.121V97.6833C210.121 98.0109 210.204 98.2637 210.37 98.4417C210.536 98.6156 210.762 98.7025 211.049 98.7025C211.344 98.7025 211.577 98.6115 211.747 98.4295C211.917 98.2475 212.002 97.9826 212.002 97.6348V95.8087H212.554ZM214.038 96.3487C214.135 96.1586 214.273 96.011 214.45 95.9058C214.632 95.8006 214.853 95.7481 215.112 95.7481V96.3183H214.966C214.347 96.3183 214.038 96.654 214.038 97.3254V99.1333H213.486V95.8087H214.038V96.3487ZM81.6081 105.421C81.7173 105.231 81.879 105.074 82.0934 104.948C82.3118 104.819 82.5646 104.754 82.8517 104.754C83.147 104.754 83.4139 104.825 83.6525 104.966C83.8952 105.108 84.0853 105.308 84.2228 105.567C84.3603 105.822 84.4291 106.119 84.4291 106.459C84.4291 106.795 84.3603 107.094 84.2228 107.357C84.0853 107.62 83.8952 107.824 83.6525 107.969C83.4139 108.115 83.147 108.188 82.8517 108.188C82.5686 108.188 82.3179 108.125 82.0995 108C81.8851 107.87 81.7213 107.711 81.6081 107.521V109.711H81.056V104.809H81.6081V105.421ZM83.8649 106.459C83.8649 106.208 83.8143 105.99 83.7132 105.804C83.6121 105.618 83.4746 105.476 83.3007 105.379C83.1308 105.282 82.9427 105.233 82.7365 105.233C82.5342 105.233 82.3462 105.284 82.1723 105.385C82.0024 105.482 81.8649 105.626 81.7597 105.816C81.6586 106.002 81.6081 106.218 81.6081 106.465C81.6081 106.716 81.6586 106.936 81.7597 107.126C81.8649 107.312 82.0024 107.456 82.1723 107.557C82.3462 107.654 82.5342 107.703 82.7365 107.703C82.9427 107.703 83.1308 107.654 83.3007 107.557C83.4746 107.456 83.6121 107.312 83.7132 107.126C83.8143 106.936 83.8649 106.714 83.8649 106.459ZM86.8059 104.748C87.0566 104.748 87.2831 104.803 87.4853 104.912C87.6876 105.017 87.8453 105.177 87.9585 105.391C88.0758 105.605 88.1345 105.866 88.1345 106.174V108.133H87.5885V106.253C87.5885 105.921 87.5056 105.668 87.3397 105.494C87.1739 105.316 86.9474 105.227 86.6603 105.227C86.3691 105.227 86.1365 105.318 85.9626 105.5C85.7927 105.682 85.7078 105.947 85.7078 106.295V108.133H85.1557V103.644H85.7078V105.282C85.817 105.112 85.9667 104.981 86.1567 104.888C86.3509 104.795 86.5673 104.748 86.8059 104.748ZM90.4862 108.188C90.1748 108.188 89.8917 108.117 89.6369 107.976C89.3861 107.834 89.1879 107.634 89.0423 107.375C88.9008 107.112 88.83 106.809 88.83 106.465C88.83 106.125 88.9028 105.826 89.0484 105.567C89.1981 105.304 89.4003 105.104 89.6551 104.966C89.9099 104.825 90.195 104.754 90.5105 104.754C90.8259 104.754 91.1111 104.825 91.3659 104.966C91.6207 105.104 91.8209 105.302 91.9665 105.561C92.1161 105.82 92.1909 106.121 92.1909 106.465C92.1909 106.809 92.1141 107.112 91.9604 107.375C91.8108 107.634 91.6065 107.834 91.3477 107.976C91.0888 108.117 90.8017 108.188 90.4862 108.188ZM90.4862 107.703C90.6844 107.703 90.8704 107.656 91.0443 107.563C91.2183 107.47 91.3578 107.33 91.4629 107.144C91.5721 106.958 91.6267 106.732 91.6267 106.465C91.6267 106.198 91.5742 105.972 91.469 105.785C91.3639 105.599 91.2263 105.462 91.0565 105.373C90.8866 105.28 90.7026 105.233 90.5044 105.233C90.3022 105.233 90.1161 105.28 89.9463 105.373C89.7805 105.462 89.647 105.599 89.5459 105.785C89.4448 105.972 89.3942 106.198 89.3942 106.465C89.3942 106.736 89.4427 106.964 89.5398 107.15C89.6409 107.337 89.7744 107.476 89.9402 107.569C90.106 107.658 90.288 107.703 90.4862 107.703ZM94.5366 104.748C94.9411 104.748 95.2687 104.871 95.5194 105.118C95.7702 105.361 95.8955 105.713 95.8955 106.174V108.133H95.3495V106.253C95.3495 105.921 95.2666 105.668 95.1008 105.494C94.935 105.316 94.7085 105.227 94.4213 105.227C94.1301 105.227 93.8976 105.318 93.7237 105.5C93.5538 105.682 93.4689 105.947 93.4689 106.295V108.133H92.9168V104.809H93.4689V105.282C93.5781 105.112 93.7257 104.981 93.9117 104.888C94.1018 104.795 94.3101 104.748 94.5366 104.748ZM99.8307 106.344C99.8307 106.449 99.8246 106.56 99.8125 106.677H97.1553C97.1755 107.005 97.2867 107.262 97.4889 107.448C97.6952 107.63 97.9439 107.721 98.2351 107.721C98.4738 107.721 98.6719 107.666 98.8297 107.557C98.9915 107.444 99.1047 107.294 99.1694 107.108H99.7639C99.675 107.428 99.497 107.688 99.2301 107.891C98.9631 108.089 98.6315 108.188 98.2351 108.188C97.9197 108.188 97.6366 108.117 97.3858 107.976C97.1391 107.834 96.945 107.634 96.8034 107.375C96.6619 107.112 96.5911 106.809 96.5911 106.465C96.5911 106.121 96.6598 105.82 96.7973 105.561C96.9349 105.302 97.127 105.104 97.3737 104.966C97.6244 104.825 97.9116 104.754 98.2351 104.754C98.5506 104.754 98.8297 104.823 99.0723 104.96C99.315 105.098 99.5011 105.288 99.6305 105.531C99.7639 105.769 99.8307 106.04 99.8307 106.344ZM99.2604 106.228C99.2604 106.018 99.2139 105.838 99.1209 105.688C99.0279 105.535 98.9005 105.419 98.7387 105.343C98.5809 105.262 98.405 105.221 98.2109 105.221C97.9318 105.221 97.6932 105.31 97.495 105.488C97.3009 105.666 97.1897 105.913 97.1613 106.228H99.2604ZM101.13 107.369L100.45 109.001H100.08L100.523 107.369H101.13ZM103.173 106.459C103.173 106.119 103.242 105.822 103.379 105.567C103.517 105.308 103.705 105.108 103.944 104.966C104.186 104.825 104.455 104.754 104.751 104.754C105.042 104.754 105.294 104.817 105.509 104.942C105.723 105.068 105.883 105.225 105.988 105.415V104.809H106.546V108.133H105.988V107.514C105.879 107.709 105.715 107.87 105.497 108C105.282 108.125 105.032 108.188 104.744 108.188C104.449 108.188 104.182 108.115 103.944 107.969C103.705 107.824 103.517 107.62 103.379 107.357C103.242 107.094 103.173 106.795 103.173 106.459ZM105.988 106.465C105.988 106.214 105.938 105.996 105.836 105.81C105.735 105.624 105.598 105.482 105.424 105.385C105.254 105.284 105.066 105.233 104.86 105.233C104.653 105.233 104.465 105.282 104.296 105.379C104.126 105.476 103.99 105.618 103.889 105.804C103.788 105.99 103.737 106.208 103.737 106.459C103.737 106.714 103.788 106.936 103.889 107.126C103.99 107.312 104.126 107.456 104.296 107.557C104.465 107.654 104.653 107.703 104.86 107.703C105.066 107.703 105.254 107.654 105.424 107.557C105.598 107.456 105.735 107.312 105.836 107.126C105.938 106.936 105.988 106.716 105.988 106.465ZM109.099 104.748C109.503 104.748 109.831 104.871 110.082 105.118C110.333 105.361 110.458 105.713 110.458 106.174V108.133H109.912V106.253C109.912 105.921 109.829 105.668 109.663 105.494C109.497 105.316 109.271 105.227 108.984 105.227C108.693 105.227 108.46 105.318 108.286 105.5C108.116 105.682 108.031 105.947 108.031 106.295V108.133H107.479V104.809H108.031V105.282C108.14 105.112 108.288 104.981 108.474 104.888C108.664 104.795 108.872 104.748 109.099 104.748ZM111.153 106.459C111.153 106.119 111.222 105.822 111.36 105.567C111.497 105.308 111.685 105.108 111.924 104.966C112.167 104.825 112.438 104.754 112.737 104.754C112.996 104.754 113.236 104.815 113.459 104.936C113.681 105.053 113.851 105.209 113.968 105.403V103.644H114.527V108.133H113.968V107.508C113.859 107.707 113.697 107.87 113.483 108C113.269 108.125 113.018 108.188 112.731 108.188C112.436 108.188 112.167 108.115 111.924 107.969C111.685 107.824 111.497 107.62 111.36 107.357C111.222 107.094 111.153 106.795 111.153 106.459ZM113.968 106.465C113.968 106.214 113.918 105.996 113.817 105.81C113.716 105.624 113.578 105.482 113.404 105.385C113.234 105.284 113.046 105.233 112.84 105.233C112.634 105.233 112.446 105.282 112.276 105.379C112.106 105.476 111.97 105.618 111.869 105.804C111.768 105.99 111.718 106.208 111.718 106.459C111.718 106.714 111.768 106.936 111.869 107.126C111.97 107.312 112.106 107.456 112.276 107.557C112.446 107.654 112.634 107.703 112.84 107.703C113.046 107.703 113.234 107.654 113.404 107.557C113.578 107.456 113.716 107.312 113.817 107.126C113.918 106.936 113.968 106.716 113.968 106.465ZM118.697 104.748C119.101 104.748 119.429 104.871 119.679 105.118C119.93 105.361 120.056 105.713 120.056 106.174V108.133H119.51V106.253C119.51 105.921 119.427 105.668 119.261 105.494C119.095 105.316 118.869 105.227 118.581 105.227C118.29 105.227 118.058 105.318 117.884 105.5C117.714 105.682 117.629 105.947 117.629 106.295V108.133H117.077V104.809H117.629V105.282C117.738 105.112 117.886 104.981 118.072 104.888C118.262 104.795 118.47 104.748 118.697 104.748ZM122.407 108.188C122.096 108.188 121.813 108.117 121.558 107.976C121.307 107.834 121.109 107.634 120.963 107.375C120.822 107.112 120.751 106.809 120.751 106.465C120.751 106.125 120.824 105.826 120.97 105.567C121.119 105.304 121.321 105.104 121.576 104.966C121.831 104.825 122.116 104.754 122.432 104.754C122.747 104.754 123.032 104.825 123.287 104.966C123.542 105.104 123.742 105.302 123.888 105.561C124.037 105.82 124.112 106.121 124.112 106.465C124.112 106.809 124.035 107.112 123.882 107.375C123.732 107.634 123.528 107.834 123.269 107.976C123.01 108.117 122.723 108.188 122.407 108.188ZM122.407 107.703C122.605 107.703 122.792 107.656 122.965 107.563C123.139 107.47 123.279 107.33 123.384 107.144C123.493 106.958 123.548 106.732 123.548 106.465C123.548 106.198 123.495 105.972 123.39 105.785C123.285 105.599 123.147 105.462 122.978 105.373C122.808 105.28 122.624 105.233 122.426 105.233C122.223 105.233 122.037 105.28 121.867 105.373C121.702 105.462 121.568 105.599 121.467 105.785C121.366 105.972 121.315 106.198 121.315 106.465C121.315 106.736 121.364 106.964 121.461 107.15C121.562 107.337 121.695 107.476 121.861 107.569C122.027 107.658 122.209 107.703 122.407 107.703ZM125.511 105.264V107.223C125.511 107.385 125.546 107.5 125.614 107.569C125.683 107.634 125.802 107.666 125.972 107.666H126.379V108.133H125.881C125.574 108.133 125.343 108.062 125.19 107.921C125.036 107.779 124.959 107.547 124.959 107.223V105.264H124.528V104.809H124.959V103.972H125.511V104.809H126.379V105.264H125.511ZM130.115 108.188C129.804 108.188 129.521 108.117 129.266 107.976C129.015 107.834 128.817 107.634 128.671 107.375C128.53 107.112 128.459 106.809 128.459 106.465C128.459 106.125 128.532 105.826 128.677 105.567C128.827 105.304 129.029 105.104 129.284 104.966C129.539 104.825 129.824 104.754 130.139 104.754C130.455 104.754 130.74 104.825 130.995 104.966C131.25 105.104 131.45 105.302 131.595 105.561C131.745 105.82 131.82 106.121 131.82 106.465C131.82 106.809 131.743 107.112 131.589 107.375C131.44 107.634 131.235 107.834 130.977 107.976C130.718 108.117 130.431 108.188 130.115 108.188ZM130.115 107.703C130.313 107.703 130.499 107.656 130.673 107.563C130.847 107.47 130.987 107.33 131.092 107.144C131.201 106.958 131.256 106.732 131.256 106.465C131.256 106.198 131.203 105.972 131.098 105.785C130.993 105.599 130.855 105.462 130.685 105.373C130.515 105.28 130.331 105.233 130.133 105.233C129.931 105.233 129.745 105.28 129.575 105.373C129.409 105.462 129.276 105.599 129.175 105.785C129.074 105.972 129.023 106.198 129.023 106.465C129.023 106.736 129.072 106.964 129.169 107.15C129.27 107.337 129.403 107.476 129.569 107.569C129.735 107.658 129.917 107.703 130.115 107.703ZM134.165 104.748C134.57 104.748 134.897 104.871 135.148 105.118C135.399 105.361 135.524 105.713 135.524 106.174V108.133H134.978V106.253C134.978 105.921 134.895 105.668 134.73 105.494C134.564 105.316 134.337 105.227 134.05 105.227C133.759 105.227 133.526 105.318 133.353 105.5C133.183 105.682 133.098 105.947 133.098 106.295V108.133H132.546V104.809H133.098V105.282C133.207 105.112 133.355 104.981 133.541 104.888C133.731 104.795 133.939 104.748 134.165 104.748ZM137.837 106.459C137.837 106.119 137.906 105.822 138.044 105.567C138.181 105.308 138.369 105.108 138.608 104.966C138.85 104.825 139.119 104.754 139.415 104.754C139.706 104.754 139.959 104.817 140.173 104.942C140.387 105.068 140.547 105.225 140.652 105.415V104.809H141.21V108.133H140.652V107.514C140.543 107.709 140.379 107.87 140.161 108C139.946 108.125 139.696 108.188 139.409 108.188C139.113 108.188 138.846 108.115 138.608 107.969C138.369 107.824 138.181 107.62 138.044 107.357C137.906 107.094 137.837 106.795 137.837 106.459ZM140.652 106.465C140.652 106.214 140.602 105.996 140.501 105.81C140.399 105.624 140.262 105.482 140.088 105.385C139.918 105.284 139.73 105.233 139.524 105.233C139.318 105.233 139.129 105.282 138.96 105.379C138.79 105.476 138.654 105.618 138.553 105.804C138.452 105.99 138.401 106.208 138.401 106.459C138.401 106.714 138.452 106.936 138.553 107.126C138.654 107.312 138.79 107.456 138.96 107.557C139.129 107.654 139.318 107.703 139.524 107.703C139.73 107.703 139.918 107.654 140.088 107.557C140.262 107.456 140.399 107.312 140.501 107.126C140.602 106.936 140.652 106.716 140.652 106.465ZM143.763 104.748C144.168 104.748 144.495 104.871 144.746 105.118C144.997 105.361 145.122 105.713 145.122 106.174V108.133H144.576V106.253C144.576 105.921 144.493 105.668 144.327 105.494C144.161 105.316 143.935 105.227 143.648 105.227C143.357 105.227 143.124 105.318 142.95 105.5C142.78 105.682 142.695 105.947 142.695 106.295V108.133H142.143V104.809H142.695V105.282C142.805 105.112 142.952 104.981 143.138 104.888C143.328 104.795 143.537 104.748 143.763 104.748ZM148.887 104.809L146.885 109.698H146.315L146.97 108.097L145.63 104.809H146.242L147.286 107.502L148.317 104.809H148.887ZM152.237 108.188C151.982 108.188 151.753 108.145 151.551 108.06C151.349 107.971 151.189 107.85 151.072 107.696C150.954 107.539 150.89 107.359 150.878 107.157H151.448C151.464 107.322 151.541 107.458 151.678 107.563C151.82 107.668 152.004 107.721 152.231 107.721C152.441 107.721 152.607 107.674 152.728 107.581C152.849 107.488 152.91 107.371 152.91 107.229C152.91 107.084 152.845 106.977 152.716 106.908C152.586 106.835 152.386 106.764 152.115 106.695C151.869 106.631 151.666 106.566 151.509 106.501C151.355 106.433 151.221 106.333 151.108 106.204C150.999 106.071 150.944 105.897 150.944 105.682C150.944 105.512 150.995 105.357 151.096 105.215C151.197 105.074 151.341 104.962 151.527 104.882C151.713 104.797 151.925 104.754 152.164 104.754C152.532 104.754 152.829 104.847 153.056 105.033C153.282 105.219 153.403 105.474 153.42 105.798H152.868C152.855 105.624 152.785 105.484 152.655 105.379C152.53 105.274 152.36 105.221 152.146 105.221C151.947 105.221 151.79 105.264 151.672 105.349C151.555 105.434 151.496 105.545 151.496 105.682C151.496 105.792 151.531 105.883 151.6 105.955C151.672 106.024 151.761 106.081 151.867 106.125C151.976 106.166 152.125 106.212 152.315 106.265C152.554 106.329 152.748 106.394 152.898 106.459C153.047 106.52 153.175 106.613 153.28 106.738C153.389 106.863 153.446 107.027 153.45 107.229C153.45 107.411 153.399 107.575 153.298 107.721C153.197 107.866 153.054 107.982 152.868 108.067C152.686 108.147 152.475 108.188 152.237 108.188ZM157.263 106.344C157.263 106.449 157.257 106.56 157.244 106.677H154.587C154.607 107.005 154.719 107.262 154.921 107.448C155.127 107.63 155.376 107.721 155.667 107.721C155.906 107.721 156.104 107.666 156.262 107.557C156.423 107.444 156.537 107.294 156.601 107.108H157.196C157.107 107.428 156.929 107.688 156.662 107.891C156.395 108.089 156.063 108.188 155.667 108.188C155.352 108.188 155.068 108.117 154.818 107.976C154.571 107.834 154.377 107.634 154.235 107.375C154.094 107.112 154.023 106.809 154.023 106.465C154.023 106.121 154.092 105.82 154.229 105.561C154.367 105.302 154.559 105.104 154.806 104.966C155.056 104.825 155.343 104.754 155.667 104.754C155.983 104.754 156.262 104.823 156.504 104.96C156.747 105.098 156.933 105.288 157.062 105.531C157.196 105.769 157.263 106.04 157.263 106.344ZM156.692 106.228C156.692 106.018 156.646 105.838 156.553 105.688C156.46 105.535 156.332 105.419 156.171 105.343C156.013 105.262 155.837 105.221 155.643 105.221C155.364 105.221 155.125 105.31 154.927 105.488C154.733 105.666 154.622 105.913 154.593 106.228H156.692ZM158.543 105.349C158.64 105.159 158.778 105.011 158.956 104.906C159.138 104.801 159.358 104.748 159.617 104.748V105.318H159.472C158.853 105.318 158.543 105.654 158.543 106.325V108.133H157.991V104.809H158.543V105.349ZM161.492 107.624L162.523 104.809H163.112L161.808 108.133H161.164L159.86 104.809H160.455L161.492 107.624ZM166.688 106.344C166.688 106.449 166.682 106.56 166.67 106.677H164.013C164.033 107.005 164.144 107.262 164.347 107.448C164.553 107.63 164.802 107.721 165.093 107.721C165.332 107.721 165.53 107.666 165.687 107.557C165.849 107.444 165.962 107.294 166.027 107.108H166.622C166.533 107.428 166.355 107.688 166.088 107.891C165.821 108.089 165.489 108.188 165.093 108.188C164.777 108.188 164.494 108.117 164.244 107.976C163.997 107.834 163.803 107.634 163.661 107.375C163.52 107.112 163.449 106.809 163.449 106.465C163.449 106.121 163.518 105.82 163.655 105.561C163.793 105.302 163.985 105.104 164.231 104.966C164.482 104.825 164.769 104.754 165.093 104.754C165.408 104.754 165.687 104.823 165.93 104.96C166.173 105.098 166.359 105.288 166.488 105.531C166.622 105.769 166.688 106.04 166.688 106.344ZM166.118 106.228C166.118 106.018 166.072 105.838 165.979 105.688C165.886 105.535 165.758 105.419 165.596 105.343C165.439 105.262 165.263 105.221 165.069 105.221C164.79 105.221 164.551 105.31 164.353 105.488C164.159 105.666 164.047 105.913 164.019 106.228H166.118ZM167.969 105.349C168.066 105.159 168.204 105.011 168.382 104.906C168.564 104.801 168.784 104.748 169.043 104.748V105.318H168.897C168.279 105.318 167.969 105.654 167.969 106.325V108.133H167.417V104.809H167.969V105.349ZM169.856 108.17C169.751 108.17 169.662 108.133 169.589 108.06C169.516 107.988 169.48 107.899 169.48 107.794C169.48 107.688 169.516 107.599 169.589 107.527C169.662 107.454 169.751 107.417 169.856 107.417C169.957 107.417 170.042 107.454 170.111 107.527C170.184 107.599 170.22 107.688 170.22 107.794C170.22 107.899 170.184 107.988 170.111 108.06C170.042 108.133 169.957 108.17 169.856 108.17Z" fill="#62626A"/>
</g>
<rect x="37" y="48.1305" width="206" height="36.05" rx="10.3" fill="white"/>
<rect x="47.2999" y="58.4307" width="15.45" height="15.45" rx="7.725" fill="#D6D6E0"/>
<g clip-path="url(#clip4_1_742)">
<path d="M55.0249 61.8646C55.4493 61.8646 55.8642 61.9904 56.2171 62.2262C56.57 62.462 56.845 62.7971 57.0074 63.1892C57.1698 63.5813 57.2123 64.0128 57.1295 64.429C57.0467 64.8453 56.8424 65.2276 56.5423 65.5277C56.2422 65.8278 55.8598 66.0322 55.4435 66.115C55.0273 66.1978 54.5958 66.1553 54.2037 65.9929C53.8116 65.8305 53.4765 65.5554 53.2407 65.2026C53.0049 64.8497 52.8791 64.4348 52.8791 64.0104L52.8812 63.9173C52.9052 63.3648 53.1416 62.843 53.541 62.4605C53.9403 62.0781 54.472 61.8646 55.0249 61.8646Z" fill="white"/>
<path d="M55.8833 67.0146C56.4524 67.0146 56.9982 67.2406 57.4006 67.6431C57.803 68.0455 58.0291 68.5913 58.0291 69.1604V69.5896C58.0291 69.8172 57.9387 70.0355 57.7777 70.1965C57.6167 70.3575 57.3984 70.4479 57.1708 70.4479H52.8791C52.6514 70.4479 52.4331 70.3575 52.2722 70.1965C52.1112 70.0355 52.0208 69.8172 52.0208 69.5896V69.1604C52.0208 68.5913 52.2468 68.0455 52.6493 67.6431C53.0517 67.2406 53.5975 67.0146 54.1666 67.0146H55.8833Z" fill="white"/>
<path d="M55.0249 61.8646C55.4493 61.8646 55.8642 61.9904 56.2171 62.2262C56.57 62.462 56.845 62.7971 57.0074 63.1892C57.1698 63.5813 57.2123 64.0128 57.1295 64.429C57.0467 64.8453 56.8424 65.2276 56.5423 65.5277C56.2422 65.8278 55.8598 66.0322 55.4435 66.115C55.0273 66.1978 54.5958 66.1553 54.2037 65.9929C53.8116 65.8305 53.4765 65.5554 53.2407 65.2026C53.0049 64.8497 52.8791 64.4348 52.8791 64.0104L52.8812 63.9173C52.9052 63.3648 53.1416 62.843 53.541 62.4605C53.9403 62.0781 54.472 61.8646 55.0249 61.8646Z" stroke="white"/>
<path d="M55.8833 67.0146C56.4524 67.0146 56.9982 67.2406 57.4006 67.6431C57.803 68.0455 58.0291 68.5913 58.0291 69.1604V69.5896C58.0291 69.8172 57.9387 70.0355 57.7777 70.1965C57.6167 70.3575 57.3984 70.4479 57.1708 70.4479H52.8791C52.6514 70.4479 52.4331 70.3575 52.2722 70.1965C52.1112 70.0355 52.0208 69.8172 52.0208 69.5896V69.1604C52.0208 68.5913 52.2468 68.0455 52.6493 67.6431C53.0517 67.2406 53.5975 67.0146 54.1666 67.0146H55.8833Z" stroke="white"/>
</g>
<path d="M75.3803 62.865V69.1557H74.1185V65.064L72.4332 69.1557H71.4779L69.7835 65.064V69.1557H68.5218V62.865H69.9548L71.9555 67.5425L73.9563 62.865H75.3803ZM78.8448 69.2368C78.3641 69.2368 77.9315 69.1317 77.547 68.9214C77.1625 68.7051 76.8591 68.4017 76.6367 68.0111C76.4204 67.6206 76.3123 67.1699 76.3123 66.6592C76.3123 66.1485 76.4234 65.6979 76.6458 65.3074C76.8741 64.9168 77.1835 64.6164 77.574 64.4061C77.9646 64.1898 78.4002 64.0817 78.8809 64.0817C79.3615 64.0817 79.7971 64.1898 80.1877 64.4061C80.5782 64.6164 80.8846 64.9168 81.1069 65.3074C81.3353 65.6979 81.4494 66.1485 81.4494 66.6592C81.4494 67.1699 81.3323 67.6206 81.0979 68.0111C80.8696 68.4017 80.5572 68.7051 80.1606 68.9214C79.7701 69.1317 79.3315 69.2368 78.8448 69.2368ZM78.8448 68.1373C79.0731 68.1373 79.2864 68.0832 79.4847 67.9751C79.689 67.8609 79.8512 67.6927 79.9714 67.4704C80.0915 67.2481 80.1516 66.9777 80.1516 66.6592C80.1516 66.1846 80.0254 65.8211 79.7731 65.5687C79.5268 65.3104 79.2233 65.1812 78.8628 65.1812C78.5023 65.1812 78.1989 65.3104 77.9526 65.5687C77.7122 65.8211 77.5921 66.1846 77.5921 66.6592C77.5921 67.1339 77.7092 67.5004 77.9436 67.7588C78.1839 68.0111 78.4843 68.1373 78.8448 68.1373ZM88.5756 64.0907C89.1884 64.0907 89.6811 64.2799 90.0536 64.6585C90.4321 65.031 90.6214 65.5537 90.6214 66.2266V69.1557H89.3596V66.3979C89.3596 66.0073 89.2605 65.7099 89.0622 65.5056C88.864 65.2953 88.5936 65.1902 88.2511 65.1902C87.9086 65.1902 87.6353 65.2953 87.431 65.5056C87.2327 65.7099 87.1336 66.0073 87.1336 66.3979V69.1557H85.8718V66.3979C85.8718 66.0073 85.7727 65.7099 85.5744 65.5056C85.3761 65.2953 85.1057 65.1902 84.7633 65.1902C84.4148 65.1902 84.1384 65.2953 83.9341 65.5056C83.7358 65.7099 83.6367 66.0073 83.6367 66.3979V69.1557H82.375V64.1628H83.6367V64.7666C83.7989 64.5563 84.0062 64.3911 84.2586 64.2709C84.5169 64.1508 84.7993 64.0907 85.1057 64.0907C85.4963 64.0907 85.8448 64.1748 86.1512 64.343C86.4576 64.5053 86.695 64.7396 86.8632 65.046C87.0254 64.7576 87.2597 64.5263 87.5662 64.352C87.8786 64.1778 88.2151 64.0907 88.5756 64.0907Z" fill="#0B0C19"/>
<path d="M224.653 69.3741L227.872 66.1554L224.653 62.9366" stroke="#62626A" stroke-width="0.965625" stroke-linecap="round" stroke-linejoin="round"/>
</g>
<defs>
<clipPath id="clip0_1_742">
<rect width="280" height="160" rx="16" fill="white"/>
</clipPath>
<clipPath id="clip1_1_742">
<rect width="182" height="404.444" fill="white" transform="translate(49 -122.222)"/>
</clipPath>
<clipPath id="clip2_1_742">
<rect width="8.08889" height="8.08889" fill="white" transform="translate(69.2222 61.7998)"/>
</clipPath>
<clipPath id="clip3_1_742">
<rect width="12.1333" height="12.1333" fill="white" transform="translate(64.4111 95.0666)"/>
</clipPath>
<clipPath id="clip4_1_742">
<rect width="10.3" height="10.3" fill="white" transform="translate(49.8748 61.0055)"/>
</clipPath>
</defs>
</svg>
