<svg width="280" height="160" viewBox="0 0 280 160" fill="none" xmlns="http://www.w3.org/2000/svg">
<g clip-path="url(#clip0_1_702)">
<rect width="280" height="160" rx="16" fill="#2862FC" fill-opacity="0.1"/>
<g clip-path="url(#clip1_1_702)">
<rect width="180" height="400" transform="translate(50 -120.444)" fill="#F6F6FD"/>
<rect x="60" y="-1.44444" width="160" height="26" rx="13" fill="#EAEAF0"/>
<path d="M76.375 13.5556H75.738L73.176 9.67056V13.5556H72.539V8.66956H73.176L75.738 12.5476V8.66956H76.375V13.5556ZM77.7899 9.09656C77.6685 9.09656 77.5659 9.05456 77.4819 8.97056C77.3979 8.88656 77.3559 8.78389 77.3559 8.66256C77.3559 8.54122 77.3979 8.43856 77.4819 8.35456C77.5659 8.27056 77.6685 8.22856 77.7899 8.22856C77.9065 8.22856 78.0045 8.27056 78.0839 8.35456C78.1679 8.43856 78.2099 8.54122 78.2099 8.66256C78.2099 8.78389 78.1679 8.88656 78.0839 8.97056C78.0045 9.05456 77.9065 9.09656 77.7899 9.09656ZM78.0979 9.71956V13.5556H77.4609V9.71956H78.0979ZM78.9455 11.6306C78.9455 11.2339 79.0249 10.8886 79.1835 10.5946C79.3422 10.2959 79.5615 10.0649 79.8415 9.90156C80.1262 9.73822 80.4505 9.65656 80.8145 9.65656C81.2859 9.65656 81.6732 9.77089 81.9765 9.99956C82.2845 10.2282 82.4875 10.5456 82.5855 10.9516H81.8995C81.8342 10.7182 81.7059 10.5339 81.5145 10.3986C81.3279 10.2632 81.0945 10.1956 80.8145 10.1956C80.4505 10.1956 80.1565 10.3216 79.9325 10.5736C79.7085 10.8209 79.5965 11.1732 79.5965 11.6306C79.5965 12.0926 79.7085 12.4496 79.9325 12.7016C80.1565 12.9536 80.4505 13.0796 80.8145 13.0796C81.0945 13.0796 81.3279 13.0142 81.5145 12.8836C81.7012 12.7529 81.8295 12.5662 81.8995 12.3236H82.5855C82.4829 12.7156 82.2775 13.0306 81.9695 13.2686C81.6615 13.5019 81.2765 13.6186 80.8145 13.6186C80.4505 13.6186 80.1262 13.5369 79.8415 13.3736C79.5615 13.2102 79.3422 12.9792 79.1835 12.6806C79.0249 12.3819 78.9455 12.0319 78.9455 11.6306ZM85.5775 13.5556L84.0725 11.8616V13.5556H83.4355V8.37556H84.0725V11.4206L85.5495 9.71956H86.4385L84.6325 11.6306L86.4455 13.5556H85.5775ZM88.907 9.64956C89.3737 9.64956 89.7517 9.79189 90.041 10.0766C90.3304 10.3566 90.475 10.7626 90.475 11.2946V13.5556H89.845V11.3856C89.845 11.0029 89.7494 10.7112 89.558 10.5106C89.3667 10.3052 89.1054 10.2026 88.774 10.2026C88.438 10.2026 88.1697 10.3076 87.969 10.5176C87.773 10.7276 87.675 11.0332 87.675 11.4346V13.5556H87.038V9.71956H87.675V10.2656C87.801 10.0696 87.9714 9.91789 88.186 9.81056C88.4054 9.70322 88.6457 9.64956 88.907 9.64956ZM91.2776 11.6236C91.2776 11.2316 91.3569 10.8886 91.5156 10.5946C91.6742 10.2959 91.8912 10.0649 92.1666 9.90156C92.4466 9.73822 92.7569 9.65656 93.0976 9.65656C93.4336 9.65656 93.7252 9.72889 93.9726 9.87356C94.2199 10.0182 94.4042 10.2002 94.5256 10.4196V9.71956H95.1696V13.5556H94.5256V12.8416C94.3996 13.0656 94.2106 13.2522 93.9586 13.4016C93.7112 13.5462 93.4219 13.6186 93.0906 13.6186C92.7499 13.6186 92.4419 13.5346 92.1666 13.3666C91.8912 13.1986 91.6742 12.9629 91.5156 12.6596C91.3569 12.3562 91.2776 12.0109 91.2776 11.6236ZM94.5256 11.6306C94.5256 11.3412 94.4672 11.0892 94.3506 10.8746C94.2339 10.6599 94.0752 10.4966 93.8746 10.3846C93.6786 10.2679 93.4616 10.2096 93.2236 10.2096C92.9856 10.2096 92.7686 10.2656 92.5726 10.3776C92.3766 10.4896 92.2202 10.6529 92.1036 10.8676C91.9869 11.0822 91.9286 11.3342 91.9286 11.6236C91.9286 11.9176 91.9869 12.1742 92.1036 12.3936C92.2202 12.6082 92.3766 12.7739 92.5726 12.8906C92.7686 13.0026 92.9856 13.0586 93.2236 13.0586C93.4616 13.0586 93.6786 13.0026 93.8746 12.8906C94.0752 12.7739 94.2339 12.6082 94.3506 12.3936C94.4672 12.1742 94.5256 11.9199 94.5256 11.6306ZM100.859 9.64956C101.158 9.64956 101.424 9.71256 101.657 9.83856C101.89 9.95989 102.075 10.1442 102.21 10.3916C102.345 10.6389 102.413 10.9399 102.413 11.2946V13.5556H101.783V11.3856C101.783 11.0029 101.687 10.7112 101.496 10.5106C101.309 10.3052 101.055 10.2026 100.733 10.2026C100.402 10.2026 100.138 10.3099 99.942 10.5246C99.746 10.7346 99.648 11.0402 99.648 11.4416V13.5556H99.018V11.3856C99.018 11.0029 98.9224 10.7112 98.731 10.5106C98.5444 10.3052 98.29 10.2026 97.968 10.2026C97.6367 10.2026 97.373 10.3099 97.177 10.5246C96.981 10.7346 96.883 11.0402 96.883 11.4416V13.5556H96.246V9.71956H96.883V10.2726C97.009 10.0719 97.177 9.91789 97.387 9.81056C97.6017 9.70322 97.8374 9.64956 98.094 9.64956C98.416 9.64956 98.7007 9.72189 98.948 9.86656C99.1954 10.0112 99.3797 10.2236 99.501 10.5036C99.6084 10.2329 99.7857 10.0229 100.033 9.87356C100.28 9.72422 100.556 9.64956 100.859 9.64956ZM106.958 11.4906C106.958 11.6119 106.951 11.7402 106.937 11.8756H103.871C103.894 12.2536 104.023 12.5499 104.256 12.7646C104.494 12.9746 104.781 13.0796 105.117 13.0796C105.392 13.0796 105.621 13.0166 105.803 12.8906C105.99 12.7599 106.12 12.5872 106.195 12.3726H106.881C106.778 12.7412 106.573 13.0422 106.265 13.2756C105.957 13.5042 105.574 13.6186 105.117 13.6186C104.753 13.6186 104.426 13.5369 104.137 13.3736C103.852 13.2102 103.628 12.9792 103.465 12.6806C103.302 12.3772 103.22 12.0272 103.22 11.6306C103.22 11.2339 103.299 10.8862 103.458 10.5876C103.617 10.2889 103.838 10.0602 104.123 9.90156C104.412 9.73822 104.744 9.65656 105.117 9.65656C105.481 9.65656 105.803 9.73589 106.083 9.89456C106.363 10.0532 106.578 10.2726 106.727 10.5526C106.881 10.8279 106.958 11.1406 106.958 11.4906ZM106.3 11.3576C106.3 11.1149 106.246 10.9072 106.139 10.7346C106.032 10.5572 105.885 10.4242 105.698 10.3356C105.516 10.2422 105.313 10.1956 105.089 10.1956C104.767 10.1956 104.492 10.2982 104.263 10.5036C104.039 10.7089 103.911 10.9936 103.878 11.3576H106.3Z" fill="#62626A"/>
<rect x="60" y="32.5555" width="160" height="26" rx="13" fill="#EAEAF0"/>
<path d="M74.715 39.0905C74.715 39.3805 74.615 39.6222 74.415 39.8155C74.2183 40.0055 73.9167 40.1005 73.51 40.1005H72.84V41.5555H72.385V38.0705H73.51C73.9033 38.0705 74.2017 38.1655 74.405 38.3555C74.6117 38.5455 74.715 38.7905 74.715 39.0905ZM73.51 39.7255C73.7633 39.7255 73.95 39.6705 74.07 39.5605C74.19 39.4505 74.25 39.2938 74.25 39.0905C74.25 38.6605 74.0033 38.4455 73.51 38.4455H72.84V39.7255H73.51ZM75.7355 39.2605C75.8155 39.1038 75.9288 38.9822 76.0755 38.8955C76.2255 38.8088 76.4072 38.7655 76.6205 38.7655V39.2355H76.5005C75.9905 39.2355 75.7355 39.5122 75.7355 40.0655V41.5555H75.2805V38.8155H75.7355V39.2605ZM78.3407 41.6005C78.0841 41.6005 77.8507 41.5422 77.6407 41.4255C77.4341 41.3088 77.2707 41.1438 77.1507 40.9305C77.0341 40.7138 76.9757 40.4638 76.9757 40.1805C76.9757 39.9005 77.0357 39.6538 77.1557 39.4405C77.2791 39.2238 77.4457 39.0588 77.6557 38.9455C77.8657 38.8288 78.1007 38.7705 78.3607 38.7705C78.6207 38.7705 78.8557 38.8288 79.0657 38.9455C79.2757 39.0588 79.4407 39.2222 79.5607 39.4355C79.6841 39.6488 79.7457 39.8972 79.7457 40.1805C79.7457 40.4638 79.6824 40.7138 79.5557 40.9305C79.4324 41.1438 79.2641 41.3088 79.0507 41.4255C78.8374 41.5422 78.6007 41.6005 78.3407 41.6005ZM78.3407 41.2005C78.5041 41.2005 78.6574 41.1622 78.8007 41.0855C78.9441 41.0088 79.0591 40.8938 79.1457 40.7405C79.2357 40.5872 79.2807 40.4005 79.2807 40.1805C79.2807 39.9605 79.2374 39.7738 79.1507 39.6205C79.0641 39.4672 78.9507 39.3538 78.8107 39.2805C78.6707 39.2038 78.5191 39.1655 78.3557 39.1655C78.1891 39.1655 78.0357 39.2038 77.8957 39.2805C77.7591 39.3538 77.6491 39.4672 77.5657 39.6205C77.4824 39.7738 77.4407 39.9605 77.4407 40.1805C77.4407 40.4038 77.4807 40.5922 77.5607 40.7455C77.6441 40.8988 77.7541 41.0138 77.8907 41.0905C78.0274 41.1638 78.1774 41.2005 78.3407 41.2005ZM80.899 39.1905V40.8055C80.899 40.9388 80.9273 41.0338 80.984 41.0905C81.0407 41.1438 81.139 41.1705 81.279 41.1705H81.614V41.5555H81.204C80.9507 41.5555 80.7607 41.4972 80.634 41.3805C80.5073 41.2638 80.444 41.0722 80.444 40.8055V39.1905H80.089V38.8155H80.444V38.1255H80.899V38.8155H81.614V39.1905H80.899ZM84.6653 40.0805C84.6653 40.1672 84.6603 40.2588 84.6503 40.3555H82.4603C82.4769 40.6255 82.5686 40.8372 82.7353 40.9905C82.9053 41.1405 83.1103 41.2155 83.3503 41.2155C83.5469 41.2155 83.7103 41.1705 83.8403 41.0805C83.9736 40.9872 84.0669 40.8638 84.1203 40.7105H84.6103C84.5369 40.9738 84.3903 41.1888 84.1703 41.3555C83.9503 41.5188 83.6769 41.6005 83.3503 41.6005C83.0903 41.6005 82.8569 41.5422 82.6503 41.4255C82.4469 41.3088 82.2869 41.1438 82.1703 40.9305C82.0536 40.7138 81.9953 40.4638 81.9953 40.1805C81.9953 39.8972 82.0519 39.6488 82.1653 39.4355C82.2786 39.2222 82.4369 39.0588 82.6403 38.9455C82.8469 38.8288 83.0836 38.7705 83.3503 38.7705C83.6103 38.7705 83.8403 38.8272 84.0403 38.9405C84.2403 39.0538 84.3936 39.2105 84.5003 39.4105C84.6103 39.6072 84.6653 39.8305 84.6653 40.0805ZM84.1953 39.9855C84.1953 39.8122 84.1569 39.6638 84.0803 39.5405C84.0036 39.4138 83.8986 39.3188 83.7653 39.2555C83.6353 39.1888 83.4903 39.1555 83.3303 39.1555C83.1003 39.1555 82.9036 39.2288 82.7403 39.3755C82.5803 39.5222 82.4886 39.7255 82.4653 39.9855H84.1953ZM85.0959 40.1805C85.0959 39.8972 85.1525 39.6505 85.2659 39.4405C85.3792 39.2272 85.5359 39.0622 85.7359 38.9455C85.9392 38.8288 86.1709 38.7705 86.4309 38.7705C86.7675 38.7705 87.0442 38.8522 87.2609 39.0155C87.4809 39.1788 87.6259 39.4055 87.6959 39.6955H87.2059C87.1592 39.5288 87.0675 39.3972 86.9309 39.3005C86.7975 39.2038 86.6309 39.1555 86.4309 39.1555C86.1709 39.1555 85.9609 39.2455 85.8009 39.4255C85.6409 39.6022 85.5609 39.8538 85.5609 40.1805C85.5609 40.5105 85.6409 40.7655 85.8009 40.9455C85.9609 41.1255 86.1709 41.2155 86.4309 41.2155C86.6309 41.2155 86.7975 41.1688 86.9309 41.0755C87.0642 40.9822 87.1559 40.8488 87.2059 40.6755H87.6959C87.6225 40.9555 87.4759 41.1805 87.2559 41.3505C87.0359 41.5172 86.7609 41.6005 86.4309 41.6005C86.1709 41.6005 85.9392 41.5422 85.7359 41.4255C85.5359 41.3088 85.3792 41.1438 85.2659 40.9305C85.1525 40.7172 85.0959 40.4672 85.0959 40.1805ZM88.858 39.1905V40.8055C88.858 40.9388 88.8863 41.0338 88.943 41.0905C88.9996 41.1438 89.098 41.1705 89.238 41.1705H89.573V41.5555H89.163C88.9096 41.5555 88.7196 41.4972 88.593 41.3805C88.4663 41.2638 88.403 41.0722 88.403 40.8055V39.1905H88.048V38.8155H88.403V38.1255H88.858V38.8155H89.573V39.1905H88.858ZM95.8373 38.0705L94.8273 41.5555H94.3173L93.5073 38.7505L92.6673 41.5555L92.1623 41.5605L91.1873 38.0705H91.6723L92.4323 41.0255L93.2723 38.0705H93.7823L94.5823 41.0155L95.3473 38.0705H95.8373ZM96.5702 38.3705C96.4835 38.3705 96.4102 38.3405 96.3502 38.2805C96.2902 38.2205 96.2602 38.1472 96.2602 38.0605C96.2602 37.9738 96.2902 37.9005 96.3502 37.8405C96.4102 37.7805 96.4835 37.7505 96.5702 37.7505C96.6535 37.7505 96.7235 37.7805 96.7802 37.8405C96.8402 37.9005 96.8702 37.9738 96.8702 38.0605C96.8702 38.1472 96.8402 38.2205 96.7802 38.2805C96.7235 38.3405 96.6535 38.3705 96.5702 38.3705ZM96.7902 38.8155V41.5555H96.3352V38.8155H96.7902ZM98.0207 39.3205C98.1107 39.1638 98.244 39.0338 98.4207 38.9305C98.6007 38.8238 98.809 38.7705 99.0457 38.7705C99.289 38.7705 99.509 38.8288 99.7057 38.9455C99.9057 39.0622 100.062 39.2272 100.176 39.4405C100.289 39.6505 100.346 39.8955 100.346 40.1755C100.346 40.4522 100.289 40.6988 100.176 40.9155C100.062 41.1322 99.9057 41.3005 99.7057 41.4205C99.509 41.5405 99.289 41.6005 99.0457 41.6005C98.8123 41.6005 98.6057 41.5488 98.4257 41.4455C98.249 41.3388 98.114 41.2072 98.0207 41.0505V42.8555H97.5657V38.8155H98.0207V39.3205ZM99.8807 40.1755C99.8807 39.9688 99.839 39.7888 99.7557 39.6355C99.6723 39.4822 99.559 39.3655 99.4157 39.2855C99.2757 39.2055 99.1207 39.1655 98.9507 39.1655C98.784 39.1655 98.629 39.2072 98.4857 39.2905C98.3457 39.3705 98.2323 39.4888 98.1457 39.6455C98.0623 39.7988 98.0207 39.9772 98.0207 40.1805C98.0207 40.3872 98.0623 40.5688 98.1457 40.7255C98.2323 40.8788 98.3457 40.9972 98.4857 41.0805C98.629 41.1605 98.784 41.2005 98.9507 41.2005C99.1207 41.2005 99.2757 41.1605 99.4157 41.0805C99.559 40.9972 99.6723 40.8788 99.7557 40.7255C99.839 40.5688 99.8807 40.3855 99.8807 40.1755ZM103.445 40.0805C103.445 40.1672 103.44 40.2588 103.43 40.3555H101.24C101.256 40.6255 101.348 40.8372 101.515 40.9905C101.685 41.1405 101.89 41.2155 102.13 41.2155C102.326 41.2155 102.49 41.1705 102.62 41.0805C102.753 40.9872 102.846 40.8638 102.9 40.7105H103.39C103.316 40.9738 103.17 41.1888 102.95 41.3555C102.73 41.5188 102.456 41.6005 102.13 41.6005C101.87 41.6005 101.636 41.5422 101.43 41.4255C101.226 41.3088 101.066 41.1438 100.95 40.9305C100.833 40.7138 100.775 40.4638 100.775 40.1805C100.775 39.8972 100.831 39.6488 100.945 39.4355C101.058 39.2222 101.216 39.0588 101.42 38.9455C101.626 38.8288 101.863 38.7705 102.13 38.7705C102.39 38.7705 102.62 38.8272 102.82 38.9405C103.02 39.0538 103.173 39.2105 103.28 39.4105C103.39 39.6072 103.445 39.8305 103.445 40.0805ZM102.975 39.9855C102.975 39.8122 102.936 39.6638 102.86 39.5405C102.783 39.4138 102.678 39.3188 102.545 39.2555C102.415 39.1888 102.27 39.1555 102.11 39.1555C101.88 39.1555 101.683 39.2288 101.52 39.3755C101.36 39.5222 101.268 39.7255 101.245 39.9855H102.975ZM107.438 40.7805H105.918L105.638 41.5555H105.158L106.418 38.0905H106.943L108.198 41.5555H107.718L107.438 40.7805ZM107.308 40.4105L106.678 38.6505L106.048 40.4105H107.308ZM111.177 38.8155V41.5555H110.722V41.1505C110.636 41.2905 110.514 41.4005 110.357 41.4805C110.204 41.5572 110.034 41.5955 109.847 41.5955C109.634 41.5955 109.442 41.5522 109.272 41.4655C109.102 41.3755 108.967 41.2422 108.867 41.0655C108.771 40.8888 108.722 40.6738 108.722 40.4205V38.8155H109.172V40.3605C109.172 40.6305 109.241 40.8388 109.377 40.9855C109.514 41.1288 109.701 41.2005 109.937 41.2005C110.181 41.2005 110.372 41.1255 110.512 40.9755C110.652 40.8255 110.722 40.6072 110.722 40.3205V38.8155H111.177ZM112.501 39.1905V40.8055C112.501 40.9388 112.529 41.0338 112.586 41.0905C112.642 41.1438 112.741 41.1705 112.881 41.1705H113.216V41.5555H112.806C112.552 41.5555 112.362 41.4972 112.236 41.3805C112.109 41.2638 112.046 41.0722 112.046 40.8055V39.1905H111.691V38.8155H112.046V38.1255H112.501V38.8155H113.216V39.1905H112.501ZM115.127 38.7655C115.334 38.7655 115.52 38.8105 115.687 38.9005C115.854 38.9872 115.984 39.1188 116.077 39.2955C116.174 39.4722 116.222 39.6872 116.222 39.9405V41.5555H115.772V40.0055C115.772 39.7322 115.704 39.5238 115.567 39.3805C115.43 39.2338 115.244 39.1605 115.007 39.1605C114.767 39.1605 114.575 39.2355 114.432 39.3855C114.292 39.5355 114.222 39.7538 114.222 40.0405V41.5555H113.767V37.8555H114.222V39.2055C114.312 39.0655 114.435 38.9572 114.592 38.8805C114.752 38.8038 114.93 38.7655 115.127 38.7655ZM120.443 38.0705V38.4405H119.493V41.5555H119.038V38.4405H118.083V38.0705H120.443ZM122.198 41.6005C121.941 41.6005 121.708 41.5422 121.498 41.4255C121.291 41.3088 121.128 41.1438 121.008 40.9305C120.891 40.7138 120.833 40.4638 120.833 40.1805C120.833 39.9005 120.893 39.6538 121.013 39.4405C121.136 39.2238 121.303 39.0588 121.513 38.9455C121.723 38.8288 121.958 38.7705 122.218 38.7705C122.478 38.7705 122.713 38.8288 122.923 38.9455C123.133 39.0588 123.298 39.2222 123.418 39.4355C123.541 39.6488 123.603 39.8972 123.603 40.1805C123.603 40.4638 123.54 40.7138 123.413 40.9305C123.29 41.1438 123.121 41.3088 122.908 41.4255C122.695 41.5422 122.458 41.6005 122.198 41.6005ZM122.198 41.2005C122.361 41.2005 122.515 41.1622 122.658 41.0855C122.801 41.0088 122.916 40.8938 123.003 40.7405C123.093 40.5872 123.138 40.4005 123.138 40.1805C123.138 39.9605 123.095 39.7738 123.008 39.6205C122.921 39.4672 122.808 39.3538 122.668 39.2805C122.528 39.2038 122.376 39.1655 122.213 39.1655C122.046 39.1655 121.893 39.2038 121.753 39.2805C121.616 39.3538 121.506 39.4672 121.423 39.6205C121.34 39.7738 121.298 39.9605 121.298 40.1805C121.298 40.4038 121.338 40.5922 121.418 40.7455C121.501 40.8988 121.611 41.0138 121.748 41.0905C121.885 41.1638 122.035 41.2005 122.198 41.2005ZM125.731 41.5555L124.656 40.3455V41.5555H124.201V37.8555H124.656V40.0305L125.711 38.8155H126.346L125.056 40.1805L126.351 41.5555H125.731ZM129.275 40.0805C129.275 40.1672 129.27 40.2588 129.26 40.3555H127.07C127.086 40.6255 127.178 40.8372 127.345 40.9905C127.515 41.1405 127.72 41.2155 127.96 41.2155C128.156 41.2155 128.32 41.1705 128.45 41.0805C128.583 40.9872 128.676 40.8638 128.73 40.7105H129.22C129.146 40.9738 129 41.1888 128.78 41.3555C128.56 41.5188 128.286 41.6005 127.96 41.6005C127.7 41.6005 127.466 41.5422 127.26 41.4255C127.056 41.3088 126.896 41.1438 126.78 40.9305C126.663 40.7138 126.605 40.4638 126.605 40.1805C126.605 39.8972 126.661 39.6488 126.775 39.4355C126.888 39.2222 127.046 39.0588 127.25 38.9455C127.456 38.8288 127.693 38.7705 127.96 38.7705C128.22 38.7705 128.45 38.8272 128.65 38.9405C128.85 39.0538 129.003 39.2105 129.11 39.4105C129.22 39.6072 129.275 39.8305 129.275 40.0805ZM128.805 39.9855C128.805 39.8122 128.766 39.6638 128.69 39.5405C128.613 39.4138 128.508 39.3188 128.375 39.2555C128.245 39.1888 128.1 39.1555 127.94 39.1555C127.71 39.1555 127.513 39.2288 127.35 39.3755C127.19 39.5222 127.098 39.7255 127.075 39.9855H128.805ZM131.21 38.7655C131.544 38.7655 131.814 38.8672 132.02 39.0705C132.227 39.2705 132.33 39.5605 132.33 39.9405V41.5555H131.88V40.0055C131.88 39.7322 131.812 39.5238 131.675 39.3805C131.539 39.2338 131.352 39.1605 131.115 39.1605C130.875 39.1605 130.684 39.2355 130.54 39.3855C130.4 39.5355 130.33 39.7538 130.33 40.0405V41.5555H129.875V38.8155H130.33V39.2055C130.42 39.0655 130.542 38.9572 130.695 38.8805C130.852 38.8038 131.024 38.7655 131.21 38.7655Z" fill="#62626A"/>
<path d="M72.28 49.4285V48.9455L74.737 45.5435H75.5V48.8755H76.2V49.4285H75.5V50.5555H74.87V49.4285H72.28ZM74.898 46.2085L73.015 48.8755H74.898V46.2085ZM77.7603 47.9235C77.499 47.8208 77.2983 47.6715 77.1583 47.4755C77.0183 47.2795 76.9483 47.0415 76.9483 46.7615C76.9483 46.5095 77.0113 46.2832 77.1373 46.0825C77.2633 45.8772 77.45 45.7162 77.6973 45.5995C77.9493 45.4782 78.2527 45.4175 78.6073 45.4175C78.962 45.4175 79.263 45.4782 79.5103 45.5995C79.7623 45.7162 79.9513 45.8772 80.0773 46.0825C80.208 46.2832 80.2733 46.5095 80.2733 46.7615C80.2733 47.0322 80.201 47.2702 80.0563 47.4755C79.9117 47.6762 79.7133 47.8255 79.4613 47.9235C79.7507 48.0122 79.9793 48.1685 80.1473 48.3925C80.32 48.6118 80.4063 48.8778 80.4063 49.1905C80.4063 49.4938 80.3317 49.7598 80.1823 49.9885C80.033 50.2125 79.8207 50.3875 79.5453 50.5135C79.2747 50.6348 78.962 50.6955 78.6073 50.6955C78.2527 50.6955 77.94 50.6348 77.6693 50.5135C77.4033 50.3875 77.1957 50.2125 77.0463 49.9885C76.897 49.7598 76.8223 49.4938 76.8223 49.1905C76.8223 48.8778 76.9063 48.6095 77.0743 48.3855C77.2423 48.1615 77.471 48.0075 77.7603 47.9235ZM79.6573 46.8385C79.6573 46.5538 79.564 46.3345 79.3773 46.1805C79.1907 46.0265 78.934 45.9495 78.6073 45.9495C78.2853 45.9495 78.031 46.0265 77.8443 46.1805C77.6577 46.3345 77.5643 46.5562 77.5643 46.8455C77.5643 47.1068 77.66 47.3168 77.8513 47.4755C78.0473 47.6342 78.2993 47.7135 78.6073 47.7135C78.92 47.7135 79.172 47.6342 79.3633 47.4755C79.5593 47.3122 79.6573 47.0998 79.6573 46.8385ZM78.6073 48.2035C78.262 48.2035 77.9797 48.2852 77.7603 48.4485C77.541 48.6072 77.4313 48.8475 77.4313 49.1695C77.4313 49.4682 77.5363 49.7085 77.7463 49.8905C77.961 50.0725 78.248 50.1635 78.6073 50.1635C78.9667 50.1635 79.2513 50.0725 79.4613 49.8905C79.6713 49.7085 79.7763 49.4682 79.7763 49.1695C79.7763 48.8568 79.669 48.6188 79.4543 48.4555C79.2397 48.2875 78.9573 48.2035 78.6073 48.2035ZM84.3674 45.9915L82.4214 50.5555H81.7774L83.7514 46.0545H81.0494V45.5085H84.3674V45.9915ZM85.8156 45.6765V50.5555H85.1786V45.6765H85.8156ZM89.3583 45.6765V49.2815C89.3583 49.6828 89.2346 50.0048 88.9873 50.2475C88.74 50.4855 88.4133 50.6045 88.0073 50.6045C87.5966 50.6045 87.2676 50.4832 87.0203 50.2405C86.773 49.9932 86.6493 49.6572 86.6493 49.2325H87.2863C87.291 49.4705 87.3516 49.6642 87.4683 49.8135C87.5896 49.9628 87.7693 50.0375 88.0073 50.0375C88.2453 50.0375 88.4226 49.9675 88.5393 49.8275C88.656 49.6828 88.7143 49.5008 88.7143 49.2815V45.6765H89.3583ZM90.3402 46.0755V45.4945H91.6562V50.5555H91.0122V46.0755H90.3402ZM92.6734 50.0445C93.2661 49.5685 93.7304 49.1788 94.0664 48.8755C94.4024 48.5675 94.6847 48.2478 94.9134 47.9165C95.1467 47.5805 95.2634 47.2515 95.2634 46.9295C95.2634 46.6262 95.1887 46.3882 95.0394 46.2155C94.8947 46.0382 94.6591 45.9495 94.3324 45.9495C94.0151 45.9495 93.7677 46.0498 93.5904 46.2505C93.4177 46.4465 93.3244 46.7102 93.3104 47.0415H92.6944C92.7131 46.5188 92.8717 46.1152 93.1704 45.8305C93.4691 45.5458 93.8541 45.4035 94.3254 45.4035C94.8061 45.4035 95.1864 45.5365 95.4664 45.8025C95.7511 46.0685 95.8934 46.4348 95.8934 46.9015C95.8934 47.2888 95.7767 47.6668 95.5434 48.0355C95.3147 48.3995 95.0534 48.7215 94.7594 49.0015C94.4654 49.2768 94.0897 49.5988 93.6324 49.9675H96.0404V50.4995H92.6734V50.0445ZM96.6228 49.4285V48.9455L99.0798 45.5435H99.8428V48.8755H100.543V49.4285H99.8428V50.5555H99.2128V49.4285H96.6228ZM99.2408 46.2085L97.3578 48.8755H99.2408V46.2085ZM101.921 45.6765V50.5555H101.284V45.6765H101.921ZM103.644 50.0375H105.352V50.5555H103.007V45.6765H103.644V50.0375ZM107.701 50.6185C107.342 50.6185 107.015 50.5368 106.721 50.3735C106.432 50.2102 106.203 49.9792 106.035 49.6805C105.872 49.3772 105.79 49.0272 105.79 48.6305C105.79 48.2385 105.874 47.8932 106.042 47.5945C106.215 47.2912 106.448 47.0602 106.742 46.9015C107.036 46.7382 107.365 46.6565 107.729 46.6565C108.093 46.6565 108.422 46.7382 108.716 46.9015C109.01 47.0602 109.241 47.2888 109.409 47.5875C109.582 47.8862 109.668 48.2338 109.668 48.6305C109.668 49.0272 109.58 49.3772 109.402 49.6805C109.23 49.9792 108.994 50.2102 108.695 50.3735C108.397 50.5368 108.065 50.6185 107.701 50.6185ZM107.701 50.0585C107.93 50.0585 108.145 50.0048 108.345 49.8975C108.546 49.7902 108.707 49.6292 108.828 49.4145C108.954 49.1998 109.017 48.9385 109.017 48.6305C109.017 48.3225 108.957 48.0612 108.835 47.8465C108.714 47.6318 108.555 47.4732 108.359 47.3705C108.163 47.2632 107.951 47.2095 107.722 47.2095C107.489 47.2095 107.274 47.2632 107.078 47.3705C106.887 47.4732 106.733 47.6318 106.616 47.8465C106.5 48.0612 106.441 48.3225 106.441 48.6305C106.441 48.9432 106.497 49.2068 106.609 49.4215C106.726 49.6362 106.88 49.7972 107.071 49.9045C107.263 50.0072 107.473 50.0585 107.701 50.0585ZM110.268 48.6235C110.268 48.2315 110.347 47.8885 110.506 47.5945C110.664 47.2958 110.881 47.0648 111.157 46.9015C111.437 46.7382 111.749 46.6565 112.095 46.6565C112.426 46.6565 112.715 46.7312 112.963 46.8805C113.215 47.0252 113.399 47.2048 113.516 47.4195V46.7195H114.16V52.3755H113.516V49.8485C113.394 50.0632 113.208 50.2452 112.956 50.3945C112.704 50.5438 112.41 50.6185 112.074 50.6185C111.738 50.6185 111.432 50.5345 111.157 50.3665C110.881 50.1985 110.664 49.9628 110.506 49.6595C110.347 49.3562 110.268 49.0108 110.268 48.6235ZM113.516 48.6305C113.516 48.3412 113.457 48.0892 113.341 47.8745C113.224 47.6598 113.065 47.4965 112.865 47.3845C112.669 47.2678 112.452 47.2095 112.214 47.2095C111.976 47.2095 111.759 47.2655 111.563 47.3775C111.367 47.4895 111.21 47.6528 111.094 47.8675C110.977 48.0822 110.919 48.3342 110.919 48.6235C110.919 48.9175 110.977 49.1742 111.094 49.3935C111.21 49.6082 111.367 49.7738 111.563 49.8905C111.759 50.0025 111.976 50.0585 112.214 50.0585C112.452 50.0585 112.669 50.0025 112.865 49.8905C113.065 49.7738 113.224 49.6082 113.341 49.3935C113.457 49.1742 113.516 48.9198 113.516 48.6305ZM115.565 46.0965C115.444 46.0965 115.341 46.0545 115.257 45.9705C115.173 45.8865 115.131 45.7838 115.131 45.6625C115.131 45.5412 115.173 45.4385 115.257 45.3545C115.341 45.2705 115.444 45.2285 115.565 45.2285C115.682 45.2285 115.78 45.2705 115.859 45.3545C115.943 45.4385 115.985 45.5412 115.985 45.6625C115.985 45.7838 115.943 45.8865 115.859 45.9705C115.78 46.0545 115.682 46.0965 115.565 46.0965ZM115.873 46.7195V50.5555H115.236V46.7195H115.873ZM118.387 49.9675L119.577 46.7195H120.256L118.751 50.5555H118.009L116.504 46.7195H117.19L118.387 49.9675ZM120.645 48.6235C120.645 48.2315 120.724 47.8885 120.883 47.5945C121.041 47.2958 121.258 47.0648 121.534 46.9015C121.814 46.7382 122.124 46.6565 122.465 46.6565C122.801 46.6565 123.092 46.7288 123.34 46.8735C123.587 47.0182 123.771 47.2002 123.893 47.4195V46.7195H124.537V50.5555H123.893V49.8415C123.767 50.0655 123.578 50.2522 123.326 50.4015C123.078 50.5462 122.789 50.6185 122.458 50.6185C122.117 50.6185 121.809 50.5345 121.534 50.3665C121.258 50.1985 121.041 49.9628 120.883 49.6595C120.724 49.3562 120.645 49.0108 120.645 48.6235ZM123.893 48.6305C123.893 48.3412 123.834 48.0892 123.718 47.8745C123.601 47.6598 123.442 47.4965 123.242 47.3845C123.046 47.2678 122.829 47.2095 122.591 47.2095C122.353 47.2095 122.136 47.2655 121.94 47.3775C121.744 47.4895 121.587 47.6528 121.471 47.8675C121.354 48.0822 121.296 48.3342 121.296 48.6235C121.296 48.9175 121.354 49.1742 121.471 49.3935C121.587 49.6082 121.744 49.7738 121.94 49.8905C122.136 50.0025 122.353 50.0585 122.591 50.0585C122.829 50.0585 123.046 50.0025 123.242 49.8905C123.442 49.7738 123.601 49.6082 123.718 49.3935C123.834 49.1742 123.893 48.9198 123.893 48.6305ZM127.286 50.6185C126.927 50.6185 126.6 50.5368 126.306 50.3735C126.017 50.2102 125.788 49.9792 125.62 49.6805C125.457 49.3772 125.375 49.0272 125.375 48.6305C125.375 48.2385 125.459 47.8932 125.627 47.5945C125.8 47.2912 126.033 47.0602 126.327 46.9015C126.621 46.7382 126.95 46.6565 127.314 46.6565C127.678 46.6565 128.007 46.7382 128.301 46.9015C128.595 47.0602 128.826 47.2888 128.994 47.5875C129.167 47.8862 129.253 48.2338 129.253 48.6305C129.253 49.0272 129.165 49.3772 128.987 49.6805C128.815 49.9792 128.579 50.2102 128.28 50.3735C127.982 50.5368 127.65 50.6185 127.286 50.6185ZM127.286 50.0585C127.515 50.0585 127.73 50.0048 127.93 49.8975C128.131 49.7902 128.292 49.6292 128.413 49.4145C128.539 49.1998 128.602 48.9385 128.602 48.6305C128.602 48.3225 128.542 48.0612 128.42 47.8465C128.299 47.6318 128.14 47.4732 127.944 47.3705C127.748 47.2632 127.536 47.2095 127.307 47.2095C127.074 47.2095 126.859 47.2632 126.663 47.3705C126.472 47.4732 126.318 47.6318 126.201 47.8465C126.085 48.0612 126.026 48.3225 126.026 48.6305C126.026 48.9432 126.082 49.2068 126.194 49.4215C126.311 49.6362 126.465 49.7972 126.656 49.9045C126.848 50.0072 127.058 50.0585 127.286 50.0585ZM129.853 48.6235C129.853 48.2315 129.932 47.8885 130.091 47.5945C130.249 47.2958 130.466 47.0648 130.742 46.9015C131.022 46.7382 131.334 46.6565 131.68 46.6565C132.011 46.6565 132.3 46.7312 132.548 46.8805C132.8 47.0252 132.984 47.2048 133.101 47.4195V46.7195H133.745V52.3755H133.101V49.8485C132.979 50.0632 132.793 50.2452 132.541 50.3945C132.289 50.5438 131.995 50.6185 131.659 50.6185C131.323 50.6185 131.017 50.5345 130.742 50.3665C130.466 50.1985 130.249 49.9628 130.091 49.6595C129.932 49.3562 129.853 49.0108 129.853 48.6235ZM133.101 48.6305C133.101 48.3412 133.042 48.0892 132.926 47.8745C132.809 47.6598 132.65 47.4965 132.45 47.3845C132.254 47.2678 132.037 47.2095 131.799 47.2095C131.561 47.2095 131.344 47.2655 131.148 47.3775C130.952 47.4895 130.795 47.6528 130.679 47.8675C130.562 48.0822 130.504 48.3342 130.504 48.6235C130.504 48.9175 130.562 49.1742 130.679 49.3935C130.795 49.6082 130.952 49.7738 131.148 49.8905C131.344 50.0025 131.561 50.0585 131.799 50.0585C132.037 50.0585 132.254 50.0025 132.45 49.8905C132.65 49.7738 132.809 49.6082 132.926 49.3935C133.042 49.1742 133.101 48.9198 133.101 48.6305ZM136.963 50.5555L135.458 48.8615V50.5555H134.821V45.3755H135.458V48.4205L136.935 46.7195H137.824L136.018 48.6305L137.831 50.5555H136.963ZM139.061 47.4265C139.187 47.2072 139.373 47.0252 139.621 46.8805C139.873 46.7312 140.164 46.6565 140.496 46.6565C140.836 46.6565 141.144 46.7382 141.42 46.9015C141.7 47.0648 141.919 47.2958 142.078 47.5945C142.236 47.8885 142.316 48.2315 142.316 48.6235C142.316 49.0108 142.236 49.3562 142.078 49.6595C141.919 49.9628 141.7 50.1985 141.42 50.3665C141.144 50.5345 140.836 50.6185 140.496 50.6185C140.169 50.6185 139.88 50.5462 139.628 50.4015C139.38 50.2522 139.191 50.0678 139.061 49.8485V52.3755H138.424V46.7195H139.061V47.4265ZM141.665 48.6235C141.665 48.3342 141.606 48.0822 141.49 47.8675C141.373 47.6528 141.214 47.4895 141.014 47.3775C140.818 47.2655 140.601 47.2095 140.363 47.2095C140.129 47.2095 139.912 47.2678 139.712 47.3845C139.516 47.4965 139.357 47.6622 139.236 47.8815C139.119 48.0962 139.061 48.3458 139.061 48.6305C139.061 48.9198 139.119 49.1742 139.236 49.3935C139.357 49.6082 139.516 49.7738 139.712 49.8905C139.912 50.0025 140.129 50.0585 140.363 50.0585C140.601 50.0585 140.818 50.0025 141.014 49.8905C141.214 49.7738 141.373 49.6082 141.49 49.3935C141.606 49.1742 141.665 48.9175 141.665 48.6235ZM143.483 46.0965C143.362 46.0965 143.259 46.0545 143.175 45.9705C143.091 45.8865 143.049 45.7838 143.049 45.6625C143.049 45.5412 143.091 45.4385 143.175 45.3545C143.259 45.2705 143.362 45.2285 143.483 45.2285C143.6 45.2285 143.698 45.2705 143.777 45.3545C143.861 45.4385 143.903 45.5412 143.903 45.6625C143.903 45.7838 143.861 45.8865 143.777 45.9705C143.698 46.0545 143.6 46.0965 143.483 46.0965ZM143.791 46.7195V50.5555H143.154V46.7195H143.791Z" fill="#0B0C19"/>
<rect x="60" y="70.5555" width="160" height="24" rx="12" fill="#2761FC"/>
<path d="M120.479 83.6245H118.533L118.211 84.5555H117.182L118.939 79.6625H120.08L121.837 84.5555H120.801L120.479 83.6245ZM120.213 82.8405L119.506 80.7965L118.799 82.8405H120.213ZM122.242 82.6025C122.242 82.2105 122.319 81.8628 122.473 81.5595C122.631 81.2561 122.846 81.0228 123.117 80.8595C123.387 80.6961 123.688 80.6145 124.02 80.6145C124.272 80.6145 124.512 80.6705 124.741 80.7825C124.969 80.8898 125.151 81.0345 125.287 81.2165V79.3755H126.281V84.5555H125.287V83.9815C125.165 84.1728 124.995 84.3268 124.776 84.4435C124.556 84.5601 124.302 84.6185 124.013 84.6185C123.686 84.6185 123.387 84.5345 123.117 84.3665C122.846 84.1985 122.631 83.9628 122.473 83.6595C122.319 83.3515 122.242 82.9991 122.242 82.6025ZM125.294 82.6165C125.294 82.3785 125.247 82.1755 125.154 82.0075C125.06 81.8348 124.934 81.7041 124.776 81.6155C124.617 81.5221 124.447 81.4755 124.265 81.4755C124.083 81.4755 123.915 81.5198 123.761 81.6085C123.607 81.6971 123.481 81.8278 123.383 82.0005C123.289 82.1685 123.243 82.3691 123.243 82.6025C123.243 82.8358 123.289 83.0411 123.383 83.2185C123.481 83.3911 123.607 83.5241 123.761 83.6175C123.919 83.7108 124.087 83.7575 124.265 83.7575C124.447 83.7575 124.617 83.7131 124.776 83.6245C124.934 83.5311 125.06 83.4005 125.154 83.2325C125.247 83.0598 125.294 82.8545 125.294 82.6165ZM126.986 82.6025C126.986 82.2105 127.063 81.8628 127.217 81.5595C127.376 81.2561 127.59 81.0228 127.861 80.8595C128.132 80.6961 128.433 80.6145 128.764 80.6145C129.016 80.6145 129.256 80.6705 129.485 80.7825C129.714 80.8898 129.896 81.0345 130.031 81.2165V79.3755H131.025V84.5555H130.031V83.9815C129.91 84.1728 129.739 84.3268 129.52 84.4435C129.301 84.5601 129.046 84.6185 128.757 84.6185C128.43 84.6185 128.132 84.5345 127.861 84.3665C127.59 84.1985 127.376 83.9628 127.217 83.6595C127.063 83.3515 126.986 82.9991 126.986 82.6025ZM130.038 82.6165C130.038 82.3785 129.991 82.1755 129.898 82.0075C129.805 81.8348 129.679 81.7041 129.52 81.6155C129.361 81.5221 129.191 81.4755 129.009 81.4755C128.827 81.4755 128.659 81.5198 128.505 81.6085C128.351 81.6971 128.225 81.8278 128.127 82.0005C128.034 82.1685 127.987 82.3691 127.987 82.6025C127.987 82.8358 128.034 83.0411 128.127 83.2185C128.225 83.3911 128.351 83.5241 128.505 83.6175C128.664 83.7108 128.832 83.7575 129.009 83.7575C129.191 83.7575 129.361 83.7131 129.52 83.6245C129.679 83.5311 129.805 83.4005 129.898 83.2325C129.991 83.0598 130.038 82.8545 130.038 82.6165ZM133.412 82.1055C133.412 81.6248 133.519 81.1955 133.734 80.8175C133.953 80.4348 134.25 80.1385 134.623 79.9285C135.001 79.7138 135.423 79.6065 135.89 79.6065C136.436 79.6065 136.914 79.7465 137.325 80.0265C137.736 80.3065 138.023 80.6938 138.186 81.1885H137.059C136.947 80.9551 136.788 80.7801 136.583 80.6635C136.382 80.5468 136.149 80.4885 135.883 80.4885C135.598 80.4885 135.344 80.5561 135.12 80.6915C134.901 80.8221 134.728 81.0088 134.602 81.2515C134.481 81.4941 134.42 81.7788 134.42 82.1055C134.42 82.4275 134.481 82.7121 134.602 82.9595C134.728 83.2021 134.901 83.3911 135.12 83.5265C135.344 83.6571 135.598 83.7225 135.883 83.7225C136.149 83.7225 136.382 83.6641 136.583 83.5475C136.788 83.4261 136.947 83.2488 137.059 83.0155H138.186C138.023 83.5148 137.736 83.9045 137.325 84.1845C136.919 84.4598 136.441 84.5975 135.89 84.5975C135.423 84.5975 135.001 84.4925 134.623 84.2825C134.25 84.0678 133.953 83.7715 133.734 83.3935C133.519 83.0155 133.412 82.5861 133.412 82.1055ZM140.745 84.6185C140.372 84.6185 140.036 84.5368 139.737 84.3735C139.438 84.2055 139.203 83.9698 139.03 83.6665C138.862 83.3631 138.778 83.0131 138.778 82.6165C138.778 82.2198 138.864 81.8698 139.037 81.5665C139.214 81.2631 139.455 81.0298 139.758 80.8665C140.061 80.6985 140.4 80.6145 140.773 80.6145C141.146 80.6145 141.485 80.6985 141.788 80.8665C142.091 81.0298 142.329 81.2631 142.502 81.5665C142.679 81.8698 142.768 82.2198 142.768 82.6165C142.768 83.0131 142.677 83.3631 142.495 83.6665C142.318 83.9698 142.075 84.2055 141.767 84.3735C141.464 84.5368 141.123 84.6185 140.745 84.6185ZM140.745 83.7645C140.922 83.7645 141.088 83.7225 141.242 83.6385C141.401 83.5498 141.527 83.4191 141.62 83.2465C141.713 83.0738 141.76 82.8638 141.76 82.6165C141.76 82.2478 141.662 81.9655 141.466 81.7695C141.275 81.5688 141.039 81.4685 140.759 81.4685C140.479 81.4685 140.243 81.5688 140.052 81.7695C139.865 81.9655 139.772 82.2478 139.772 82.6165C139.772 82.9851 139.863 83.2698 140.045 83.4705C140.232 83.6665 140.465 83.7645 140.745 83.7645ZM145.636 80.6215C146.098 80.6215 146.471 80.7685 146.756 81.0625C147.041 81.3518 147.183 81.7578 147.183 82.2805V84.5555H146.203V82.4135C146.203 82.1055 146.126 81.8698 145.972 81.7065C145.818 81.5385 145.608 81.4545 145.342 81.4545C145.071 81.4545 144.857 81.5385 144.698 81.7065C144.544 81.8698 144.467 82.1055 144.467 82.4135V84.5555H143.487V80.6775H144.467V81.1605C144.598 80.9925 144.763 80.8618 144.964 80.7685C145.169 80.6705 145.393 80.6215 145.636 80.6215ZM149.256 81.4825V83.3585C149.256 83.4891 149.286 83.5848 149.347 83.6455C149.412 83.7015 149.52 83.7295 149.669 83.7295H150.124V84.5555H149.508C148.682 84.5555 148.269 84.1541 148.269 83.3515V81.4825H147.807V80.6775H148.269V79.7185H149.256V80.6775H150.124V81.4825H149.256ZM150.577 82.6025C150.577 82.2105 150.654 81.8628 150.808 81.5595C150.966 81.2561 151.179 81.0228 151.445 80.8595C151.715 80.6961 152.016 80.6145 152.348 80.6145C152.637 80.6145 152.889 80.6728 153.104 80.7895C153.323 80.9061 153.498 81.0531 153.629 81.2305V80.6775H154.616V84.5555H153.629V83.9885C153.503 84.1705 153.328 84.3221 153.104 84.4435C152.884 84.5601 152.63 84.6185 152.341 84.6185C152.014 84.6185 151.715 84.5345 151.445 84.3665C151.179 84.1985 150.966 83.9628 150.808 83.6595C150.654 83.3515 150.577 82.9991 150.577 82.6025ZM153.629 82.6165C153.629 82.3785 153.582 82.1755 153.489 82.0075C153.395 81.8348 153.269 81.7041 153.111 81.6155C152.952 81.5221 152.782 81.4755 152.6 81.4755C152.418 81.4755 152.25 81.5198 152.096 81.6085C151.942 81.6971 151.816 81.8278 151.718 82.0005C151.624 82.1685 151.578 82.3691 151.578 82.6025C151.578 82.8358 151.624 83.0411 151.718 83.2185C151.816 83.3911 151.942 83.5241 152.096 83.6175C152.254 83.7108 152.422 83.7575 152.6 83.7575C152.782 83.7575 152.952 83.7131 153.111 83.6245C153.269 83.5311 153.395 83.4005 153.489 83.2325C153.582 83.0598 153.629 82.8545 153.629 82.6165ZM155.321 82.6165C155.321 82.2151 155.403 81.8651 155.566 81.5665C155.729 81.2631 155.956 81.0298 156.245 80.8665C156.534 80.6985 156.866 80.6145 157.239 80.6145C157.72 80.6145 158.116 80.7358 158.429 80.9785C158.746 81.2165 158.959 81.5525 159.066 81.9865H158.009C157.953 81.8185 157.857 81.6878 157.722 81.5945C157.591 81.4965 157.428 81.4475 157.232 81.4475C156.952 81.4475 156.73 81.5501 156.567 81.7555C156.404 81.9561 156.322 82.2431 156.322 82.6165C156.322 82.9851 156.404 83.2721 156.567 83.4775C156.73 83.6781 156.952 83.7785 157.232 83.7785C157.629 83.7785 157.888 83.6011 158.009 83.2465H159.066C158.959 83.6665 158.746 84.0001 158.429 84.2475C158.112 84.4948 157.715 84.6185 157.239 84.6185C156.866 84.6185 156.534 84.5368 156.245 84.3735C155.956 84.2055 155.729 83.9721 155.566 83.6735C155.403 83.3701 155.321 83.0178 155.321 82.6165ZM160.925 81.4825V83.3585C160.925 83.4891 160.955 83.5848 161.016 83.6455C161.081 83.7015 161.188 83.7295 161.338 83.7295H161.793V84.5555H161.177C160.351 84.5555 159.938 84.1541 159.938 83.3515V81.4825H159.476V80.6775H159.938V79.7185H160.925V80.6775H161.793V81.4825H160.925Z" fill="white"/>
<g clip-path="url(#clip2_1_702)">
<path d="M66.4226 110.123H60.7386V114.485L62.2689 118.807L66.4226 120.988L70.5763 118.807L72.1066 114.485V110.123H66.4226Z" fill="#4364FA"/>
<path d="M70.3865 110.123L67.6545 113.189L70.8062 113.146L62.2689 118.807L66.1001 114.484H62.9484L66.8341 110.123H70.3865Z" fill="white"/>
<path d="M70.3865 110.123L67.6545 113.189L70.8062 113.146L62.2689 118.807L66.1001 114.484H62.9484L66.8341 110.123H70.3865Z" fill="white"/>
</g>
<path d="M78.934 112.626H77.11L76.774 113.556H76.198L77.71 109.398H78.34L79.846 113.556H79.27L78.934 112.626ZM78.778 112.182L78.022 110.07L77.266 112.182H78.778ZM81.9006 111.462C81.9006 111.054 81.9926 110.688 82.1766 110.364C82.3606 110.036 82.6106 109.78 82.9266 109.596C83.2466 109.412 83.6006 109.32 83.9886 109.32C84.4446 109.32 84.8426 109.43 85.1826 109.65C85.5226 109.87 85.7706 110.182 85.9266 110.586H85.2726C85.1566 110.334 84.9886 110.14 84.7686 110.004C84.5526 109.868 84.2926 109.8 83.9886 109.8C83.6966 109.8 83.4346 109.868 83.2026 110.004C82.9706 110.14 82.7886 110.334 82.6566 110.586C82.5246 110.834 82.4586 111.126 82.4586 111.462C82.4586 111.794 82.5246 112.086 82.6566 112.338C82.7886 112.586 82.9706 112.778 83.2026 112.914C83.4346 113.05 83.6966 113.118 83.9886 113.118C84.2926 113.118 84.5526 113.052 84.7686 112.92C84.9886 112.784 85.1566 112.59 85.2726 112.338H85.9266C85.7706 112.738 85.5226 113.048 85.1826 113.268C84.8426 113.484 84.4446 113.592 83.9886 113.592C83.6006 113.592 83.2466 113.502 82.9266 113.322C82.6106 113.138 82.3606 112.884 82.1766 112.56C81.9926 112.236 81.9006 111.87 81.9006 111.462ZM88.1733 113.61C87.8653 113.61 87.5853 113.54 87.3333 113.4C87.0853 113.26 86.8893 113.062 86.7453 112.806C86.6053 112.546 86.5353 112.246 86.5353 111.906C86.5353 111.57 86.6073 111.274 86.7513 111.018C86.8993 110.758 87.0993 110.56 87.3513 110.424C87.6033 110.284 87.8853 110.214 88.1973 110.214C88.5093 110.214 88.7913 110.284 89.0433 110.424C89.2953 110.56 89.4933 110.756 89.6373 111.012C89.7853 111.268 89.8593 111.566 89.8593 111.906C89.8593 112.246 89.7833 112.546 89.6313 112.806C89.4833 113.062 89.2813 113.26 89.0253 113.4C88.7693 113.54 88.4853 113.61 88.1733 113.61ZM88.1733 113.13C88.3693 113.13 88.5533 113.084 88.7253 112.992C88.8973 112.9 89.0353 112.762 89.1393 112.578C89.2473 112.394 89.3013 112.17 89.3013 111.906C89.3013 111.642 89.2493 111.418 89.1453 111.234C89.0413 111.05 88.9053 110.914 88.7373 110.826C88.5693 110.734 88.3873 110.688 88.1913 110.688C87.9913 110.688 87.8073 110.734 87.6393 110.826C87.4753 110.914 87.3433 111.05 87.2433 111.234C87.1433 111.418 87.0933 111.642 87.0933 111.906C87.0933 112.174 87.1413 112.4 87.2373 112.584C87.3373 112.768 87.4693 112.906 87.6333 112.998C87.7973 113.086 87.9773 113.13 88.1733 113.13ZM92.1792 110.208C92.5792 110.208 92.9032 110.33 93.1512 110.574C93.3992 110.814 93.5232 111.162 93.5232 111.618V113.556H92.9832V111.696C92.9832 111.368 92.9012 111.118 92.7372 110.946C92.5732 110.77 92.3492 110.682 92.0652 110.682C91.7772 110.682 91.5472 110.772 91.3752 110.952C91.2072 111.132 91.1232 111.394 91.1232 111.738V113.556H90.5772V110.268H91.1232V110.736C91.2312 110.568 91.3772 110.438 91.5612 110.346C91.7492 110.254 91.9552 110.208 92.1792 110.208ZM95.0811 110.718V112.656C95.0811 112.816 95.1151 112.93 95.1831 112.998C95.2511 113.062 95.3691 113.094 95.5371 113.094H95.9391V113.556H95.4471C95.1431 113.556 94.9151 113.486 94.7631 113.346C94.6111 113.206 94.5351 112.976 94.5351 112.656V110.718H94.1091V110.268H94.5351V109.44H95.0811V110.268H95.9391V110.718H95.0811ZM96.3967 111.9C96.3967 111.564 96.4647 111.27 96.6007 111.018C96.7367 110.762 96.9227 110.564 97.1587 110.424C97.3987 110.284 97.6647 110.214 97.9567 110.214C98.2447 110.214 98.4947 110.276 98.7067 110.4C98.9187 110.524 99.0767 110.68 99.1807 110.868V110.268H99.7327V113.556H99.1807V112.944C99.0727 113.136 98.9107 113.296 98.6947 113.424C98.4827 113.548 98.2347 113.61 97.9507 113.61C97.6587 113.61 97.3947 113.538 97.1587 113.394C96.9227 113.25 96.7367 113.048 96.6007 112.788C96.4647 112.528 96.3967 112.232 96.3967 111.9ZM99.1807 111.906C99.1807 111.658 99.1307 111.442 99.0307 111.258C98.9307 111.074 98.7947 110.934 98.6227 110.838C98.4547 110.738 98.2687 110.688 98.0647 110.688C97.8607 110.688 97.6747 110.736 97.5067 110.832C97.3387 110.928 97.2047 111.068 97.1047 111.252C97.0047 111.436 96.9547 111.652 96.9547 111.9C96.9547 112.152 97.0047 112.372 97.1047 112.56C97.2047 112.744 97.3387 112.886 97.5067 112.986C97.6747 113.082 97.8607 113.13 98.0647 113.13C98.2687 113.13 98.4547 113.082 98.6227 112.986C98.7947 112.886 98.9307 112.744 99.0307 112.56C99.1307 112.372 99.1807 112.154 99.1807 111.906ZM100.451 111.906C100.451 111.566 100.519 111.27 100.655 111.018C100.791 110.762 100.979 110.564 101.219 110.424C101.463 110.284 101.741 110.214 102.053 110.214C102.457 110.214 102.789 110.312 103.049 110.508C103.313 110.704 103.487 110.976 103.571 111.324H102.983C102.927 111.124 102.817 110.966 102.653 110.85C102.493 110.734 102.293 110.676 102.053 110.676C101.741 110.676 101.489 110.784 101.297 111C101.105 111.212 101.009 111.514 101.009 111.906C101.009 112.302 101.105 112.608 101.297 112.824C101.489 113.04 101.741 113.148 102.053 113.148C102.293 113.148 102.493 113.092 102.653 112.98C102.813 112.868 102.923 112.708 102.983 112.5H103.571C103.483 112.836 103.307 113.106 103.043 113.31C102.779 113.51 102.449 113.61 102.053 113.61C101.741 113.61 101.463 113.54 101.219 113.4C100.979 113.26 100.791 113.062 100.655 112.806C100.519 112.55 100.451 112.25 100.451 111.906ZM104.966 110.718V112.656C104.966 112.816 105 112.93 105.068 112.998C105.136 113.062 105.254 113.094 105.422 113.094H105.824V113.556H105.332C105.028 113.556 104.8 113.486 104.648 113.346C104.496 113.206 104.42 112.976 104.42 112.656V110.718H103.994V110.268H104.42V109.44H104.966V110.268H105.824V110.718H104.966ZM108.367 109.734C108.263 109.734 108.175 109.698 108.103 109.626C108.031 109.554 107.995 109.466 107.995 109.362C107.995 109.258 108.031 109.17 108.103 109.098C108.175 109.026 108.263 108.99 108.367 108.99C108.467 108.99 108.551 109.026 108.619 109.098C108.691 109.17 108.727 109.258 108.727 109.362C108.727 109.466 108.691 109.554 108.619 109.626C108.551 109.698 108.467 109.734 108.367 109.734ZM108.631 110.268V113.556H108.085V110.268H108.631ZM110.726 113.61C110.474 113.61 110.248 113.568 110.048 113.484C109.848 113.396 109.69 113.276 109.574 113.124C109.458 112.968 109.394 112.79 109.382 112.59H109.946C109.962 112.754 110.038 112.888 110.174 112.992C110.314 113.096 110.496 113.148 110.72 113.148C110.928 113.148 111.092 113.102 111.212 113.01C111.332 112.918 111.392 112.802 111.392 112.662C111.392 112.518 111.328 112.412 111.2 112.344C111.072 112.272 110.874 112.202 110.606 112.134C110.362 112.07 110.162 112.006 110.006 111.942C109.854 111.874 109.722 111.776 109.61 111.648C109.502 111.516 109.448 111.344 109.448 111.132C109.448 110.964 109.498 110.81 109.598 110.67C109.698 110.53 109.84 110.42 110.024 110.34C110.208 110.256 110.418 110.214 110.654 110.214C111.018 110.214 111.312 110.306 111.536 110.49C111.76 110.674 111.88 110.926 111.896 111.246H111.35C111.338 111.074 111.268 110.936 111.14 110.832C111.016 110.728 110.848 110.676 110.636 110.676C110.44 110.676 110.284 110.718 110.168 110.802C110.052 110.886 109.994 110.996 109.994 111.132C109.994 111.24 110.028 111.33 110.096 111.402C110.168 111.47 110.256 111.526 110.36 111.57C110.468 111.61 110.616 111.656 110.804 111.708C111.04 111.772 111.232 111.836 111.38 111.9C111.528 111.96 111.654 112.052 111.758 112.176C111.866 112.3 111.922 112.462 111.926 112.662C111.926 112.842 111.876 113.004 111.776 113.148C111.676 113.292 111.534 113.406 111.35 113.49C111.17 113.57 110.962 113.61 110.726 113.61ZM115.73 113.61C115.422 113.61 115.142 113.54 114.89 113.4C114.642 113.26 114.446 113.062 114.302 112.806C114.162 112.546 114.092 112.246 114.092 111.906C114.092 111.57 114.164 111.274 114.308 111.018C114.456 110.758 114.656 110.56 114.908 110.424C115.16 110.284 115.442 110.214 115.754 110.214C116.066 110.214 116.348 110.284 116.6 110.424C116.852 110.56 117.05 110.756 117.194 111.012C117.342 111.268 117.416 111.566 117.416 111.906C117.416 112.246 117.34 112.546 117.188 112.806C117.04 113.062 116.838 113.26 116.582 113.4C116.326 113.54 116.042 113.61 115.73 113.61ZM115.73 113.13C115.926 113.13 116.11 113.084 116.282 112.992C116.454 112.9 116.592 112.762 116.696 112.578C116.804 112.394 116.858 112.17 116.858 111.906C116.858 111.642 116.806 111.418 116.702 111.234C116.598 111.05 116.462 110.914 116.294 110.826C116.126 110.734 115.944 110.688 115.748 110.688C115.548 110.688 115.364 110.734 115.196 110.826C115.032 110.914 114.9 111.05 114.8 111.234C114.7 111.418 114.65 111.642 114.65 111.906C114.65 112.174 114.698 112.4 114.794 112.584C114.894 112.768 115.026 112.906 115.19 112.998C115.354 113.086 115.534 113.13 115.73 113.13ZM119.736 110.208C120.136 110.208 120.46 110.33 120.708 110.574C120.956 110.814 121.08 111.162 121.08 111.618V113.556H120.54V111.696C120.54 111.368 120.458 111.118 120.294 110.946C120.13 110.77 119.906 110.682 119.622 110.682C119.334 110.682 119.104 110.772 118.932 110.952C118.764 111.132 118.68 111.394 118.68 111.738V113.556H118.134V110.268H118.68V110.736C118.788 110.568 118.934 110.438 119.118 110.346C119.306 110.254 119.512 110.208 119.736 110.208ZM122.518 109.116V113.556H121.972V109.116H122.518ZM126.28 110.268L124.3 115.104H123.736L124.384 113.52L123.058 110.268H123.664L124.696 112.932L125.716 110.268H126.28ZM129.593 113.61C129.341 113.61 129.115 113.568 128.915 113.484C128.715 113.396 128.557 113.276 128.441 113.124C128.325 112.968 128.261 112.79 128.249 112.59H128.813C128.829 112.754 128.905 112.888 129.041 112.992C129.181 113.096 129.363 113.148 129.587 113.148C129.795 113.148 129.959 113.102 130.079 113.01C130.199 112.918 130.259 112.802 130.259 112.662C130.259 112.518 130.195 112.412 130.067 112.344C129.939 112.272 129.741 112.202 129.473 112.134C129.229 112.07 129.029 112.006 128.873 111.942C128.721 111.874 128.589 111.776 128.477 111.648C128.369 111.516 128.315 111.344 128.315 111.132C128.315 110.964 128.365 110.81 128.465 110.67C128.565 110.53 128.707 110.42 128.891 110.34C129.075 110.256 129.285 110.214 129.521 110.214C129.885 110.214 130.179 110.306 130.403 110.49C130.627 110.674 130.747 110.926 130.763 111.246H130.217C130.205 111.074 130.135 110.936 130.007 110.832C129.883 110.728 129.715 110.676 129.503 110.676C129.307 110.676 129.151 110.718 129.035 110.802C128.919 110.886 128.861 110.996 128.861 111.132C128.861 111.24 128.895 111.33 128.963 111.402C129.035 111.47 129.123 111.526 129.227 111.57C129.335 111.61 129.483 111.656 129.671 111.708C129.907 111.772 130.099 111.836 130.247 111.9C130.395 111.96 130.521 112.052 130.625 112.176C130.733 112.3 130.789 112.462 130.793 112.662C130.793 112.842 130.743 113.004 130.643 113.148C130.543 113.292 130.401 113.406 130.217 113.49C130.037 113.57 129.829 113.61 129.593 113.61ZM132.23 110.718V112.656C132.23 112.816 132.264 112.93 132.332 112.998C132.4 113.062 132.518 113.094 132.686 113.094H133.088V113.556H132.596C132.292 113.556 132.064 113.486 131.912 113.346C131.76 113.206 131.684 112.976 131.684 112.656V110.718H131.258V110.268H131.684V109.44H132.23V110.268H133.088V110.718H132.23ZM135.183 113.61C134.875 113.61 134.595 113.54 134.343 113.4C134.095 113.26 133.899 113.062 133.755 112.806C133.615 112.546 133.545 112.246 133.545 111.906C133.545 111.57 133.617 111.274 133.761 111.018C133.909 110.758 134.109 110.56 134.361 110.424C134.613 110.284 134.895 110.214 135.207 110.214C135.519 110.214 135.801 110.284 136.053 110.424C136.305 110.56 136.503 110.756 136.647 111.012C136.795 111.268 136.869 111.566 136.869 111.906C136.869 112.246 136.793 112.546 136.641 112.806C136.493 113.062 136.291 113.26 136.035 113.4C135.779 113.54 135.495 113.61 135.183 113.61ZM135.183 113.13C135.379 113.13 135.563 113.084 135.735 112.992C135.907 112.9 136.045 112.762 136.149 112.578C136.257 112.394 136.311 112.17 136.311 111.906C136.311 111.642 136.259 111.418 136.155 111.234C136.051 111.05 135.915 110.914 135.747 110.826C135.579 110.734 135.397 110.688 135.201 110.688C135.001 110.688 134.817 110.734 134.649 110.826C134.485 110.914 134.353 111.05 134.253 111.234C134.153 111.418 134.103 111.642 134.103 111.906C134.103 112.174 134.151 112.4 134.247 112.584C134.347 112.768 134.479 112.906 134.643 112.998C134.807 113.086 134.987 113.13 135.183 113.13ZM138.133 110.802C138.229 110.614 138.365 110.468 138.541 110.364C138.721 110.26 138.939 110.208 139.195 110.208V110.772H139.051C138.439 110.772 138.133 111.104 138.133 111.768V113.556H137.587V110.268H138.133V110.802ZM142.825 111.786C142.825 111.89 142.819 112 142.807 112.116H140.179C140.199 112.44 140.309 112.694 140.509 112.878C140.713 113.058 140.959 113.148 141.247 113.148C141.483 113.148 141.679 113.094 141.835 112.986C141.995 112.874 142.107 112.726 142.171 112.542H142.759C142.671 112.858 142.495 113.116 142.231 113.316C141.967 113.512 141.639 113.61 141.247 113.61C140.935 113.61 140.655 113.54 140.407 113.4C140.163 113.26 139.971 113.062 139.831 112.806C139.691 112.546 139.621 112.246 139.621 111.906C139.621 111.566 139.689 111.268 139.825 111.012C139.961 110.756 140.151 110.56 140.395 110.424C140.643 110.284 140.927 110.214 141.247 110.214C141.559 110.214 141.835 110.282 142.075 110.418C142.315 110.554 142.499 110.742 142.627 110.982C142.759 111.218 142.825 111.486 142.825 111.786ZM142.261 111.672C142.261 111.464 142.215 111.286 142.123 111.138C142.031 110.986 141.905 110.872 141.745 110.796C141.589 110.716 141.415 110.676 141.223 110.676C140.947 110.676 140.711 110.764 140.515 110.94C140.323 111.116 140.213 111.36 140.185 111.672H142.261ZM143.342 111.9C143.342 111.564 143.41 111.27 143.546 111.018C143.682 110.762 143.868 110.564 144.104 110.424C144.344 110.284 144.612 110.214 144.908 110.214C145.164 110.214 145.402 110.274 145.622 110.394C145.842 110.51 146.01 110.664 146.126 110.856V109.116H146.678V113.556H146.126V112.938C146.018 113.134 145.858 113.296 145.646 113.424C145.434 113.548 145.186 113.61 144.902 113.61C144.61 113.61 144.344 113.538 144.104 113.394C143.868 113.25 143.682 113.048 143.546 112.788C143.41 112.528 143.342 112.232 143.342 111.9ZM146.126 111.906C146.126 111.658 146.076 111.442 145.976 111.258C145.876 111.074 145.74 110.934 145.568 110.838C145.4 110.738 145.214 110.688 145.01 110.688C144.806 110.688 144.62 110.736 144.452 110.832C144.284 110.928 144.15 111.068 144.05 111.252C143.95 111.436 143.9 111.652 143.9 111.9C143.9 112.152 143.95 112.372 144.05 112.56C144.15 112.744 144.284 112.886 144.452 112.986C144.62 113.082 144.806 113.13 145.01 113.13C145.214 113.13 145.4 113.082 145.568 112.986C145.74 112.886 145.876 112.744 145.976 112.56C146.076 112.372 146.126 112.154 146.126 111.906ZM150.634 113.61C150.326 113.61 150.046 113.54 149.794 113.4C149.546 113.26 149.35 113.062 149.206 112.806C149.066 112.546 148.996 112.246 148.996 111.906C148.996 111.57 149.068 111.274 149.212 111.018C149.36 110.758 149.56 110.56 149.812 110.424C150.064 110.284 150.346 110.214 150.658 110.214C150.97 110.214 151.252 110.284 151.504 110.424C151.756 110.56 151.954 110.756 152.098 111.012C152.246 111.268 152.32 111.566 152.32 111.906C152.32 112.246 152.244 112.546 152.092 112.806C151.944 113.062 151.742 113.26 151.486 113.4C151.23 113.54 150.946 113.61 150.634 113.61ZM150.634 113.13C150.83 113.13 151.014 113.084 151.186 112.992C151.358 112.9 151.496 112.762 151.6 112.578C151.708 112.394 151.762 112.17 151.762 111.906C151.762 111.642 151.71 111.418 151.606 111.234C151.502 111.05 151.366 110.914 151.198 110.826C151.03 110.734 150.848 110.688 150.652 110.688C150.452 110.688 150.268 110.734 150.1 110.826C149.936 110.914 149.804 111.05 149.704 111.234C149.604 111.418 149.554 111.642 149.554 111.906C149.554 112.174 149.602 112.4 149.698 112.584C149.798 112.768 149.93 112.906 150.094 112.998C150.258 113.086 150.438 113.13 150.634 113.13ZM154.64 110.208C155.04 110.208 155.364 110.33 155.612 110.574C155.86 110.814 155.984 111.162 155.984 111.618V113.556H155.444V111.696C155.444 111.368 155.362 111.118 155.198 110.946C155.034 110.77 154.81 110.682 154.526 110.682C154.238 110.682 154.008 110.772 153.836 110.952C153.668 111.132 153.584 111.394 153.584 111.738V113.556H153.038V110.268H153.584V110.736C153.692 110.568 153.838 110.438 154.022 110.346C154.21 110.254 154.416 110.208 154.64 110.208ZM161.308 110.268L159.328 115.104H158.764L159.412 113.52L158.086 110.268H158.692L159.724 112.932L160.744 110.268H161.308ZM163.291 113.61C162.983 113.61 162.703 113.54 162.451 113.4C162.203 113.26 162.007 113.062 161.863 112.806C161.723 112.546 161.653 112.246 161.653 111.906C161.653 111.57 161.725 111.274 161.869 111.018C162.017 110.758 162.217 110.56 162.469 110.424C162.721 110.284 163.003 110.214 163.315 110.214C163.627 110.214 163.909 110.284 164.161 110.424C164.413 110.56 164.611 110.756 164.755 111.012C164.903 111.268 164.977 111.566 164.977 111.906C164.977 112.246 164.901 112.546 164.749 112.806C164.601 113.062 164.399 113.26 164.143 113.4C163.887 113.54 163.603 113.61 163.291 113.61ZM163.291 113.13C163.487 113.13 163.671 113.084 163.843 112.992C164.015 112.9 164.153 112.762 164.257 112.578C164.365 112.394 164.419 112.17 164.419 111.906C164.419 111.642 164.367 111.418 164.263 111.234C164.159 111.05 164.023 110.914 163.855 110.826C163.687 110.734 163.505 110.688 163.309 110.688C163.109 110.688 162.925 110.734 162.757 110.826C162.593 110.914 162.461 111.05 162.361 111.234C162.261 111.418 162.211 111.642 162.211 111.906C162.211 112.174 162.259 112.4 162.355 112.584C162.455 112.768 162.587 112.906 162.751 112.998C162.915 113.086 163.095 113.13 163.291 113.13ZM168.61 110.268V113.556H168.064V113.07C167.96 113.238 167.814 113.37 167.626 113.466C167.442 113.558 167.238 113.604 167.014 113.604C166.758 113.604 166.528 113.552 166.324 113.448C166.12 113.34 165.958 113.18 165.838 112.968C165.722 112.756 165.664 112.498 165.664 112.194V110.268H166.204V112.122C166.204 112.446 166.286 112.696 166.45 112.872C166.614 113.044 166.838 113.13 167.122 113.13C167.414 113.13 167.644 113.04 167.812 112.86C167.98 112.68 168.064 112.418 168.064 112.074V110.268H168.61ZM170.078 110.802C170.174 110.614 170.31 110.468 170.486 110.364C170.666 110.26 170.884 110.208 171.14 110.208V110.772H170.996C170.384 110.772 170.078 111.104 170.078 111.768V113.556H169.532V110.268H170.078V110.802ZM173.916 110.874C174.024 110.686 174.184 110.53 174.396 110.406C174.612 110.278 174.862 110.214 175.146 110.214C175.438 110.214 175.702 110.284 175.938 110.424C176.178 110.564 176.366 110.762 176.502 111.018C176.638 111.27 176.706 111.564 176.706 111.9C176.706 112.232 176.638 112.528 176.502 112.788C176.366 113.048 176.178 113.25 175.938 113.394C175.702 113.538 175.438 113.61 175.146 113.61C174.866 113.61 174.618 113.548 174.402 113.424C174.19 113.296 174.028 113.138 173.916 112.95V115.116H173.37V110.268H173.916V110.874ZM176.148 111.9C176.148 111.652 176.098 111.436 175.998 111.252C175.898 111.068 175.762 110.928 175.59 110.832C175.422 110.736 175.236 110.688 175.032 110.688C174.832 110.688 174.646 110.738 174.474 110.838C174.306 110.934 174.17 111.076 174.066 111.264C173.966 111.448 173.916 111.662 173.916 111.906C173.916 112.154 173.966 112.372 174.066 112.56C174.17 112.744 174.306 112.886 174.474 112.986C174.646 113.082 174.832 113.13 175.032 113.13C175.236 113.13 175.422 113.082 175.59 112.986C175.762 112.886 175.898 112.744 175.998 112.56C176.098 112.372 176.148 112.152 176.148 111.9ZM179.057 110.208C179.305 110.208 179.529 110.262 179.729 110.37C179.929 110.474 180.085 110.632 180.197 110.844C180.313 111.056 180.371 111.314 180.371 111.618V113.556H179.831V111.696C179.831 111.368 179.749 111.118 179.585 110.946C179.421 110.77 179.197 110.682 178.913 110.682C178.625 110.682 178.395 110.772 178.223 110.952C178.055 111.132 177.971 111.394 177.971 111.738V113.556H177.425V109.116H177.971V110.736C178.079 110.568 178.227 110.438 178.415 110.346C178.607 110.254 178.821 110.208 179.057 110.208ZM182.697 113.61C182.389 113.61 182.109 113.54 181.857 113.4C181.609 113.26 181.413 113.062 181.269 112.806C181.129 112.546 181.059 112.246 181.059 111.906C181.059 111.57 181.131 111.274 181.275 111.018C181.423 110.758 181.623 110.56 181.875 110.424C182.127 110.284 182.409 110.214 182.721 110.214C183.033 110.214 183.315 110.284 183.567 110.424C183.819 110.56 184.017 110.756 184.161 111.012C184.309 111.268 184.383 111.566 184.383 111.906C184.383 112.246 184.307 112.546 184.155 112.806C184.007 113.062 183.805 113.26 183.549 113.4C183.293 113.54 183.009 113.61 182.697 113.61ZM182.697 113.13C182.893 113.13 183.077 113.084 183.249 112.992C183.421 112.9 183.559 112.762 183.663 112.578C183.771 112.394 183.825 112.17 183.825 111.906C183.825 111.642 183.773 111.418 183.669 111.234C183.565 111.05 183.429 110.914 183.261 110.826C183.093 110.734 182.911 110.688 182.715 110.688C182.515 110.688 182.331 110.734 182.163 110.826C181.999 110.914 181.867 111.05 181.767 111.234C181.667 111.418 181.617 111.642 181.617 111.906C181.617 112.174 181.665 112.4 181.761 112.584C181.861 112.768 181.993 112.906 182.157 112.998C182.321 113.086 182.501 113.13 182.697 113.13ZM186.703 110.208C187.103 110.208 187.427 110.33 187.675 110.574C187.923 110.814 188.047 111.162 188.047 111.618V113.556H187.507V111.696C187.507 111.368 187.425 111.118 187.261 110.946C187.097 110.77 186.873 110.682 186.589 110.682C186.301 110.682 186.071 110.772 185.899 110.952C185.731 111.132 185.647 111.394 185.647 111.738V113.556H185.101V110.268H185.647V110.736C185.755 110.568 185.901 110.438 186.085 110.346C186.273 110.254 186.479 110.208 186.703 110.208ZM191.939 111.786C191.939 111.89 191.933 112 191.921 112.116H189.293C189.313 112.44 189.423 112.694 189.623 112.878C189.827 113.058 190.073 113.148 190.361 113.148C190.597 113.148 190.793 113.094 190.949 112.986C191.109 112.874 191.221 112.726 191.285 112.542H191.873C191.785 112.858 191.609 113.116 191.345 113.316C191.081 113.512 190.753 113.61 190.361 113.61C190.049 113.61 189.769 113.54 189.521 113.4C189.277 113.26 189.085 113.062 188.945 112.806C188.805 112.546 188.735 112.246 188.735 111.906C188.735 111.566 188.803 111.268 188.939 111.012C189.075 110.756 189.265 110.56 189.509 110.424C189.757 110.284 190.041 110.214 190.361 110.214C190.673 110.214 190.949 110.282 191.189 110.418C191.429 110.554 191.613 110.742 191.741 110.982C191.873 111.218 191.939 111.486 191.939 111.786ZM191.375 111.672C191.375 111.464 191.329 111.286 191.237 111.138C191.145 110.986 191.019 110.872 190.859 110.796C190.703 110.716 190.529 110.676 190.337 110.676C190.061 110.676 189.825 110.764 189.629 110.94C189.437 111.116 189.327 111.36 189.299 111.672H191.375ZM193.223 112.8L192.551 114.414H192.185L192.623 112.8H193.223ZM195.244 111.9C195.244 111.564 195.312 111.27 195.448 111.018C195.584 110.762 195.77 110.564 196.006 110.424C196.246 110.284 196.512 110.214 196.804 110.214C197.092 110.214 197.342 110.276 197.554 110.4C197.766 110.524 197.924 110.68 198.028 110.868V110.268H198.58V113.556H198.028V112.944C197.92 113.136 197.758 113.296 197.542 113.424C197.33 113.548 197.082 113.61 196.798 113.61C196.506 113.61 196.242 113.538 196.006 113.394C195.77 113.25 195.584 113.048 195.448 112.788C195.312 112.528 195.244 112.232 195.244 111.9ZM198.028 111.906C198.028 111.658 197.978 111.442 197.878 111.258C197.778 111.074 197.642 110.934 197.47 110.838C197.302 110.738 197.116 110.688 196.912 110.688C196.708 110.688 196.522 110.736 196.354 110.832C196.186 110.928 196.052 111.068 195.952 111.252C195.852 111.436 195.802 111.652 195.802 111.9C195.802 112.152 195.852 112.372 195.952 112.56C196.052 112.744 196.186 112.886 196.354 112.986C196.522 113.082 196.708 113.13 196.912 113.13C197.116 113.13 197.302 113.082 197.47 112.986C197.642 112.886 197.778 112.744 197.878 112.56C197.978 112.372 198.028 112.154 198.028 111.906ZM201.105 110.208C201.505 110.208 201.829 110.33 202.077 110.574C202.325 110.814 202.449 111.162 202.449 111.618V113.556H201.909V111.696C201.909 111.368 201.827 111.118 201.663 110.946C201.499 110.77 201.275 110.682 200.991 110.682C200.703 110.682 200.473 110.772 200.301 110.952C200.133 111.132 200.049 111.394 200.049 111.738V113.556H199.503V110.268H200.049V110.736C200.157 110.568 200.303 110.438 200.487 110.346C200.675 110.254 200.881 110.208 201.105 110.208ZM203.137 111.9C203.137 111.564 203.205 111.27 203.341 111.018C203.477 110.762 203.663 110.564 203.899 110.424C204.139 110.284 204.407 110.214 204.703 110.214C204.959 110.214 205.197 110.274 205.417 110.394C205.637 110.51 205.805 110.664 205.921 110.856V109.116H206.473V113.556H205.921V112.938C205.813 113.134 205.653 113.296 205.441 113.424C205.229 113.548 204.981 113.61 204.697 113.61C204.405 113.61 204.139 113.538 203.899 113.394C203.663 113.25 203.477 113.048 203.341 112.788C203.205 112.528 203.137 112.232 203.137 111.9ZM205.921 111.906C205.921 111.658 205.871 111.442 205.771 111.258C205.671 111.074 205.535 110.934 205.363 110.838C205.195 110.738 205.009 110.688 204.805 110.688C204.601 110.688 204.415 110.736 204.247 110.832C204.079 110.928 203.945 111.068 203.845 111.252C203.745 111.436 203.695 111.652 203.695 111.9C203.695 112.152 203.745 112.372 203.845 112.56C203.945 112.744 204.079 112.886 204.247 112.986C204.415 113.082 204.601 113.13 204.805 113.13C205.009 113.13 205.195 113.082 205.363 112.986C205.535 112.886 205.671 112.744 205.771 112.56C205.871 112.372 205.921 112.154 205.921 111.906ZM210.597 110.208C210.997 110.208 211.321 110.33 211.569 110.574C211.817 110.814 211.941 111.162 211.941 111.618V113.556H211.401V111.696C211.401 111.368 211.319 111.118 211.155 110.946C210.991 110.77 210.767 110.682 210.483 110.682C210.195 110.682 209.965 110.772 209.793 110.952C209.625 111.132 209.541 111.394 209.541 111.738V113.556H208.995V110.268H209.541V110.736C209.649 110.568 209.795 110.438 209.979 110.346C210.167 110.254 210.373 110.208 210.597 110.208ZM214.267 113.61C213.959 113.61 213.679 113.54 213.427 113.4C213.179 113.26 212.983 113.062 212.839 112.806C212.699 112.546 212.629 112.246 212.629 111.906C212.629 111.57 212.701 111.274 212.845 111.018C212.993 110.758 213.193 110.56 213.445 110.424C213.697 110.284 213.979 110.214 214.291 110.214C214.603 110.214 214.885 110.284 215.137 110.424C215.389 110.56 215.587 110.756 215.731 111.012C215.879 111.268 215.953 111.566 215.953 111.906C215.953 112.246 215.877 112.546 215.725 112.806C215.577 113.062 215.375 113.26 215.119 113.4C214.863 113.54 214.579 113.61 214.267 113.61ZM214.267 113.13C214.463 113.13 214.647 113.084 214.819 112.992C214.991 112.9 215.129 112.762 215.233 112.578C215.341 112.394 215.395 112.17 215.395 111.906C215.395 111.642 215.343 111.418 215.239 111.234C215.135 111.05 214.999 110.914 214.831 110.826C214.663 110.734 214.481 110.688 214.285 110.688C214.085 110.688 213.901 110.734 213.733 110.826C213.569 110.914 213.437 111.05 213.337 111.234C213.237 111.418 213.187 111.642 213.187 111.906C213.187 112.174 213.235 112.4 213.331 112.584C213.431 112.768 213.563 112.906 213.727 112.998C213.891 113.086 214.071 113.13 214.267 113.13ZM217.337 110.718V112.656C217.337 112.816 217.371 112.93 217.439 112.998C217.507 113.062 217.625 113.094 217.793 113.094H218.195V113.556H217.703C217.399 113.556 217.171 113.486 217.019 113.346C216.867 113.206 216.791 112.976 216.791 112.656V110.718H216.365V110.268H216.791V109.44H217.337V110.268H218.195V110.718H217.337ZM77.896 122.61C77.588 122.61 77.308 122.54 77.056 122.4C76.808 122.26 76.612 122.062 76.468 121.806C76.328 121.546 76.258 121.246 76.258 120.906C76.258 120.57 76.33 120.274 76.474 120.018C76.622 119.758 76.822 119.56 77.074 119.424C77.326 119.284 77.608 119.214 77.92 119.214C78.232 119.214 78.514 119.284 78.766 119.424C79.018 119.56 79.216 119.756 79.36 120.012C79.508 120.268 79.582 120.566 79.582 120.906C79.582 121.246 79.506 121.546 79.354 121.806C79.206 122.062 79.004 122.26 78.748 122.4C78.492 122.54 78.208 122.61 77.896 122.61ZM77.896 122.13C78.092 122.13 78.276 122.084 78.448 121.992C78.62 121.9 78.758 121.762 78.862 121.578C78.97 121.394 79.024 121.17 79.024 120.906C79.024 120.642 78.972 120.418 78.868 120.234C78.764 120.05 78.628 119.914 78.46 119.826C78.292 119.734 78.11 119.688 77.914 119.688C77.714 119.688 77.53 119.734 77.362 119.826C77.198 119.914 77.066 120.05 76.966 120.234C76.866 120.418 76.816 120.642 76.816 120.906C76.816 121.174 76.864 121.4 76.96 121.584C77.06 121.768 77.192 121.906 77.356 121.998C77.52 122.086 77.7 122.13 77.896 122.13ZM81.9019 119.208C82.3019 119.208 82.6259 119.33 82.8739 119.574C83.1219 119.814 83.2459 120.162 83.2459 120.618V122.556H82.7059V120.696C82.7059 120.368 82.6239 120.118 82.4599 119.946C82.2959 119.77 82.0719 119.682 81.7879 119.682C81.4999 119.682 81.2699 119.772 81.0979 119.952C80.9299 120.132 80.8459 120.394 80.8459 120.738V122.556H80.2999V119.268H80.8459V119.736C80.9539 119.568 81.0999 119.438 81.2839 119.346C81.4719 119.254 81.6779 119.208 81.9019 119.208ZM85.5334 120.9C85.5334 120.564 85.6014 120.27 85.7374 120.018C85.8734 119.762 86.0594 119.564 86.2954 119.424C86.5354 119.284 86.8014 119.214 87.0934 119.214C87.3814 119.214 87.6314 119.276 87.8434 119.4C88.0554 119.524 88.2134 119.68 88.3174 119.868V119.268H88.8694V122.556H88.3174V121.944C88.2094 122.136 88.0474 122.296 87.8314 122.424C87.6194 122.548 87.3714 122.61 87.0874 122.61C86.7954 122.61 86.5314 122.538 86.2954 122.394C86.0594 122.25 85.8734 122.048 85.7374 121.788C85.6014 121.528 85.5334 121.232 85.5334 120.9ZM88.3174 120.906C88.3174 120.658 88.2674 120.442 88.1674 120.258C88.0674 120.074 87.9314 119.934 87.7594 119.838C87.5914 119.738 87.4054 119.688 87.2014 119.688C86.9974 119.688 86.8114 119.736 86.6434 119.832C86.4754 119.928 86.3414 120.068 86.2414 120.252C86.1414 120.436 86.0914 120.652 86.0914 120.9C86.0914 121.152 86.1414 121.372 86.2414 121.56C86.3414 121.744 86.4754 121.886 86.6434 121.986C86.8114 122.082 86.9974 122.13 87.2014 122.13C87.4054 122.13 87.5914 122.082 87.7594 121.986C87.9314 121.886 88.0674 121.744 88.1674 121.56C88.2674 121.372 88.3174 121.154 88.3174 120.906ZM91.3941 119.208C91.7941 119.208 92.1181 119.33 92.3661 119.574C92.6141 119.814 92.7381 120.162 92.7381 120.618V122.556H92.1981V120.696C92.1981 120.368 92.1161 120.118 91.9521 119.946C91.7881 119.77 91.5641 119.682 91.2801 119.682C90.9921 119.682 90.7621 119.772 90.5901 119.952C90.4221 120.132 90.3381 120.394 90.3381 120.738V122.556H89.7921V119.268H90.3381V119.736C90.4461 119.568 90.5921 119.438 90.7761 119.346C90.9641 119.254 91.1701 119.208 91.3941 119.208ZM96.462 119.268L94.482 124.104H93.918L94.566 122.52L93.24 119.268H93.846L94.878 121.932L95.898 119.268H96.462ZM99.7744 122.61C99.5224 122.61 99.2964 122.568 99.0964 122.484C98.8964 122.396 98.7384 122.276 98.6224 122.124C98.5064 121.968 98.4424 121.79 98.4304 121.59H98.9944C99.0104 121.754 99.0864 121.888 99.2224 121.992C99.3624 122.096 99.5444 122.148 99.7684 122.148C99.9764 122.148 100.14 122.102 100.26 122.01C100.38 121.918 100.44 121.802 100.44 121.662C100.44 121.518 100.376 121.412 100.248 121.344C100.12 121.272 99.9224 121.202 99.6544 121.134C99.4104 121.07 99.2104 121.006 99.0544 120.942C98.9024 120.874 98.7704 120.776 98.6584 120.648C98.5504 120.516 98.4964 120.344 98.4964 120.132C98.4964 119.964 98.5464 119.81 98.6464 119.67C98.7464 119.53 98.8884 119.42 99.0724 119.34C99.2564 119.256 99.4664 119.214 99.7024 119.214C100.066 119.214 100.36 119.306 100.584 119.49C100.808 119.674 100.928 119.926 100.944 120.246H100.398C100.386 120.074 100.316 119.936 100.188 119.832C100.064 119.728 99.8964 119.676 99.6844 119.676C99.4884 119.676 99.3324 119.718 99.2164 119.802C99.1004 119.886 99.0424 119.996 99.0424 120.132C99.0424 120.24 99.0764 120.33 99.1444 120.402C99.2164 120.47 99.3044 120.526 99.4084 120.57C99.5164 120.61 99.6644 120.656 99.8524 120.708C100.088 120.772 100.28 120.836 100.428 120.9C100.576 120.96 100.702 121.052 100.806 121.176C100.914 121.3 100.97 121.462 100.974 121.662C100.974 121.842 100.924 122.004 100.824 122.148C100.724 122.292 100.582 122.406 100.398 122.49C100.218 122.57 100.01 122.61 99.7744 122.61ZM104.745 120.786C104.745 120.89 104.739 121 104.727 121.116H102.099C102.119 121.44 102.229 121.694 102.429 121.878C102.633 122.058 102.879 122.148 103.167 122.148C103.403 122.148 103.599 122.094 103.755 121.986C103.915 121.874 104.027 121.726 104.091 121.542H104.679C104.591 121.858 104.415 122.116 104.151 122.316C103.887 122.512 103.559 122.61 103.167 122.61C102.855 122.61 102.575 122.54 102.327 122.4C102.083 122.26 101.891 122.062 101.751 121.806C101.611 121.546 101.541 121.246 101.541 120.906C101.541 120.566 101.609 120.268 101.745 120.012C101.881 119.756 102.071 119.56 102.315 119.424C102.563 119.284 102.847 119.214 103.167 119.214C103.479 119.214 103.755 119.282 103.995 119.418C104.235 119.554 104.419 119.742 104.547 119.982C104.679 120.218 104.745 120.486 104.745 120.786ZM104.181 120.672C104.181 120.464 104.135 120.286 104.043 120.138C103.951 119.986 103.825 119.872 103.665 119.796C103.509 119.716 103.335 119.676 103.143 119.676C102.867 119.676 102.631 119.764 102.435 119.94C102.243 120.116 102.133 120.36 102.105 120.672H104.181ZM106.012 119.802C106.108 119.614 106.244 119.468 106.42 119.364C106.6 119.26 106.818 119.208 107.074 119.208V119.772H106.93C106.318 119.772 106.012 120.104 106.012 120.768V122.556H105.466V119.268H106.012V119.802ZM108.928 122.052L109.948 119.268H110.53L109.24 122.556H108.604L107.314 119.268H107.902L108.928 122.052ZM114.067 120.786C114.067 120.89 114.061 121 114.049 121.116H111.421C111.441 121.44 111.551 121.694 111.751 121.878C111.955 122.058 112.201 122.148 112.489 122.148C112.725 122.148 112.921 122.094 113.077 121.986C113.237 121.874 113.349 121.726 113.413 121.542H114.001C113.913 121.858 113.737 122.116 113.473 122.316C113.209 122.512 112.881 122.61 112.489 122.61C112.177 122.61 111.897 122.54 111.649 122.4C111.405 122.26 111.213 122.062 111.073 121.806C110.933 121.546 110.863 121.246 110.863 120.906C110.863 120.566 110.931 120.268 111.067 120.012C111.203 119.756 111.393 119.56 111.637 119.424C111.885 119.284 112.169 119.214 112.489 119.214C112.801 119.214 113.077 119.282 113.317 119.418C113.557 119.554 113.741 119.742 113.869 119.982C114.001 120.218 114.067 120.486 114.067 120.786ZM113.503 120.672C113.503 120.464 113.457 120.286 113.365 120.138C113.273 119.986 113.147 119.872 112.987 119.796C112.831 119.716 112.657 119.676 112.465 119.676C112.189 119.676 111.953 119.764 111.757 119.94C111.565 120.116 111.455 120.36 111.427 120.672H113.503ZM115.334 119.802C115.43 119.614 115.566 119.468 115.742 119.364C115.922 119.26 116.14 119.208 116.396 119.208V119.772H116.252C115.64 119.772 115.334 120.104 115.334 120.768V122.556H114.788V119.268H115.334V119.802Z" fill="#62626A"/>
</g>
<rect x="37" y="66" width="206" height="31.025" rx="15.5125" fill="#2761FC"/>
<path d="M115.479 83.8138H112.974L112.559 85.0125H111.234L113.496 78.7128H114.966L117.228 85.0125H115.894L115.479 83.8138ZM115.137 82.8044L114.226 80.1728L113.316 82.8044H115.137ZM117.749 82.498C117.749 81.9933 117.848 81.5457 118.046 81.1552C118.25 80.7646 118.527 80.4642 118.875 80.2539C119.224 80.0436 119.611 79.9385 120.038 79.9385C120.362 79.9385 120.672 80.0106 120.966 80.1548C121.261 80.293 121.495 80.4792 121.669 80.7135V78.3433H122.949V85.0125H121.669V84.2735C121.513 84.5198 121.294 84.7181 121.011 84.8683C120.729 85.0185 120.401 85.0936 120.029 85.0936C119.608 85.0936 119.224 84.9855 118.875 84.7692C118.527 84.5529 118.25 84.2495 118.046 83.8589C117.848 83.4624 117.749 83.0087 117.749 82.498ZM121.678 82.516C121.678 82.2096 121.618 81.9483 121.498 81.732C121.378 81.5097 121.216 81.3414 121.011 81.2273C120.807 81.1071 120.588 81.047 120.353 81.047C120.119 81.047 119.903 81.1041 119.704 81.2182C119.506 81.3324 119.344 81.5006 119.218 81.7229C119.098 81.9392 119.038 82.1976 119.038 82.498C119.038 82.7984 119.098 83.0628 119.218 83.2911C119.344 83.5134 119.506 83.6847 119.704 83.8048C119.909 83.925 120.125 83.9851 120.353 83.9851C120.588 83.9851 120.807 83.928 121.011 83.8138C121.216 83.6937 121.378 83.5254 121.498 83.3091C121.618 83.0868 121.678 82.8225 121.678 82.516ZM123.857 82.498C123.857 81.9933 123.956 81.5457 124.154 81.1552C124.359 80.7646 124.635 80.4642 124.983 80.2539C125.332 80.0436 125.719 79.9385 126.146 79.9385C126.47 79.9385 126.78 80.0106 127.074 80.1548C127.369 80.293 127.603 80.4792 127.777 80.7135V78.3433H129.057V85.0125H127.777V84.2735C127.621 84.5198 127.402 84.7181 127.119 84.8683C126.837 85.0185 126.51 85.0936 126.137 85.0936C125.716 85.0936 125.332 84.9855 124.983 84.7692C124.635 84.5529 124.359 84.2495 124.154 83.8589C123.956 83.4624 123.857 83.0087 123.857 82.498ZM127.786 82.516C127.786 82.2096 127.726 81.9483 127.606 81.732C127.486 81.5097 127.324 81.3414 127.119 81.2273C126.915 81.1071 126.696 81.047 126.461 81.047C126.227 81.047 126.011 81.1041 125.813 81.2182C125.614 81.3324 125.452 81.5006 125.326 81.7229C125.206 81.9392 125.146 82.1976 125.146 82.498C125.146 82.7984 125.206 83.0628 125.326 83.2911C125.452 83.5134 125.614 83.6847 125.813 83.8048C126.017 83.925 126.233 83.9851 126.461 83.9851C126.696 83.9851 126.915 83.928 127.119 83.8138C127.324 83.6937 127.486 83.5254 127.606 83.3091C127.726 83.0868 127.786 82.8225 127.786 82.516ZM132.13 81.8581C132.13 81.2393 132.269 80.6865 132.545 80.1998C132.827 79.7072 133.209 79.3256 133.69 79.0552C134.176 78.7789 134.72 78.6407 135.321 78.6407C136.024 78.6407 136.64 78.8209 137.168 79.1814C137.697 79.5419 138.067 80.0406 138.277 80.6775H136.826C136.682 80.3771 136.477 80.1518 136.213 80.0016C135.955 79.8514 135.654 79.7762 135.312 79.7762C134.945 79.7762 134.618 79.8634 134.329 80.0376C134.047 80.2058 133.825 80.4462 133.663 80.7586C133.506 81.071 133.428 81.4376 133.428 81.8581C133.428 82.2727 133.506 82.6392 133.663 82.9577C133.825 83.2701 134.047 83.5134 134.329 83.6877C134.618 83.8559 134.945 83.94 135.312 83.94C135.654 83.94 135.955 83.8649 136.213 83.7147C136.477 83.5585 136.682 83.3302 136.826 83.0298H138.277C138.067 83.6727 137.697 84.1743 137.168 84.5348C136.646 84.8893 136.03 85.0666 135.321 85.0666C134.72 85.0666 134.176 84.9314 133.69 84.661C133.209 84.3846 132.827 84.0031 132.545 83.5164C132.269 83.0298 132.13 82.477 132.13 81.8581ZM141.572 85.0936C141.091 85.0936 140.658 84.9885 140.274 84.7782C139.889 84.5619 139.586 84.2585 139.364 83.8679C139.147 83.4774 139.039 83.0268 139.039 82.516C139.039 82.0053 139.15 81.5547 139.373 81.1642C139.601 80.7736 139.91 80.4732 140.301 80.2629C140.692 80.0466 141.127 79.9385 141.608 79.9385C142.088 79.9385 142.524 80.0466 142.915 80.2629C143.305 80.4732 143.612 80.7736 143.834 81.1642C144.062 81.5547 144.176 82.0053 144.176 82.516C144.176 83.0268 144.059 83.4774 143.825 83.8679C143.597 84.2585 143.284 84.5619 142.888 84.7782C142.497 84.9885 142.058 85.0936 141.572 85.0936ZM141.572 83.9941C141.8 83.9941 142.013 83.94 142.212 83.8319C142.416 83.7177 142.578 83.5495 142.698 83.3272C142.818 83.1049 142.879 82.8345 142.879 82.516C142.879 82.0414 142.752 81.6779 142.5 81.4255C142.254 81.1672 141.95 81.038 141.59 81.038C141.229 81.038 140.926 81.1672 140.679 81.4255C140.439 81.6779 140.319 82.0414 140.319 82.516C140.319 82.9907 140.436 83.3572 140.67 83.6156C140.911 83.8679 141.211 83.9941 141.572 83.9941ZM147.869 79.9475C148.464 79.9475 148.944 80.1367 149.311 80.5153C149.677 80.8878 149.86 81.4105 149.86 82.0834V85.0125H148.599V82.2547C148.599 81.8581 148.5 81.5547 148.301 81.3444C148.103 81.1281 147.833 81.02 147.49 81.02C147.142 81.02 146.865 81.1281 146.661 81.3444C146.463 81.5547 146.364 81.8581 146.364 82.2547V85.0125H145.102V80.0196H146.364V80.6414C146.532 80.4251 146.745 80.2569 147.004 80.1367C147.268 80.0106 147.556 79.9475 147.869 79.9475ZM152.529 81.056V83.4714C152.529 83.6396 152.568 83.7628 152.647 83.8409C152.731 83.913 152.869 83.949 153.061 83.949H153.647V85.0125H152.854C151.79 85.0125 151.259 84.4958 151.259 83.4624V81.056H150.664V80.0196H151.259V78.7849H152.529V80.0196H153.647V81.056H152.529ZM154.23 82.498C154.23 81.9933 154.329 81.5457 154.527 81.1552C154.732 80.7646 155.005 80.4642 155.348 80.2539C155.696 80.0436 156.084 79.9385 156.51 79.9385C156.883 79.9385 157.207 80.0136 157.484 80.1638C157.766 80.314 157.991 80.5033 158.159 80.7316V80.0196H159.43V85.0125H158.159V84.2825C157.997 84.5168 157.772 84.7121 157.484 84.8683C157.201 85.0185 156.874 85.0936 156.501 85.0936C156.081 85.0936 155.696 84.9855 155.348 84.7692C155.005 84.5529 154.732 84.2495 154.527 83.8589C154.329 83.4624 154.23 83.0087 154.23 82.498ZM158.159 82.516C158.159 82.2096 158.099 81.9483 157.979 81.732C157.859 81.5097 157.697 81.3414 157.493 81.2273C157.288 81.1071 157.069 81.047 156.835 81.047C156.6 81.047 156.384 81.1041 156.186 81.2182C155.987 81.3324 155.825 81.5006 155.699 81.7229C155.579 81.9392 155.519 82.1976 155.519 82.498C155.519 82.7984 155.579 83.0628 155.699 83.2911C155.825 83.5134 155.987 83.6847 156.186 83.8048C156.39 83.925 156.606 83.9851 156.835 83.9851C157.069 83.9851 157.288 83.928 157.493 83.8138C157.697 83.6937 157.859 83.5254 157.979 83.3091C158.099 83.0868 158.159 82.8225 158.159 82.516ZM160.338 82.516C160.338 81.9993 160.443 81.5487 160.654 81.1642C160.864 80.7736 161.155 80.4732 161.528 80.2629C161.9 80.0466 162.327 79.9385 162.808 79.9385C163.426 79.9385 163.937 80.0947 164.34 80.4071C164.748 80.7135 165.022 81.1461 165.16 81.7049H163.799C163.727 81.4886 163.604 81.3204 163.429 81.2002C163.261 81.074 163.051 81.011 162.798 81.011C162.438 81.011 162.153 81.1431 161.942 81.4075C161.732 81.6659 161.627 82.0354 161.627 82.516C161.627 82.9907 161.732 83.3602 161.942 83.6246C162.153 83.8829 162.438 84.0121 162.798 84.0121C163.309 84.0121 163.643 83.7838 163.799 83.3272H165.16C165.022 83.8679 164.748 84.2975 164.34 84.616C163.931 84.9344 163.42 85.0936 162.808 85.0936C162.327 85.0936 161.9 84.9885 161.528 84.7782C161.155 84.5619 160.864 84.2615 160.654 83.8769C160.443 83.4864 160.338 83.0328 160.338 82.516ZM167.553 81.056V83.4714C167.553 83.6396 167.592 83.7628 167.67 83.8409C167.754 83.913 167.893 83.949 168.085 83.949H168.671V85.0125H167.878C166.814 85.0125 166.282 84.4958 166.282 83.4624V81.056H165.688V80.0196H166.282V78.7849H167.553V80.0196H168.671V81.056H167.553Z" fill="white"/>
</g>
<defs>
<clipPath id="clip0_1_702">
<rect width="280" height="160" rx="16" fill="white"/>
</clipPath>
<clipPath id="clip1_1_702">
<rect width="180" height="400" fill="white" transform="translate(50 -120.444)"/>
</clipPath>
<clipPath id="clip2_1_702">
<rect width="12" height="12" fill="white" transform="translate(60 109.555)"/>
</clipPath>
</defs>
</svg>
