<svg width="53" height="52" viewBox="0 0 53 52" fill="none" xmlns="http://www.w3.org/2000/svg">
<rect x="1.5" y="1" width="50" height="50" rx="7" stroke="#F88927" stroke-width="2"/>
<path d="M36.5781 34.3259C34.4631 33.2947 33.25 31.0841 33.25 28.2509V26.6309C33.2508 26.3304 33.161 26.0366 32.9922 25.7879C32.8235 25.5392 32.5837 25.3472 32.3041 25.2369L29.9688 24.3125C29.785 24.239 29.6378 24.0959 29.5591 23.9143C29.4805 23.7327 29.4767 23.5274 29.5488 23.3431L31.5475 18.3744C31.6832 18.0483 31.7516 17.6981 31.7487 17.3449C31.7459 16.9917 31.6718 16.6427 31.5308 16.3189C31.3899 15.995 31.1851 15.7029 30.9286 15.4601C30.6721 15.2172 30.3692 15.0287 30.0381 14.9056C29.3933 14.6693 28.6817 14.6939 28.0546 14.974C27.4275 15.2541 26.9344 15.7677 26.68 16.4056C26.6796 16.4094 26.6796 16.4131 26.68 16.4169L24.7094 21.4062C24.6361 21.5908 24.4926 21.7388 24.3103 21.8177C24.1281 21.8966 23.922 21.9 23.7372 21.8272L21.3541 20.8569C21.0793 20.7455 20.7776 20.7187 20.4875 20.7798C20.1974 20.841 19.9321 20.9873 19.7256 21.2C17.7513 23.2297 16.75 25.6016 16.75 28.25C16.7448 30.9602 17.793 33.5664 19.6731 35.5184C19.7436 35.5921 19.8283 35.6506 19.9221 35.6904C20.0159 35.7302 20.1169 35.7505 20.2188 35.75H36.25C36.4195 35.7498 36.584 35.6923 36.7166 35.5866C36.8492 35.481 36.9421 35.3336 36.9801 35.1684C37.0182 35.0032 36.9992 34.83 36.9262 34.677C36.8532 34.524 36.7305 34.4003 36.5781 34.3259ZM20.7944 22.25L23.1766 23.2156C23.4516 23.3256 23.7456 23.3803 24.0417 23.3764C24.3378 23.3725 24.6303 23.3102 24.9023 23.1931C25.1743 23.0759 25.4205 22.9062 25.6268 22.6937C25.8331 22.4812 25.9954 22.2301 26.1044 21.9547L28.0731 16.9859C28.3131 16.4131 28.961 16.1169 29.5197 16.3297C29.6622 16.3825 29.7924 16.4637 29.9027 16.5683C30.0129 16.6728 30.1008 16.7987 30.1611 16.9381C30.2213 17.0776 30.2527 17.2279 30.2534 17.3798C30.254 17.5317 30.2238 17.6822 30.1647 17.8222L28.1585 22.79C27.9388 23.3441 27.948 23.9628 28.1841 24.5101C28.4201 25.0575 28.8638 25.4888 29.4175 25.7094L31.75 26.6309V28.3438L19.7285 23.5353C20.0481 23.0785 20.4046 22.6486 20.7944 22.25ZM25.2944 34.25C24.1778 33.1789 23.3867 31.8139 23.0125 30.3125C22.9604 30.1226 22.8356 29.9608 22.6652 29.8621C22.4948 29.7634 22.2924 29.7357 22.1018 29.7849C21.9111 29.8342 21.7474 29.9564 21.6461 30.1253C21.5448 30.2942 21.514 30.4961 21.5603 30.6875C21.8875 31.9791 22.473 33.191 23.2816 34.25H20.5413C19.0621 32.602 18.2458 30.4645 18.25 28.25C18.2408 27.0767 18.4882 25.9155 18.9747 24.8478L31.8935 30.0153C32.1747 31.7028 32.8835 33.1541 33.9456 34.2491L25.2944 34.25Z" fill="#F88927"/>
</svg>
