<svg width="53" height="52" viewBox="0 0 53 52" fill="none" xmlns="http://www.w3.org/2000/svg">
<rect x="1.5" y="1" width="50" height="50" rx="7" stroke="#F88927" stroke-width="2"/>
<g clip-path="url(#clip0_957_251)">
<path fill-rule="evenodd" clip-rule="evenodd" d="M31.778 16.613C31.8744 16.3771 32.0573 16.187 32.2891 16.0814C32.521 15.9757 32.7845 15.9626 33.0257 16.0447C33.267 16.1268 33.4678 16.2978 33.5871 16.5229C33.7065 16.7481 33.7354 17.0103 33.668 17.256L33.63 17.366L31.02 23.786L31.677 23.961C32.727 24.242 33.601 25.095 33.767 26.259C33.909 27.259 34.042 28.779 33.859 30.345C33.677 31.897 33.169 33.623 31.912 34.891C31.45 35.357 30.787 35.431 30.339 35.439C29.828 35.447 29.239 35.369 28.634 35.249C27.418 35.007 25.959 34.559 24.58 34.083L24.166 33.938L23.353 33.644L22.573 33.353L21.839 33.07L20.861 32.682C20.3088 32.4611 19.7594 32.233 19.213 31.998C19.0541 31.9291 18.9158 31.8202 18.8116 31.6818C18.7075 31.5434 18.6411 31.3803 18.6189 31.2085C18.5967 31.0367 18.6195 30.8621 18.6851 30.7018C18.7507 30.5415 18.8568 30.401 18.993 30.294C20.371 29.214 21.663 27.972 22.755 26.825L23.283 26.261C23.369 26.169 23.453 26.077 23.534 25.987L24.006 25.46L24.226 25.208L24.82 24.513L25.157 24.107C25.5096 23.6737 25.9729 23.3439 26.4977 23.1526C27.0225 22.9612 27.5893 22.9154 28.138 23.02L28.337 23.066L29.074 23.263L31.778 16.613ZM27.819 24.998C27.6163 24.9474 27.4034 24.9562 27.2055 25.0232C27.0077 25.0902 26.8333 25.2127 26.703 25.376L26.46 25.669L31.858 27.115L31.811 26.723C31.803 26.6623 31.7947 26.6016 31.786 26.541C31.75 26.288 31.571 26.05 31.276 25.931L31.16 25.893L27.819 24.998Z" fill="#F2994A"/>
</g>
<defs>
<clipPath id="clip0_957_251">
<rect width="24" height="24" fill="white" transform="translate(14.5 14)"/>
</clipPath>
</defs>
</svg>
