<svg width="53" height="52" viewBox="0 0 53 52" fill="none" xmlns="http://www.w3.org/2000/svg">
<rect x="1.5" y="1" width="50" height="50" rx="7" stroke="#EB5757" stroke-width="2"/>
<path d="M30.5 20V19.2C30.5 18.0799 30.5 17.5198 30.282 17.092C30.0903 16.7157 29.7843 16.4097 29.408 16.218C28.9802 16 28.4201 16 27.3 16H25.7C24.5799 16 24.0198 16 23.592 16.218C23.2157 16.4097 22.9097 16.7157 22.718 17.092C22.5 17.5198 22.5 18.0799 22.5 19.2V20M24.5 25.5V30.5M28.5 25.5V30.5M17.5 20H35.5M33.5 20V31.2C33.5 32.8802 33.5 33.7202 33.173 34.362C32.8854 34.9265 32.4265 35.3854 31.862 35.673C31.2202 36 30.3802 36 28.7 36H24.3C22.6198 36 21.7798 36 21.138 35.673C20.5735 35.3854 20.1146 34.9265 19.827 34.362C19.5 33.7202 19.5 32.8802 19.5 31.2V20" stroke="#EB5757" stroke-width="1.5" stroke-linecap="round" stroke-linejoin="round"/>
</svg>
