<svg width="53" height="52" viewBox="0 0 53 52" fill="none" xmlns="http://www.w3.org/2000/svg">
<rect x="1.5" y="1" width="50" height="50" rx="7" stroke="#EB5757" stroke-width="2"/>
<path d="M17.5 20.524C17.5 20.129 17.827 19.81 18.23 19.81H23.018C23.024 18.968 23.116 17.815 23.95 17.017C24.637 16.3618 25.5506 15.9974 26.5 16C27.4494 15.9974 28.363 16.3618 29.05 17.017C29.884 17.815 29.976 18.968 29.982 19.81H34.77C35.173 19.81 35.5 20.13 35.5 20.524C35.499 20.6188 35.4792 20.7125 35.442 20.7997C35.4047 20.8869 35.3507 20.9659 35.2829 21.0322C35.2151 21.0985 35.1349 21.1508 35.0469 21.1861C34.9589 21.2214 34.8648 21.2391 34.77 21.238H18.23C18.1352 21.2391 18.0411 21.2214 17.9531 21.1861C17.8651 21.1508 17.7849 21.0985 17.7171 21.0322C17.6493 20.9659 17.5953 20.8869 17.558 20.7997C17.5208 20.7125 17.501 20.6188 17.5 20.524Z" fill="#EB5757"/>
<path fill-rule="evenodd" clip-rule="evenodd" d="M26.096 36H26.904C29.687 36 31.078 36 31.984 35.114C32.888 34.228 32.98 32.774 33.165 29.868L33.432 25.681C33.532 24.104 33.582 23.315 33.129 22.815C32.675 22.315 31.909 22.315 30.376 22.315H22.624C21.091 22.315 20.324 22.315 19.871 22.815C19.417 23.315 19.467 24.104 19.568 25.681L19.835 29.869C20.02 32.775 20.112 34.229 21.017 35.114C21.922 36 23.313 36 26.096 36ZM24.746 26.189C24.706 25.755 24.338 25.439 23.926 25.482C23.513 25.525 23.213 25.912 23.254 26.346L23.754 31.609C23.794 32.043 24.162 32.359 24.574 32.316C24.987 32.272 25.287 31.886 25.246 31.452L24.746 26.188V26.189ZM29.075 25.482C29.487 25.525 29.788 25.912 29.746 26.346L29.246 31.609C29.206 32.043 28.837 32.359 28.426 32.316C28.013 32.272 27.713 31.886 27.754 31.452L28.254 26.188C28.294 25.755 28.663 25.438 29.074 25.481L29.075 25.482Z" fill="#EB5757"/>
</svg>
