<svg width="24" height="24" viewBox="0 0 24 24" fill="none" xmlns="http://www.w3.org/2000/svg">
<rect width="24" height="24" rx="12" fill="#D6D6E0"/>
<path d="M12 5.33331C12.6593 5.33331 13.3037 5.52881 13.8519 5.89508C14.4001 6.26135 14.8273 6.78195 15.0796 7.39103C15.3319 8.00012 15.3979 8.67034 15.2693 9.31695C15.1407 9.96355 14.8232 10.5575 14.357 11.0237C13.8909 11.4898 13.2969 11.8073 12.6503 11.9359C12.0037 12.0645 11.3335 11.9985 10.7244 11.7462C10.1153 11.494 9.59472 11.0667 9.22844 10.5185C8.86217 9.97038 8.66668 9.32592 8.66668 8.66665L8.67001 8.52198C8.70729 7.66381 9.07441 6.85316 9.69483 6.25909C10.3152 5.66501 11.141 5.33336 12 5.33331Z" fill="white"/>
<path d="M13.3333 13.3333C14.2174 13.3333 15.0652 13.6845 15.6904 14.3096C16.3155 14.9347 16.6667 15.7826 16.6667 16.6666V17.3333C16.6667 17.6869 16.5262 18.0261 16.2762 18.2761C16.0261 18.5262 15.687 18.6666 15.3333 18.6666H8.66668C8.31305 18.6666 7.97392 18.5262 7.72387 18.2761C7.47382 18.0261 7.33334 17.6869 7.33334 17.3333V16.6666C7.33334 15.7826 7.68453 14.9347 8.30965 14.3096C8.93478 13.6845 9.78262 13.3333 10.6667 13.3333H13.3333Z" fill="white"/>
<path d="M12 5.33331C12.6593 5.33331 13.3037 5.52881 13.8519 5.89508C14.4001 6.26135 14.8273 6.78195 15.0796 7.39103C15.3319 8.00012 15.3979 8.67034 15.2693 9.31695C15.1407 9.96355 14.8232 10.5575 14.357 11.0237C13.8909 11.4898 13.2969 11.8073 12.6503 11.9359C12.0037 12.0645 11.3335 11.9985 10.7244 11.7462C10.1153 11.494 9.59472 11.0667 9.22844 10.5185C8.86217 9.97038 8.66668 9.32592 8.66668 8.66665L8.67001 8.52198C8.70729 7.66381 9.07441 6.85316 9.69483 6.25909C10.3152 5.66501 11.141 5.33336 12 5.33331Z" stroke="white"/>
<path d="M13.3333 13.3333C14.2174 13.3333 15.0652 13.6845 15.6904 14.3096C16.3155 14.9347 16.6667 15.7826 16.6667 16.6666V17.3333C16.6667 17.6869 16.5262 18.0261 16.2762 18.2761C16.0261 18.5262 15.687 18.6666 15.3333 18.6666H8.66668C8.31305 18.6666 7.97392 18.5262 7.72387 18.2761C7.47382 18.0261 7.33334 17.6869 7.33334 17.3333V16.6666C7.33334 15.7826 7.68453 14.9347 8.30965 14.3096C8.93478 13.6845 9.78262 13.3333 10.6667 13.3333H13.3333Z" stroke="white"/>
</svg>
