<svg width="32" height="32" viewBox="0 0 32 32" fill="none" xmlns="http://www.w3.org/2000/svg">
<path d="M4.08 17.3334C4.40722 20.2586 5.79812 22.9614 7.98818 24.928C10.1782 26.8946 13.0147 27.9876 15.9581 27.9993C18.9015 28.0109 21.7465 26.9404 23.9521 24.9912C26.1576 23.0421 27.5699 20.3503 27.9203 17.4278C28.2707 14.5053 27.5347 11.556 25.8524 9.14074C24.1701 6.72547 21.6588 5.01275 18.796 4.3283C15.9333 3.64385 12.9189 4.03542 10.326 5.42853C7.73316 6.82165 5.74275 9.11914 4.73333 11.8841M4 5.33462V12.0013H10.6667M14.6667 16C14.6667 16.3536 14.8071 16.6927 15.0572 16.9428C15.3072 17.1928 15.6464 17.3333 16 17.3333C16.3536 17.3333 16.6928 17.1928 16.9428 16.9428C17.1929 16.6927 17.3333 16.3536 17.3333 16C17.3333 15.6464 17.1929 15.3072 16.9428 15.0572C16.6928 14.8071 16.3536 14.6666 16 14.6666C15.6464 14.6666 15.3072 14.8071 15.0572 15.0572C14.8071 15.3072 14.6667 15.6464 14.6667 16Z" stroke="#E10000" stroke-width="2" stroke-linecap="round" stroke-linejoin="round"/>
</svg>
